<?xml version="1.0" encoding="UTF-8"?>
<!DOCTYPE svg PUBLIC "-//W3C//DTD SVG 1.1//EN" "http://www.w3.org/Graphics/SVG/1.1/DTD/svg11.dtd">
<svg xmlns="http://www.w3.org/2000/svg" version="1.1" width="800px" height="1018px" style="shape-rendering:geometricPrecision; text-rendering:geometricPrecision; image-rendering:optimizeQuality; fill-rule:evenodd; clip-rule:evenodd" xmlns:xlink="http://www.w3.org/1999/xlink">
<g><path style="opacity:0.946" fill="#000101" d="M 397.5,-0.5 C 398.833,-0.5 400.167,-0.5 401.5,-0.5C 407.852,4.52372 414.186,9.52372 420.5,14.5C 420.369,15.2389 420.536,15.9056 421,16.5C 424.519,19.6161 428.019,22.6161 431.5,25.5C 439.167,34.9604 446.5,44.7937 453.5,55C 466.868,75.6911 476.035,98.5244 481,123.5C 486.71,177.77 463.877,213.77 412.5,231.5C 412.333,310.501 412.5,389.501 413,468.5C 424.674,451.652 436.174,434.652 447.5,417.5C 430.381,380.975 433.548,346.308 457,313.5C 460.737,309.273 464.237,304.94 467.5,300.5C 479.386,290.355 491.72,281.521 504.5,274C 532.862,259.899 562.862,254.232 594.5,257C 622.835,261.003 647.835,272.336 669.5,291C 652.082,313.603 636.415,337.437 622.5,362.5C 610.949,380.253 597.949,396.92 583.5,412.5C 567.679,428.871 548.679,439.704 526.5,445C 505.483,448.202 485.649,445.035 467,435.5C 449.182,461.79 431.348,488.123 413.5,514.5C 412.501,526.815 412.168,539.149 412.5,551.5C 403.833,551.5 395.167,551.5 386.5,551.5C 386.833,523.492 386.5,495.492 385.5,467.5C 367.914,441.992 350.581,416.325 333.5,390.5C 328.254,389.579 323.588,390.913 319.5,394.5C 318.914,394.291 318.414,393.957 318,393.5C 313.489,395.78 308.655,397.28 303.5,398C 293.167,398.667 282.833,398.667 272.5,398C 245.097,391.692 222.763,377.025 205.5,354C 204.906,353.536 204.239,353.369 203.5,353.5C 181.251,322.86 160.751,291.527 142,259.5C 137.833,254.333 133.667,249.167 129.5,244C 169.804,210.941 215.304,201.441 266,215.5C 290.592,223.62 312.425,236.287 331.5,253.5C 335.119,258.129 338.786,262.796 342.5,267.5C 339.334,269.658 336.334,271.992 333.5,274.5C 329.389,275.595 325.722,277.595 322.5,280.5C 306.385,262.462 287.051,249.462 264.5,241.5C 264.389,240.883 264.056,240.383 263.5,240C 260.793,239.605 258.127,239.105 255.5,238.5C 253.379,238.675 251.379,238.341 249.5,237.5C 248.081,236.549 246.415,236.216 244.5,236.5C 245.167,240.5 245.833,244.5 246.5,248.5C 246.41,251.152 247.076,253.485 248.5,255.5C 250.361,263.921 252.028,272.255 253.5,280.5C 254.865,282.86 256.865,284.527 259.5,285.5C 261.884,287.885 264.55,289.885 267.5,291.5C 268.911,293.914 270.911,295.581 273.5,296.5C 293.736,313.066 312.736,331.066 330.5,350.5C 331.568,351.434 332.901,351.768 334.5,351.5C 334.517,349.435 334.85,347.435 335.5,345.5C 337.374,334.255 337.874,322.922 337,311.5C 335.429,308.321 334.262,304.987 333.5,301.5C 333.414,300.504 333.748,299.671 334.5,299C 337.412,297.768 340.078,296.268 342.5,294.5C 343.338,294.158 343.672,293.492 343.5,292.5C 346.535,291.709 349.535,290.709 352.5,289.5C 354.029,289.529 355.196,290.196 356,291.5C 365.777,318.585 364.277,344.918 351.5,370.5C 362.512,387.865 374.012,404.865 386,421.5C 386.5,358.168 386.667,294.834 386.5,231.5C 349.241,220.416 326.408,196.083 318,158.5C 317.333,146.833 317.333,135.167 318,123.5C 319.709,115.172 321.709,106.839 324,98.5C 325.658,93.4381 327.825,88.6048 330.5,84C 330.167,83.6667 329.833,83.3333 329.5,83C 336.872,69.1282 344.872,55.6282 353.5,42.5C 358.615,37.2569 363.282,31.5902 367.5,25.5C 368.239,25.631 368.906,25.4643 369.5,25C 372.616,21.481 375.616,17.981 378.5,14.5C 384.814,9.52372 391.148,4.52372 397.5,-0.5 Z"/></g>
<g><path style="opacity:0.004" fill="#000000" d="M 378.5,14.5 C 377.833,13.1667 377.833,13.1667 378.5,14.5 Z"/></g>
<g><path style="opacity:0.004" fill="#000000" d="M 420.5,13.5 C 421.833,14.1667 421.833,14.1667 420.5,13.5 Z"/></g>
<g><path style="opacity:0.004" fill="#000000" d="M 367.5,25.5 C 366.833,24.1667 366.833,24.1667 367.5,25.5 Z"/></g>
<g><path style="opacity:0.004" fill="#000000" d="M 431.5,24.5 C 432.833,25.1667 432.833,25.1667 431.5,24.5 Z"/></g>
<g><path style="opacity:1" fill="#134129" d="M 404.5,33.5 C 402.606,32.9524 400.94,31.9524 399.5,30.5C 398.817,30.8627 398.15,31.1961 397.5,31.5C 400.351,28.7964 402.684,29.4631 404.5,33.5 Z"/></g>
<g><path style="opacity:1" fill="#39be79" d="M 404.5,33.5 C 404.833,34.5 405.5,35.1667 406.5,35.5C 406.733,37.0618 407.4,38.3951 408.5,39.5C 388.53,62.2481 374.697,88.2481 367,117.5C 362.766,139.943 365.433,161.276 375,181.5C 378.697,186.685 382.53,191.685 386.5,196.5C 386.664,199.187 386.497,201.854 386,204.5C 382.483,202.159 378.649,200.493 374.5,199.5C 358.066,190.405 347.733,176.739 343.5,158.5C 342.743,148.518 342.41,138.518 342.5,128.5C 344.242,119.393 346.575,110.393 349.5,101.5C 351.357,99.7185 352.357,97.3852 352.5,94.5C 362.407,69.9164 377.407,48.9164 397.5,31.5C 398.15,31.1961 398.817,30.8627 399.5,30.5C 400.94,31.9524 402.606,32.9524 404.5,33.5 Z"/></g>
<g><path style="opacity:1" fill="#286646" d="M 406.5,35.5 C 408.587,36.5846 409.92,38.2512 410.5,40.5C 409.833,40.1667 409.167,39.8333 408.5,39.5C 407.4,38.3951 406.733,37.0618 406.5,35.5 Z"/></g>
<g><path style="opacity:0.004" fill="#000000" d="M 353.5,42.5 C 352.833,41.1667 352.833,41.1667 353.5,42.5 Z"/></g>
<g><path style="opacity:1" fill="#7ad9a8" d="M 408.5,39.5 C 409.167,39.8333 409.833,40.1667 410.5,40.5C 428.433,58.092 441.433,78.7586 449.5,102.5C 450.06,104.801 450.56,107.134 451,109.5C 451.383,110.056 451.883,110.389 452.5,110.5C 452.5,110.833 452.5,111.167 452.5,111.5C 452.77,116.45 453.77,121.117 455.5,125.5C 455.5,125.833 455.5,126.167 455.5,126.5C 456.668,135.846 456.668,145.179 455.5,154.5C 455.328,158.534 454.828,162.534 454,166.5C 450.837,170.831 448.337,175.497 446.5,180.5C 444.14,181.865 442.473,183.865 441.5,186.5C 434.213,193.801 425.879,199.468 416.5,203.5C 415.178,203.33 414.011,203.663 413,204.5C 412.5,176.835 412.333,149.169 412.5,121.5C 403.833,121.5 395.167,121.5 386.5,121.5C 386.5,146.5 386.5,171.5 386.5,196.5C 382.53,191.685 378.697,186.685 375,181.5C 365.433,161.276 362.766,139.943 367,117.5C 374.697,88.2481 388.53,62.2481 408.5,39.5 Z"/></g>
<g><path style="opacity:1" fill="#fefefe" d="M 388.5,76.5 C 395.833,76.5 403.167,76.5 410.5,76.5C 410.5,83.5 410.5,90.5 410.5,97.5C 403.167,97.5 395.833,97.5 388.5,97.5C 388.5,90.5 388.5,83.5 388.5,76.5 Z"/></g>
<g><path style="opacity:1" fill="#d2f2e1" d="M 388.5,76.5 C 395.648,75.5084 402.981,75.175 410.5,75.5C 411.833,83.1667 411.833,90.8333 410.5,98.5C 402.981,98.825 395.648,98.4916 388.5,97.5C 395.833,97.5 403.167,97.5 410.5,97.5C 410.5,90.5 410.5,83.5 410.5,76.5C 403.167,76.5 395.833,76.5 388.5,76.5 Z"/></g>
<g><path style="opacity:1" fill="#b0e9cb" d="M 410.5,75.5 C 402.981,75.175 395.648,75.5084 388.5,76.5C 388.5,83.5 388.5,90.5 388.5,97.5C 395.648,98.4916 402.981,98.825 410.5,98.5C 403.011,99.6557 395.345,99.8223 387.5,99C 386.167,91 386.167,83 387.5,75C 395.345,74.1777 403.011,74.3443 410.5,75.5 Z"/></g>
<g><path style="opacity:1" fill="#206d46" d="M 352.5,94.5 C 352.357,97.3852 351.357,99.7185 349.5,101.5C 349.759,98.7282 350.759,96.3949 352.5,94.5 Z"/></g>
<g><path style="opacity:1" fill="#3d6c54" d="M 449.5,102.5 C 450.117,102.611 450.617,102.944 451,103.5C 451.44,105.866 451.94,108.199 452.5,110.5C 451.883,110.389 451.383,110.056 451,109.5C 450.56,107.134 450.06,104.801 449.5,102.5 Z"/></g>
<g><path style="opacity:1" fill="#305a45" d="M 388.5,122.5 C 388.5,150.5 388.5,178.5 388.5,206.5C 387.209,206.737 386.209,206.404 385.5,205.5C 387.164,178.015 388.164,150.348 388.5,122.5 Z"/></g>
<g><path style="opacity:1" fill="#4e8a6b" d="M 452.5,111.5 C 454.23,115.883 455.23,120.55 455.5,125.5C 453.77,121.117 452.77,116.45 452.5,111.5 Z"/></g>
<g><path style="opacity:1" fill="#519270" d="M 416.5,203.5 C 414.898,205.074 412.898,205.741 410.5,205.5C 410.5,177.833 410.5,150.167 410.5,122.5C 403.167,122.5 395.833,122.5 388.5,122.5C 388.164,150.348 387.164,178.015 385.5,205.5C 381.638,203.738 377.972,201.738 374.5,199.5C 378.649,200.493 382.483,202.159 386,204.5C 386.497,201.854 386.664,199.187 386.5,196.5C 386.5,171.5 386.5,146.5 386.5,121.5C 395.167,121.5 403.833,121.5 412.5,121.5C 412.333,149.169 412.5,176.835 413,204.5C 414.011,203.663 415.178,203.33 416.5,203.5 Z"/></g>
<g><path style="opacity:1" fill="#447a5e" d="M 455.5,126.5 C 456.222,126.918 456.722,127.584 457,128.5C 457.667,136.5 457.667,144.5 457,152.5C 456.722,153.416 456.222,154.082 455.5,154.5C 456.668,145.179 456.668,135.846 455.5,126.5 Z"/></g>
<g><path style="opacity:1" fill="#1e6742" d="M 342.5,128.5 C 342.41,138.518 342.743,148.518 343.5,158.5C 342,152.74 341.333,146.74 341.5,140.5C 341.501,136.319 341.834,132.319 342.5,128.5 Z"/></g>
<g><path style="opacity:1" fill="#294838" d="M 446.5,180.5 C 445.557,183.109 443.89,185.109 441.5,186.5C 442.473,183.865 444.14,181.865 446.5,180.5 Z"/></g>
<g><path style="opacity:1" fill="#2a4a39" d="M 220.5,234.5 C 216.298,234.183 212.298,234.517 208.5,235.5C 207.167,235.5 205.833,235.5 204.5,235.5C 207.356,233.994 210.523,233.328 214,233.5C 216.361,233.504 218.527,233.837 220.5,234.5 Z"/></g>
<g><path style="opacity:1" fill="#579a77" d="M 208.5,235.5 C 212.298,234.517 216.298,234.183 220.5,234.5C 221.434,235.568 221.768,236.901 221.5,238.5C 219.952,238.179 219.285,237.179 219.5,235.5C 215.833,235.5 212.167,235.5 208.5,235.5 Z"/></g>
<g><path style="opacity:1" fill="#79d7a7" d="M 201.5,235.5 C 202.5,235.5 203.5,235.5 204.5,235.5C 205.833,235.5 207.167,235.5 208.5,235.5C 212.167,235.5 215.833,235.5 219.5,235.5C 219.285,237.179 219.952,238.179 221.5,238.5C 221.5,239.167 221.5,239.833 221.5,240.5C 221.763,245.124 222.763,249.458 224.5,253.5C 224.5,254.5 224.5,255.5 224.5,256.5C 224.923,258.781 224.256,260.448 222.5,261.5C 221.005,261.011 219.671,260.345 218.5,259.5C 215.281,257.175 211.948,254.842 208.5,252.5C 205.609,251.322 202.609,250.655 199.5,250.5C 195.304,249.215 191.304,247.548 187.5,245.5C 184.741,245.067 183.408,243.4 183.5,240.5C 189.995,240.218 195.995,238.552 201.5,235.5 Z"/></g>
<g><path style="opacity:1" fill="#79d7a6" d="M 249.5,237.5 C 251.379,238.341 253.379,238.675 255.5,238.5C 255.611,239.117 255.944,239.617 256.5,240C 259.207,240.395 261.873,240.895 264.5,241.5C 287.051,249.462 306.385,262.462 322.5,280.5C 325.722,277.595 329.389,275.595 333.5,274.5C 337.768,279.96 341.101,285.96 343.5,292.5C 343.672,293.492 343.338,294.158 342.5,294.5C 339.293,295.179 336.293,296.346 333.5,298C 332.209,299.292 332.209,300.458 333.5,301.5C 334.262,304.987 335.429,308.321 337,311.5C 337.874,322.922 337.374,334.255 335.5,345.5C 333.744,346.552 333.077,348.219 333.5,350.5C 332.5,350.5 331.5,350.5 330.5,350.5C 312.736,331.066 293.736,313.066 273.5,296.5C 272.089,294.086 270.089,292.419 267.5,291.5C 264.55,289.885 261.884,287.885 259.5,285.5C 258.109,283.11 256.109,281.443 253.5,280.5C 252.028,272.255 250.361,263.921 248.5,255.5C 248.5,254.167 248.5,252.833 248.5,251.5C 248.403,246.677 247.403,242.177 245.5,238C 246.793,237.51 248.127,237.343 249.5,237.5 Z"/></g>
<g><path style="opacity:1" fill="#345b47" d="M 255.5,238.5 C 258.127,239.105 260.793,239.605 263.5,240C 264.056,240.383 264.389,240.883 264.5,241.5C 261.873,240.895 259.207,240.395 256.5,240C 255.944,239.617 255.611,239.117 255.5,238.5 Z"/></g>
<g><path style="opacity:1" fill="#448964" d="M 201.5,235.5 C 195.995,238.552 189.995,240.218 183.5,240.5C 183.408,243.4 184.741,245.067 187.5,245.5C 184.477,245.483 181.81,244.483 179.5,242.5C 180.5,241.667 181.5,240.833 182.5,240C 188.531,237.436 194.865,235.936 201.5,235.5 Z"/></g>
<g><path style="opacity:1" fill="#60aa84" d="M 249.5,237.5 C 248.127,237.343 246.793,237.51 245.5,238C 247.403,242.177 248.403,246.677 248.5,251.5C 247.833,250.5 247.167,249.5 246.5,248.5C 245.833,244.5 245.167,240.5 244.5,236.5C 246.415,236.216 248.081,236.549 249.5,237.5 Z"/></g>
<g><path style="opacity:1" fill="#5fa983" d="M 199.5,250.5 C 202.609,250.655 205.609,251.322 208.5,252.5C 211.948,254.842 215.281,257.175 218.5,259.5C 212.209,256.298 205.876,253.298 199.5,250.5 Z"/></g>
<g><path style="opacity:1" fill="#335b46" d="M 221.5,240.5 C 222.222,240.918 222.722,241.584 223,242.5C 223.548,246.17 224.048,249.837 224.5,253.5C 222.763,249.458 221.763,245.124 221.5,240.5 Z"/></g>
<g><path style="opacity:0.004" fill="#000000" d="M 331.5,252.5 C 332.833,253.167 332.833,253.167 331.5,252.5 Z"/></g>
<g><path style="opacity:1" fill="#345b47" d="M 246.5,248.5 C 247.167,249.5 247.833,250.5 248.5,251.5C 248.5,252.833 248.5,254.167 248.5,255.5C 247.076,253.485 246.41,251.152 246.5,248.5 Z"/></g>
<g><path style="opacity:1" fill="#4a8466" d="M 224.5,256.5 C 225.629,258.628 225.796,260.961 225,263.5C 224.005,262.934 223.172,262.267 222.5,261.5C 224.256,260.448 224.923,258.781 224.5,256.5 Z"/></g>
<g><path style="opacity:1" fill="#24794d" d="M 188.5,271.5 C 185.64,271.072 182.974,270.072 180.5,268.5C 179.833,268.833 179.167,269.167 178.5,269.5C 179.127,270.417 179.461,271.417 179.5,272.5C 177.957,271.264 176.957,269.598 176.5,267.5C 177.167,267.167 177.833,266.833 178.5,266.5C 182.196,267.681 185.529,269.348 188.5,271.5 Z"/></g>
<g><path style="opacity:1" fill="#39be79" d="M 188.5,271.5 C 196.319,274.91 203.986,278.577 211.5,282.5C 221.883,301.555 233.883,319.555 247.5,336.5C 241.217,340.378 234.55,342.378 227.5,342.5C 209.529,320.573 193.529,297.239 179.5,272.5C 179.461,271.417 179.127,270.417 178.5,269.5C 179.167,269.167 179.833,268.833 180.5,268.5C 182.974,270.072 185.64,271.072 188.5,271.5 Z"/></g>
<g><path style="opacity:1" fill="#315844" d="M 589.5,281.5 C 586.15,281.335 582.817,281.502 579.5,282C 578.915,283.302 578.249,284.469 577.5,285.5C 578.249,284.469 578.915,283.302 579.5,282C 582.817,281.502 586.15,281.335 589.5,281.5 Z"/></g>
<g><path style="opacity:1" fill="#4b8567" d="M 253.5,280.5 C 256.109,281.443 258.109,283.11 259.5,285.5C 256.865,284.527 254.865,282.86 253.5,280.5 Z"/></g>
<g><path style="opacity:1" fill="#345d48" d="M 590.5,281.5 C 596.931,281.434 602.931,282.767 608.5,285.5C 602.34,284.322 596.34,282.989 590.5,281.5 Z"/></g>
<g><path style="opacity:1" fill="#77d4a4" d="M 589.5,281.5 C 589.833,281.5 590.167,281.5 590.5,281.5C 596.34,282.989 602.34,284.322 608.5,285.5C 609.167,285.5 609.833,285.5 610.5,285.5C 612.282,287.357 614.615,288.357 617.5,288.5C 616.306,289.272 615.306,290.272 614.5,291.5C 608.137,293.509 601.803,295.676 595.5,298C 594.944,298.383 594.611,298.883 594.5,299.5C 592.033,299.755 590.033,300.755 588.5,302.5C 583.688,304.444 579.022,306.777 574.5,309.5C 573.932,306.588 573.932,303.588 574.5,300.5C 576.237,296.458 577.237,292.124 577.5,287.5C 577.5,286.833 577.5,286.167 577.5,285.5C 578.249,284.469 578.915,283.302 579.5,282C 582.817,281.502 586.15,281.335 589.5,281.5 Z"/></g>
<g><path style="opacity:1" fill="#68b88f" d="M 552.5,294.5 C 552.011,295.995 551.345,297.329 550.5,298.5C 551.162,294.534 551.495,290.534 551.5,286.5C 548.813,286.336 546.146,286.503 543.5,287C 537.977,289.071 532.31,290.571 526.5,291.5C 530.083,289.621 533.916,287.955 538,286.5C 540.137,285.923 542.304,285.59 544.5,285.5C 547.554,284.679 550.554,284.679 553.5,285.5C 552.593,288.421 552.26,291.421 552.5,294.5 Z"/></g>
<g><path style="opacity:1" fill="#78d6a5" d="M 211.5,282.5 C 232.887,294.959 253.054,309.293 272,325.5C 272.483,326.448 272.649,327.448 272.5,328.5C 264.321,331.629 255.988,334.295 247.5,336.5C 233.883,319.555 221.883,301.555 211.5,282.5 Z"/></g>
<g><path style="opacity:1" fill="#79d7a7" d="M 550.5,298.5 C 550.071,304.94 549.071,311.274 547.5,317.5C 546.883,317.611 546.383,317.944 546,318.5C 545.997,322.467 545.164,326.134 543.5,329.5C 518.275,348.89 494.441,369.89 472,392.5C 470.613,394.047 469.447,395.713 468.5,397.5C 467.5,397.5 466.5,397.5 465.5,397.5C 465.946,394.99 465.28,392.99 463.5,391.5C 463.5,391.167 463.5,390.833 463.5,390.5C 462.167,378.833 462.167,367.167 463.5,355.5C 463.5,354.833 463.5,354.167 463.5,353.5C 465.245,351.967 466.245,349.967 466.5,347.5C 471.573,334.587 479.239,323.42 489.5,314C 500.339,303.92 512.672,296.42 526.5,291.5C 532.31,290.571 537.977,289.071 543.5,287C 546.146,286.503 548.813,286.336 551.5,286.5C 551.495,290.534 551.162,294.534 550.5,298.5 Z"/></g>
<g><path style="opacity:1" fill="#3b7055" d="M 610.5,285.5 C 613.272,285.759 615.605,286.759 617.5,288.5C 614.615,288.357 612.282,287.357 610.5,285.5 Z"/></g>
<g><path style="opacity:1" fill="#2e513f" d="M 552.5,294.5 C 552.26,291.421 552.593,288.421 553.5,285.5C 550.554,284.679 547.554,284.679 544.5,285.5C 544.918,284.778 545.584,284.278 546.5,284C 549.146,283.503 551.813,283.336 554.5,283.5C 554.749,287.458 554.082,291.124 552.5,294.5 Z"/></g>
<g><path style="opacity:1" fill="#237048" d="M 617.5,288.5 C 618.376,288.369 619.043,288.702 619.5,289.5C 617.978,290.562 616.312,291.229 614.5,291.5C 615.306,290.272 616.306,289.272 617.5,288.5 Z"/></g>
<g><path style="opacity:1" fill="#457b5f" d="M 267.5,291.5 C 270.089,292.419 272.089,294.086 273.5,296.5C 270.911,295.581 268.911,293.914 267.5,291.5 Z"/></g>
<g><path style="opacity:1" fill="#3c6a52" d="M 342.5,294.5 C 340.078,296.268 337.412,297.768 334.5,299C 333.748,299.671 333.414,300.504 333.5,301.5C 332.209,300.458 332.209,299.292 333.5,298C 336.293,296.346 339.293,295.179 342.5,294.5 Z"/></g>
<g><path style="opacity:0.004" fill="#000000" d="M 467.5,300.5 C 466.833,299.167 466.833,299.167 467.5,300.5 Z"/></g>
<g><path style="opacity:1" fill="#345d48" d="M 577.5,287.5 C 577.237,292.124 576.237,296.458 574.5,300.5C 574.952,296.837 575.452,293.17 576,289.5C 576.278,288.584 576.778,287.918 577.5,287.5 Z"/></g>
<g><path style="opacity:1" fill="#2c4e3c" d="M 594.5,299.5 C 592.967,301.245 590.967,302.245 588.5,302.5C 590.033,300.755 592.033,299.755 594.5,299.5 Z"/></g>
<g><path style="opacity:1" fill="#1c5f3c" d="M 620.5,313.5 C 618.967,315.245 616.967,316.245 614.5,316.5C 616.033,314.755 618.033,313.755 620.5,313.5 Z"/></g>
<g><path style="opacity:1" fill="#39be79" d="M 620.5,313.5 C 621.376,313.369 622.043,313.702 622.5,314.5C 607.074,340.588 590.074,365.588 571.5,389.5C 570.5,389.833 569.5,390.167 568.5,390.5C 562.41,388.91 556.743,386.577 551.5,383.5C 565.312,365.362 578.312,346.696 590.5,327.5C 592.216,325.975 594.216,324.975 596.5,324.5C 598.967,324.245 600.967,323.245 602.5,321.5C 606.496,319.834 610.496,318.167 614.5,316.5C 616.967,316.245 618.967,315.245 620.5,313.5 Z"/></g>
<g><path style="opacity:1" fill="#599d7a" d="M 547.5,317.5 C 546.82,321.119 546.32,324.786 546,328.5C 545.329,329.252 544.496,329.586 543.5,329.5C 545.164,326.134 545.997,322.467 546,318.5C 546.383,317.944 546.883,317.611 547.5,317.5 Z"/></g>
<g><path style="opacity:1" fill="#1d643f" d="M 602.5,321.5 C 600.967,323.245 598.967,324.245 596.5,324.5C 598.033,322.755 600.033,321.755 602.5,321.5 Z"/></g>
<g><path style="opacity:1" fill="#77d4a4" d="M 590.5,327.5 C 578.312,346.696 565.312,365.362 551.5,383.5C 543.78,381.154 536.114,378.654 528.5,376C 526.842,375.275 526.342,374.108 527,372.5C 546.398,354.924 567.565,339.924 590.5,327.5 Z"/></g>
<g><path style="opacity:1" fill="#39654e" d="M 290.5,346.5 C 288.718,348.357 286.385,349.357 283.5,349.5C 285.395,347.759 287.728,346.759 290.5,346.5 Z"/></g>
<g><path style="opacity:1" fill="#77d4a4" d="M 290.5,346.5 C 291.873,346.343 293.207,346.51 294.5,347C 301.522,354.022 308.522,361.022 315.5,368C 312.792,370.175 309.792,371.675 306.5,372.5C 300.147,373.005 293.813,373.672 287.5,374.5C 287.158,373.662 286.492,373.328 285.5,373.5C 278.883,367.569 271.883,361.903 264.5,356.5C 263.583,357.127 262.583,357.461 261.5,357.5C 268.389,353.97 275.722,351.303 283.5,349.5C 286.385,349.357 288.718,348.357 290.5,346.5 Z"/></g>
<g><path style="opacity:1" fill="#315844" d="M 466.5,347.5 C 466.245,349.967 465.245,351.967 463.5,353.5C 463.755,351.033 464.755,349.033 466.5,347.5 Z"/></g>
<g><path style="opacity:1" fill="#274636" d="M 335.5,345.5 C 334.85,347.435 334.517,349.435 334.5,351.5C 332.901,351.768 331.568,351.434 330.5,350.5C 331.5,350.5 332.5,350.5 333.5,350.5C 333.077,348.219 333.744,346.552 335.5,345.5 Z"/></g>
<g><path style="opacity:0.004" fill="#000000" d="M 203.5,353.5 C 202.833,354.167 202.833,354.167 203.5,353.5 Z"/></g>
<g><path style="opacity:1" fill="#38bc78" d="M 285.5,373.5 C 281.466,373.495 277.466,373.162 273.5,372.5C 271.5,372.167 269.5,371.833 267.5,371.5C 266.097,370.069 264.431,368.902 262.5,368C 261.207,367.51 259.873,367.343 258.5,367.5C 246.441,362.037 247.441,358.703 261.5,357.5C 262.583,357.461 263.583,357.127 264.5,356.5C 271.883,361.903 278.883,367.569 285.5,373.5 Z"/></g>
<g><path style="opacity:1" fill="#3c6b53" d="M 463.5,355.5 C 462.167,367.167 462.167,378.833 463.5,390.5C 460.306,379.774 459.806,368.774 462,357.5C 462.278,356.584 462.778,355.918 463.5,355.5 Z"/></g>
<g><path style="opacity:1" fill="#217248" d="M 258.5,367.5 C 259.873,367.343 261.207,367.51 262.5,368C 264.431,368.902 266.097,370.069 267.5,371.5C 264.053,370.917 261.053,369.584 258.5,367.5 Z"/></g>
<g><path style="opacity:1" fill="#298c59" d="M 273.5,372.5 C 277.466,373.162 281.466,373.495 285.5,373.5C 286.492,373.328 287.158,373.662 287.5,374.5C 284.833,374.5 282.167,374.5 279.5,374.5C 277.102,374.741 275.102,374.074 273.5,372.5 Z"/></g>
<g><path style="opacity:1" fill="#1b2f25" d="M 306.5,372.5 C 297.754,375.589 288.754,376.256 279.5,374.5C 282.167,374.5 284.833,374.5 287.5,374.5C 293.813,373.672 300.147,373.005 306.5,372.5 Z"/></g>
<g><path style="opacity:1" fill="#78d6a6" d="M 516.5,396.5 C 517.483,397.85 518.816,398.85 520.5,399.5C 524.753,400.251 528.753,401.584 532.5,403.5C 525.716,409.96 518.382,415.627 510.5,420.5C 505.797,420.563 501.13,420.229 496.5,419.5C 491.972,419.028 487.639,418.028 483.5,416.5C 483.729,414.567 484.562,412.9 486,411.5C 491.737,405.718 497.57,400.052 503.5,394.5C 508.061,393.612 512.394,394.278 516.5,396.5 Z"/></g>
<g><path style="opacity:1" fill="#2f5340" d="M 463.5,391.5 C 465.28,392.99 465.946,394.99 465.5,397.5C 466.5,397.5 467.5,397.5 468.5,397.5C 467.432,398.434 466.099,398.768 464.5,398.5C 464.552,396.097 464.219,393.764 463.5,391.5 Z"/></g>
<g><path style="opacity:0.004" fill="#000000" d="M 595.5,400.5 C 596.833,401.167 596.833,401.167 595.5,400.5 Z"/></g>
<g><path style="opacity:1" fill="#569d78" d="M 516.5,396.5 C 523.087,398.387 529.42,400.721 535.5,403.5C 534.5,403.5 533.5,403.5 532.5,403.5C 528.753,401.584 524.753,400.251 520.5,399.5C 518.816,398.85 517.483,397.85 516.5,396.5 Z"/></g>
<g><path style="opacity:1" fill="#3bc27c" d="M 532.5,403.5 C 533.5,403.5 534.5,403.5 535.5,403.5C 536.568,404.434 537.901,404.768 539.5,404.5C 540.483,405.85 541.816,406.85 543.5,407.5C 542.05,408.85 541.383,410.516 541.5,412.5C 537.709,414.46 533.709,416.127 529.5,417.5C 526.585,415.758 525.251,416.425 525.5,419.5C 520.518,420.053 515.518,420.387 510.5,420.5C 518.382,415.627 525.716,409.96 532.5,403.5 Z"/></g>
<g><path style="opacity:1" fill="#2d9861" d="M 539.5,404.5 C 543.216,404.927 546.55,406.26 549.5,408.5C 543.141,413.511 536.141,417.178 528.5,419.5C 527.5,419.5 526.5,419.5 525.5,419.5C 525.251,416.425 526.585,415.758 529.5,417.5C 533.709,416.127 537.709,414.46 541.5,412.5C 541.383,410.516 542.05,408.85 543.5,407.5C 541.816,406.85 540.483,405.85 539.5,404.5 Z"/></g>
<g><path style="opacity:1" fill="#2a6a48" d="M 496.5,419.5 C 501.13,420.229 505.797,420.563 510.5,420.5C 515.518,420.387 520.518,420.053 525.5,419.5C 526.5,419.5 527.5,419.5 528.5,419.5C 522.916,421.034 517.083,421.701 511,421.5C 506.833,421.333 502.667,421.167 498.5,421C 497.584,420.722 496.918,420.222 496.5,419.5 Z"/></g>
<g><path style="opacity:0.953" fill="#010101" d="M 695.5,531.5 C 691.632,535.505 687.966,539.839 684.5,544.5C 668.199,569.126 651.532,593.459 634.5,617.5C 621.957,632.043 608.29,645.71 593.5,658.5C 576.903,671.633 558.236,680.133 537.5,684C 512.74,687.52 489.574,683.353 468,671.5C 449.655,698.867 431.321,726.2 413,753.5C 412.5,763.161 412.334,772.828 412.5,782.5C 466.629,788.694 507.629,815.694 535.5,863.5C 560.265,867.608 579.265,880.775 592.5,903C 595.17,909.69 597.336,916.523 599,923.5C 615.093,922.342 631.259,922.176 647.5,923C 695.644,936.557 718.977,968.057 717.5,1017.5C 697.167,1017.5 676.833,1017.5 656.5,1017.5C 656.5,1014.17 656.5,1010.83 656.5,1007.5C 657.436,1003.26 657.769,998.931 657.5,994.5C 668.833,994.5 680.167,994.5 691.5,994.5C 691.067,991.834 690.567,989.168 690,986.5C 689.617,985.944 689.117,985.611 688.5,985.5C 686.829,978.835 683.495,973.168 678.5,968.5C 671.143,959.309 661.81,952.809 650.5,949C 625.535,947.725 600.535,947.058 575.5,947C 576.701,908.696 558.034,888.863 519.5,887.5C 498.264,839.859 461.597,813.193 409.5,807.5C 397.638,806.182 385.638,806.349 373.5,808C 372.944,808.383 372.611,808.883 372.5,809.5C 371.833,809.5 371.167,809.5 370.5,809.5C 364.776,809.556 359.776,811.223 355.5,814.5C 340.087,819.209 326.42,827.042 314.5,838C 304.014,847.526 295.347,858.359 288.5,870.5C 284.71,874.844 282.043,879.844 280.5,885.5C 278.94,887.954 277.94,890.62 277.5,893.5C 276.103,897.453 274.603,901.453 273,905.5C 272.589,910.519 272.089,915.519 271.5,920.5C 271.5,921.5 271.5,922.5 271.5,923.5C 293.994,924.497 316.661,924.831 339.5,924.5C 339.5,931.833 339.5,939.167 339.5,946.5C 277.832,946.333 216.166,946.5 154.5,947C 153.584,947.278 152.918,947.778 152.5,948.5C 136.488,952.09 123.988,960.757 115,974.5C 112.425,977.726 110.925,981.393 110.5,985.5C 108.446,988.008 107.446,991.008 107.5,994.5C 267.167,994.5 426.833,994.5 586.5,994.5C 586.231,998.931 586.564,1003.26 587.5,1007.5C 587.5,1010.83 587.5,1014.17 587.5,1017.5C 418.833,1017.5 250.167,1017.5 81.5,1017.5C 79.219,981.821 92.719,953.821 122,933.5C 122.333,933.833 122.667,934.167 123,934.5C 131.376,928.943 140.543,925.277 150.5,923.5C 182.5,922.833 214.5,922.167 246.5,921.5C 254.653,859.599 286.986,816.433 343.5,792C 357.262,786.764 371.596,783.597 386.5,782.5C 386.667,757.164 386.5,731.831 386,706.5C 368.084,679.67 349.917,653.003 331.5,626.5C 331,626.167 330.5,625.833 330,625.5C 285.254,645.816 243.42,640.982 204.5,611C 185.524,594.529 168.524,576.362 153.5,556.5C 136.791,529.663 118.458,503.33 98.5,477.5C 97.5721,476.232 97.4054,474.899 98,473.5C 144.916,436.52 197.416,426.353 255.5,443C 288.496,452.157 316.329,469.99 339,496.5C 349.587,510.592 356.754,526.258 360.5,543.5C 361.666,554.151 361.832,564.818 361,575.5C 358.11,586.748 354.777,597.748 351,608.5C 363.319,625.934 374.986,643.267 386,660.5C 386.5,647.171 386.667,633.837 386.5,620.5C 395.167,620.5 403.833,620.5 412.5,620.5C 412.333,649.502 412.5,678.502 413,707.5C 424.011,690.277 435.677,672.944 448,655.5C 427.392,605.785 436.892,562.619 476.5,526C 523.947,487.759 577.614,474.925 637.5,487.5C 662.363,493.736 683.696,505.236 701.5,522C 698.904,524.768 696.904,527.935 695.5,531.5 Z"/></g>
<g><path style="opacity:1" fill="#17281f" d="M 221.5,461.5 C 213.184,460.815 204.851,460.482 196.5,460.5C 192.131,460.467 187.798,460.8 183.5,461.5C 184.263,460.732 185.263,460.232 186.5,460C 191.167,459.833 195.833,459.667 200.5,459.5C 207.73,459.333 214.73,459.999 221.5,461.5 Z"/></g>
<g><path style="opacity:1" fill="#529271" d="M 196.5,460.5 C 189.052,462.112 181.386,463.112 173.5,463.5C 173.918,462.778 174.584,462.278 175.5,462C 178.146,461.503 180.813,461.336 183.5,461.5C 187.798,460.8 192.131,460.467 196.5,460.5 Z"/></g>
<g><path style="opacity:1" fill="#79d8a7" d="M 196.5,460.5 C 204.851,460.482 213.184,460.815 221.5,461.5C 230.544,462.922 239.544,464.589 248.5,466.5C 248.5,467.5 248.5,468.5 248.5,469.5C 255.16,471.161 261.826,472.828 268.5,474.5C 291.926,484.418 311.093,499.751 326,520.5C 337.825,541.59 339.658,563.59 331.5,586.5C 299.796,552.774 263.796,524.774 223.5,502.5C 221.967,500.755 219.967,499.755 217.5,499.5C 216.508,499.672 215.842,499.338 215.5,498.5C 213.083,496.063 210.083,494.73 206.5,494.5C 203.545,493.841 200.545,493.508 197.5,493.5C 196.473,499.891 195.14,506.224 193.5,512.5C 193.833,513.5 194.167,514.5 194.5,515.5C 204.138,519.102 213.472,523.269 222.5,528C 255.639,548.474 285.806,572.641 313,600.5C 314.438,601.9 315.271,603.567 315.5,605.5C 312.204,606.424 308.871,607.424 305.5,608.5C 295.968,610.739 286.301,612.072 276.5,612.5C 264.433,606.287 253.1,598.787 242.5,590C 232.636,580.47 223.136,570.637 214,560.5C 205.638,549.478 197.305,538.478 189,527.5C 176.914,508.41 164.414,489.577 151.5,471C 152.942,470.623 153.942,469.79 154.5,468.5C 156.588,467.061 158.921,466.394 161.5,466.5C 164.456,465.863 167.456,465.363 170.5,465C 171.056,464.617 171.389,464.117 171.5,463.5C 172.167,463.5 172.833,463.5 173.5,463.5C 181.386,463.112 189.052,462.112 196.5,460.5 Z"/></g>
<g><path style="opacity:1" fill="#457a5f" d="M 171.5,463.5 C 171.389,464.117 171.056,464.617 170.5,465C 167.456,465.363 164.456,465.863 161.5,466.5C 161.611,465.883 161.944,465.383 162.5,465C 165.544,464.637 168.544,464.137 171.5,463.5 Z"/></g>
<g><path style="opacity:1" fill="#5ca37e" d="M 248.5,466.5 C 254.926,468.52 261.259,470.686 267.5,473C 268.056,473.383 268.389,473.883 268.5,474.5C 261.826,472.828 255.16,471.161 248.5,469.5C 248.5,468.5 248.5,467.5 248.5,466.5 Z"/></g>
<g><path style="opacity:1" fill="#206c45" d="M 147.5,471.5 C 145.967,473.245 143.967,474.245 141.5,474.5C 143.033,472.755 145.033,471.755 147.5,471.5 Z"/></g>
<g><path style="opacity:1" fill="#39be79" d="M 154.5,468.5 C 153.942,469.79 152.942,470.623 151.5,471C 164.414,489.577 176.914,508.41 189,527.5C 197.305,538.478 205.638,549.478 214,560.5C 223.136,570.637 232.636,580.47 242.5,590C 253.1,598.787 264.433,606.287 276.5,612.5C 276.5,612.833 276.5,613.167 276.5,613.5C 273.5,613.5 270.5,613.5 267.5,613.5C 262.765,611.644 257.765,610.31 252.5,609.5C 247.833,606.603 242.833,604.27 237.5,602.5C 233.403,600.617 229.403,598.45 225.5,596C 209.009,582.576 194.175,567.409 181,550.5C 164.914,527.989 149.081,505.322 133.5,482.5C 132.572,481.232 132.405,479.899 133,478.5C 135.605,476.65 138.438,475.317 141.5,474.5C 143.967,474.245 145.967,473.245 147.5,471.5C 149.509,469.935 151.843,468.935 154.5,468.5 Z"/></g>
<g><path style="opacity:1" fill="#549473" d="M 206.5,494.5 C 210.083,494.73 213.083,496.063 215.5,498.5C 214.127,498.657 212.793,498.49 211.5,498C 209.569,497.098 207.903,495.931 206.5,494.5 Z"/></g>
<g><path style="opacity:1" fill="#407158" d="M 217.5,499.5 C 219.967,499.755 221.967,500.755 223.5,502.5C 221.033,502.245 219.033,501.245 217.5,499.5 Z"/></g>
<g><path style="opacity:1" fill="#42765b" d="M 583.5,507.5 C 582.167,508.167 580.833,508.833 579.5,509.5C 574.797,509.437 570.13,509.771 565.5,510.5C 565.918,509.778 566.584,509.278 567.5,509C 572.808,508.17 578.141,507.67 583.5,507.5 Z"/></g>
<g><path style="opacity:1" fill="#7ad8a7" d="M 632.5,512.5 C 634.861,512.674 637.194,513.007 639.5,513.5C 641.623,515.797 644.29,517.13 647.5,517.5C 630.927,542.302 614.094,566.968 597,591.5C 582.886,609.947 567.053,626.781 549.5,642C 541.175,648.164 532.508,653.831 523.5,659C 519.514,659.499 515.514,659.666 511.5,659.5C 507.546,658.619 503.546,657.952 499.5,657.5C 498.833,657.5 498.167,657.5 497.5,657.5C 495.605,655.759 493.272,654.759 490.5,654.5C 488.167,653.833 485.833,653.167 483.5,652.5C 483.729,650.567 484.562,648.9 486,647.5C 513.311,618.461 544.144,594.128 578.5,574.5C 581.546,574.275 583.879,572.942 585.5,570.5C 590.624,569.462 595.291,567.462 599.5,564.5C 601.827,564.753 603.827,564.086 605.5,562.5C 606.776,561.386 606.776,560.386 605.5,559.5C 605.167,557.5 604.833,555.5 604.5,553.5C 604.408,548.635 603.075,544.301 600.5,540.5C 597.729,540.421 595.063,540.921 592.5,542C 586.678,544.367 581.012,546.867 575.5,549.5C 573.033,549.755 571.033,550.755 569.5,552.5C 531.612,573.872 497.945,600.705 468.5,633C 465.496,629.766 463.83,625.6 463.5,620.5C 462.167,611.167 462.167,601.833 463.5,592.5C 463.5,592.167 463.5,591.833 463.5,591.5C 466.897,585.592 469.23,579.258 470.5,572.5C 472.822,571.198 474.155,569.198 474.5,566.5C 477.87,560.617 481.87,555.117 486.5,550C 494.831,542.154 503.831,535.321 513.5,529.5C 517.674,529.341 521.008,527.675 523.5,524.5C 525.967,524.245 527.967,523.245 529.5,521.5C 529.833,521.5 530.167,521.5 530.5,521.5C 534.434,520.184 538.101,518.517 541.5,516.5C 541.833,516.5 542.167,516.5 542.5,516.5C 550.037,516.001 557.037,514.001 563.5,510.5C 564.167,510.5 564.833,510.5 565.5,510.5C 570.13,509.771 574.797,509.437 579.5,509.5C 597.34,507.629 615.007,508.629 632.5,512.5 Z"/></g>
<g><path style="opacity:1" fill="#63af88" d="M 583.5,507.5 C 596.53,507.263 609.53,507.763 622.5,509C 626.052,509.878 629.386,511.044 632.5,512.5C 615.007,508.629 597.34,507.629 579.5,509.5C 580.833,508.833 582.167,508.167 583.5,507.5 Z"/></g>
<g><path style="opacity:1" fill="#529170" d="M 563.5,510.5 C 557.037,514.001 550.037,516.001 542.5,516.5C 542.611,515.883 542.944,515.383 543.5,515C 547.069,514.61 550.403,513.61 553.5,512C 556.827,511.39 560.161,510.89 563.5,510.5 Z"/></g>
<g><path style="opacity:1" fill="#488c68" d="M 639.5,513.5 C 643.864,515.313 648.197,516.98 652.5,518.5C 650.708,518.634 649.042,518.301 647.5,517.5C 644.29,517.13 641.623,515.797 639.5,513.5 Z"/></g>
<g><path style="opacity:1" fill="#3c6a52" d="M 541.5,516.5 C 538.101,518.517 534.434,520.184 530.5,521.5C 533.475,518.575 537.142,516.908 541.5,516.5 Z"/></g>
<g><path style="opacity:1" fill="#3abf7a" d="M 647.5,517.5 C 649.042,518.301 650.708,518.634 652.5,518.5C 656.68,520.811 661.013,522.978 665.5,525C 666.517,526.049 666.684,527.216 666,528.5C 651.291,550.022 636.457,571.355 621.5,592.5C 607.391,611.443 591.057,628.277 572.5,643C 560.156,651.015 546.823,656.682 532.5,660C 525.508,660.5 518.508,660.666 511.5,660.5C 511.5,660.167 511.5,659.833 511.5,659.5C 515.514,659.666 519.514,659.499 523.5,659C 532.508,653.831 541.175,648.164 549.5,642C 567.053,626.781 582.886,609.947 597,591.5C 614.094,566.968 630.927,542.302 647.5,517.5 Z"/></g>
<g><path style="opacity:1" fill="#3e6d55" d="M 529.5,521.5 C 527.967,523.245 525.967,524.245 523.5,524.5C 525.033,522.755 527.033,521.755 529.5,521.5 Z"/></g>
<g><path style="opacity:1" fill="#529372" d="M 523.5,524.5 C 521.008,527.675 517.674,529.341 513.5,529.5C 516.54,527.371 519.873,525.704 523.5,524.5 Z"/></g>
<g><path style="opacity:0.004" fill="#000000" d="M 695.5,531.5 C 696.833,532.167 696.833,532.167 695.5,531.5 Z"/></g>
<g><path style="opacity:1" fill="#508f6e" d="M 600.5,540.5 C 603.075,544.301 604.408,548.635 604.5,553.5C 602.919,549.28 601.586,544.947 600.5,540.5 Z"/></g>
<g><path style="opacity:1" fill="#2f5441" d="M 575.5,549.5 C 573.967,551.245 571.967,552.245 569.5,552.5C 571.033,550.755 573.033,549.755 575.5,549.5 Z"/></g>
<g><path style="opacity:0.004" fill="#000000" d="M 153.5,556.5 C 152.833,557.167 152.833,557.167 153.5,556.5 Z"/></g>
<g><path style="opacity:1" fill="#4b8567" d="M 605.5,559.5 C 606.776,560.386 606.776,561.386 605.5,562.5C 603.827,564.086 601.827,564.753 599.5,564.5C 602.106,563.561 604.106,561.894 605.5,559.5 Z"/></g>
<g><path style="opacity:1" fill="#498265" d="M 599.5,564.5 C 595.291,567.462 590.624,569.462 585.5,570.5C 589.709,567.538 594.376,565.538 599.5,564.5 Z"/></g>
<g><path style="opacity:1" fill="#4c8668" d="M 474.5,566.5 C 474.155,569.198 472.822,571.198 470.5,572.5C 471.34,570.147 472.674,568.147 474.5,566.5 Z"/></g>
<g><path style="opacity:0.847" fill="#000000" d="M 386.5,573.5 C 395.167,573.5 403.833,573.5 412.5,573.5C 412.5,581.833 412.5,590.167 412.5,598.5C 403.833,598.5 395.167,598.5 386.5,598.5C 386.5,590.167 386.5,581.833 386.5,573.5 Z"/></g>
<g><path style="opacity:1" fill="#41745a" d="M 585.5,570.5 C 583.879,572.942 581.546,574.275 578.5,574.5C 580.566,572.801 582.9,571.468 585.5,570.5 Z"/></g>
<g><path style="opacity:0.004" fill="#000000" d="M 169.5,578.5 C 170.833,579.167 170.833,579.167 169.5,578.5 Z"/></g>
<g><path style="opacity:1" fill="#589b78" d="M 470.5,572.5 C 469.23,579.258 466.897,585.592 463.5,591.5C 464.775,584.706 467.108,578.373 470.5,572.5 Z"/></g>
<g><path style="opacity:0.004" fill="#000000" d="M 653.5,592.5 C 654.833,593.167 654.833,593.167 653.5,592.5 Z"/></g>
<g><path style="opacity:1" fill="#257d50" d="M 237.5,602.5 C 242.833,604.27 247.833,606.603 252.5,609.5C 246.825,608.494 241.825,606.161 237.5,602.5 Z"/></g>
<g><path style="opacity:1" fill="#2e5240" d="M 463.5,592.5 C 462.167,601.833 462.167,611.167 463.5,620.5C 462.778,620.082 462.278,619.416 462,618.5C 461.333,610.5 461.333,602.5 462,594.5C 462.278,593.584 462.778,592.918 463.5,592.5 Z"/></g>
<g><path style="opacity:0.004" fill="#000000" d="M 645.5,603.5 C 646.833,604.167 646.833,604.167 645.5,603.5 Z"/></g>
<g><path style="opacity:1" fill="#1d643f" d="M 252.5,609.5 C 257.765,610.31 262.765,611.644 267.5,613.5C 266.5,613.5 265.5,613.5 264.5,613.5C 260.146,613.007 256.146,611.674 252.5,609.5 Z"/></g>
<g><path style="opacity:1" fill="#60ab84" d="M 305.5,608.5 C 301.028,610.201 296.361,611.535 291.5,612.5C 286.518,613.053 281.518,613.387 276.5,613.5C 276.5,613.167 276.5,612.833 276.5,612.5C 286.301,612.072 295.968,610.739 305.5,608.5 Z"/></g>
<g><path style="opacity:1" fill="#102319" d="M 291.5,612.5 C 286.42,614.015 281.086,614.682 275.5,614.5C 271.651,614.499 267.984,614.165 264.5,613.5C 265.5,613.5 266.5,613.5 267.5,613.5C 270.5,613.5 273.5,613.5 276.5,613.5C 281.518,613.387 286.518,613.053 291.5,612.5 Z"/></g>
<g><path style="opacity:0.004" fill="#000000" d="M 634.5,617.5 C 635.833,618.167 635.833,618.167 634.5,617.5 Z"/></g>
<g><path style="opacity:1" fill="#325945" d="M 490.5,654.5 C 493.272,654.759 495.605,655.759 497.5,657.5C 494.728,657.241 492.395,656.241 490.5,654.5 Z"/></g>
<g><path style="opacity:1" fill="#325845" d="M 499.5,657.5 C 503.546,657.952 507.546,658.619 511.5,659.5C 511.5,659.833 511.5,660.167 511.5,660.5C 507.159,660.342 503.159,659.342 499.5,657.5 Z"/></g>
<g><path style="opacity:1" fill="#8d6d59" d="M 409.5,807.5 C 397.099,807.403 384.765,808.07 372.5,809.5C 372.611,808.883 372.944,808.383 373.5,808C 385.638,806.349 397.638,806.182 409.5,807.5 Z"/></g>
<g><path style="opacity:1" fill="#d0a083" d="M 409.5,807.5 C 461.597,813.193 498.264,839.859 519.5,887.5C 558.034,888.863 576.701,908.696 575.5,947C 600.535,947.058 625.535,947.725 650.5,949C 661.81,952.809 671.143,959.309 678.5,968.5C 499.503,970.499 320.17,971.165 140.5,970.5C 140.929,966.976 142.429,963.976 145,961.5C 149.765,956.228 154.931,951.561 160.5,947.5C 220.833,947.5 281.167,947.5 341.5,947.5C 341.5,939.5 341.5,931.5 341.5,923.5C 325.833,923.5 310.167,923.5 294.5,923.5C 299.414,875.567 322.414,838.9 363.5,813.5C 366.489,813.186 368.822,811.852 370.5,809.5C 371.167,809.5 371.833,809.5 372.5,809.5C 384.765,808.07 397.099,807.403 409.5,807.5 Z"/></g>
<g><path style="opacity:1" fill="#8c5b4a" d="M 370.5,809.5 C 368.822,811.852 366.489,813.186 363.5,813.5C 360.763,813.401 358.096,813.735 355.5,814.5C 359.776,811.223 364.776,809.556 370.5,809.5 Z"/></g>
<g><path style="opacity:1" fill="#c57c65" d="M 363.5,813.5 C 322.414,838.9 299.414,875.567 294.5,923.5C 286.833,923.5 279.167,923.5 271.5,923.5C 271.5,922.5 271.5,921.5 271.5,920.5C 274.656,911.959 276.656,902.959 277.5,893.5C 277.94,890.62 278.94,887.954 280.5,885.5C 283.53,880.786 286.197,875.786 288.5,870.5C 295.347,858.359 304.014,847.526 314.5,838C 326.42,827.042 340.087,819.209 355.5,814.5C 358.096,813.735 360.763,813.401 363.5,813.5 Z"/></g>
<g><path style="opacity:1" fill="#dbb6a0" d="M 410.5,840.5 C 418.833,840.5 427.167,840.5 435.5,840.5C 435.5,849.167 435.5,857.833 435.5,866.5C 426.915,866.817 418.415,866.483 410,865.5C 409.199,857.088 409.366,848.755 410.5,840.5 Z"/></g>
<g><path style="opacity:1" fill="#fefdfd" d="M 411.5,842.5 C 418.833,842.5 426.167,842.5 433.5,842.5C 433.5,849.833 433.5,857.167 433.5,864.5C 426.167,864.5 418.833,864.5 411.5,864.5C 411.5,857.167 411.5,849.833 411.5,842.5 Z"/></g>
<g><path style="opacity:1" fill="#eddacf" d="M 411.5,842.5 C 418.982,841.508 426.648,841.175 434.5,841.5C 434.5,849.5 434.5,857.5 434.5,865.5C 426.648,865.825 418.982,865.492 411.5,864.5C 418.833,864.5 426.167,864.5 433.5,864.5C 433.5,857.167 433.5,849.833 433.5,842.5C 426.167,842.5 418.833,842.5 411.5,842.5 Z"/></g>
<g><path style="opacity:1" fill="#7f5041" d="M 288.5,870.5 C 286.197,875.786 283.53,880.786 280.5,885.5C 282.043,879.844 284.71,874.844 288.5,870.5 Z"/></g>
<g><path style="opacity:1" fill="#e2c4b2" d="M 458.5,865.5 C 466.316,864.508 474.316,864.174 482.5,864.5C 482.5,872.833 482.5,881.167 482.5,889.5C 474.167,889.5 465.833,889.5 457.5,889.5C 457.174,881.316 457.508,873.316 458.5,865.5 Z"/></g>
<g><path style="opacity:1" fill="#fdfbfa" d="M 458.5,865.5 C 466.167,865.5 473.833,865.5 481.5,865.5C 481.5,873.167 481.5,880.833 481.5,888.5C 473.833,888.5 466.167,888.5 458.5,888.5C 458.5,880.833 458.5,873.167 458.5,865.5 Z"/></g>
<g><path style="opacity:1" fill="#935c4b" d="M 277.5,893.5 C 276.656,902.959 274.656,911.959 271.5,920.5C 272.089,915.519 272.589,910.519 273,905.5C 274.603,901.453 276.103,897.453 277.5,893.5 Z"/></g>
<g><path style="opacity:0.004" fill="#000000" d="M 684.5,937.5 C 685.833,938.167 685.833,938.167 684.5,937.5 Z"/></g>
<g><path style="opacity:1" fill="#4a382e" d="M 271.5,923.5 C 279.167,923.5 286.833,923.5 294.5,923.5C 310.167,923.5 325.833,923.5 341.5,923.5C 341.5,931.5 341.5,939.5 341.5,947.5C 281.167,947.5 220.833,947.5 160.5,947.5C 157.833,947.833 155.167,948.167 152.5,948.5C 152.918,947.778 153.584,947.278 154.5,947C 216.166,946.5 277.832,946.333 339.5,946.5C 339.5,939.167 339.5,931.833 339.5,924.5C 316.661,924.831 293.994,924.497 271.5,923.5 Z"/></g>
<g><path style="opacity:1" fill="#c87d66" d="M 160.5,947.5 C 154.931,951.561 149.765,956.228 145,961.5C 142.429,963.976 140.929,966.976 140.5,970.5C 320.17,971.165 499.503,970.499 678.5,968.5C 683.495,973.168 686.829,978.835 688.5,985.5C 689.265,988.096 689.599,990.763 689.5,993.5C 678.654,993.172 667.987,993.506 657.5,994.5C 657.769,998.931 657.436,1003.26 656.5,1007.5C 649.167,1007.5 641.833,1007.5 634.5,1007.5C 633.564,1003.26 633.231,998.931 633.5,994.5C 625.833,994.5 618.167,994.5 610.5,994.5C 610.769,998.931 610.436,1003.26 609.5,1007.5C 602.167,1007.5 594.833,1007.5 587.5,1007.5C 586.564,1003.26 586.231,998.931 586.5,994.5C 586.5,994.167 586.5,993.833 586.5,993.5C 428.001,992.5 269.334,992.167 110.5,992.5C 110.737,991.209 110.404,990.209 109.5,989.5C 109.833,988.167 110.167,986.833 110.5,985.5C 110.925,981.393 112.425,977.726 115,974.5C 123.988,960.757 136.488,952.09 152.5,948.5C 155.167,948.167 157.833,947.833 160.5,947.5 Z"/></g>
<g><path style="opacity:1" fill="#d5866d" d="M 109.5,989.5 C 110.404,990.209 110.737,991.209 110.5,992.5C 269.334,992.167 428.001,992.5 586.5,993.5C 427.5,993.5 268.5,993.5 109.5,993.5C 109.5,992.167 109.5,990.833 109.5,989.5 Z"/></g>
<g><path style="opacity:1" fill="#6e4538" d="M 110.5,985.5 C 110.167,986.833 109.833,988.167 109.5,989.5C 109.5,990.833 109.5,992.167 109.5,993.5C 268.5,993.5 427.5,993.5 586.5,993.5C 586.5,993.833 586.5,994.167 586.5,994.5C 426.833,994.5 267.167,994.5 107.5,994.5C 107.446,991.008 108.446,988.008 110.5,985.5 Z"/></g>
<g><path style="opacity:1" fill="#694235" d="M 688.5,985.5 C 689.117,985.611 689.617,985.944 690,986.5C 690.567,989.168 691.067,991.834 691.5,994.5C 680.167,994.5 668.833,994.5 657.5,994.5C 667.987,993.506 678.654,993.172 689.5,993.5C 689.599,990.763 689.265,988.096 688.5,985.5 Z"/></g>
<g><path style="opacity:0.972" fill="#000000" d="M 634.5,1007.5 C 634.5,1010.83 634.5,1014.17 634.5,1017.5C 626.167,1017.5 617.833,1017.5 609.5,1017.5C 609.5,1014.17 609.5,1010.83 609.5,1007.5C 610.436,1003.26 610.769,998.931 610.5,994.5C 618.167,994.5 625.833,994.5 633.5,994.5C 633.231,998.931 633.564,1003.26 634.5,1007.5 Z"/></g>
</svg>
