<?xml version="1.0" encoding="UTF-8"?>
<!DOCTYPE svg PUBLIC "-//W3C//DTD SVG 1.1//EN" "http://www.w3.org/Graphics/SVG/1.1/DTD/svg11.dtd">
<svg xmlns="http://www.w3.org/2000/svg" version="1.1" width="512px" height="512px" style="shape-rendering:geometricPrecision; text-rendering:geometricPrecision; image-rendering:optimizeQuality; fill-rule:evenodd; clip-rule:evenodd" xmlns:xlink="http://www.w3.org/1999/xlink">
<g><path style="opacity:0.966" fill="#010100" d="M 196.5,-0.5 C 203.833,-0.5 211.167,-0.5 218.5,-0.5C 251.386,7.56171 269.052,28.5617 271.5,62.5C 282.053,62.596 291.886,65.2627 301,70.5C 306.643,62.5213 313.809,56.3546 322.5,52C 324.436,51.187 326.436,50.687 328.5,50.5C 327.529,24.0435 339.529,7.04354 364.5,-0.5C 370.833,-0.5 377.167,-0.5 383.5,-0.5C 403.316,5.48503 415.316,18.6517 419.5,39C 445.813,40.396 464.647,52.896 476,76.5C 482.437,94.3387 481.27,111.672 472.5,128.5C 482.555,145.454 482.721,162.454 473,179.5C 469.5,184.333 465.333,188.5 460.5,192C 474.646,219.974 471.313,245.641 450.5,269C 437.49,280.783 422.156,286.45 404.5,286C 393.464,316.851 372.131,327.518 340.5,318C 334.938,315.106 329.938,311.439 325.5,307C 324.668,306.312 324.002,306.479 323.5,307.5C 314.333,320.5 305.167,333.5 296,346.5C 297.143,368.788 299.31,390.955 302.5,413C 299.986,414.252 297.32,414.752 294.5,414.5C 291.833,414.5 289.167,414.5 286.5,414.5C 283.488,390.225 281.321,365.892 280,341.5C 289.468,329.212 298.302,316.545 306.5,303.5C 309.888,299.751 313.055,295.751 316,291.5C 315.21,286.253 314.71,280.92 314.5,275.5C 311.399,275.308 308.399,274.642 305.5,273.5C 301.146,277.188 297.146,281.188 293.5,285.5C 281.4,298.771 269.066,311.938 256.5,325C 255.833,325.667 255.167,325.667 254.5,325C 250.269,320.938 246.269,316.771 242.5,312.5C 239.188,308.521 235.521,304.854 231.5,301.5C 224.836,306.331 217.503,309.831 209.5,312C 216.667,321.833 223.833,331.667 231,341.5C 231.167,343.167 231.333,344.833 231.5,346.5C 226.999,389.506 222.499,432.506 218,475.5C 216.774,482.682 214.274,489.349 210.5,495.5C 214.445,496.491 218.445,496.824 222.5,496.5C 248.509,496.833 274.509,496.5 300.5,495.5C 294.373,484.324 291.373,472.324 291.5,459.5C 294.279,459.721 296.946,459.388 299.5,458.5C 301.199,458.38 302.865,458.046 304.5,457.5C 305.647,457.818 306.481,458.484 307,459.5C 307.136,468.951 309.136,477.951 313,486.5C 317.435,492.3 323.268,495.3 330.5,495.5C 330.5,500.833 330.5,506.167 330.5,511.5C 280.5,511.5 230.5,511.5 180.5,511.5C 180.5,506.167 180.5,500.833 180.5,495.5C 192.137,494.37 199.303,488.037 202,476.5C 207.143,433.215 211.476,389.882 215,346.5C 207.167,335.333 199.333,324.167 191.5,313C 178.666,311.334 167.833,305.834 159,296.5C 137.363,304.924 118.696,300.591 103,283.5C 91.5232,265.746 91.0232,247.746 101.5,229.5C 94.8473,222.87 89.6807,215.203 86,206.5C 60.7131,209.028 43.0464,198.695 33,175.5C 26.8517,149.912 35.3517,131.079 58.5,119C 61.7201,117.648 65.0534,116.814 68.5,116.5C 67.6201,98.4973 72.9534,82.664 84.5,69C 85.1667,68.3333 85.8333,68.3333 86.5,69C 87.7051,70.3756 89.0384,71.5423 90.5,72.5C 92.1455,74.8122 94.1455,76.8122 96.5,78.5C 84.4006,93.9944 80.7339,111.328 85.5,130.5C 58.5027,129.047 45.6694,141.714 47,168.5C 53.5891,185.88 66.0891,193.047 84.5,190C 88.6529,187.921 92.9862,186.421 97.5,185.5C 99.1054,204.943 108.772,218.776 126.5,227C 113.661,235.171 108.327,246.671 110.5,261.5C 112.639,272.477 118.972,279.977 129.5,284C 134.746,285.506 140.079,285.839 145.5,285C 151.725,283.221 157.391,280.388 162.5,276.5C 177.455,298.874 196.788,303.708 220.5,291C 235.912,277.134 240.245,260.301 233.5,240.5C 234,240.167 234.5,239.833 235,239.5C 251.732,246.483 266.399,243.483 279,230.5C 289.54,252.523 307.04,262.857 331.5,261.5C 325.249,282.824 332.249,297.657 352.5,306C 378.345,306.988 390.678,294.488 389.5,268.5C 413.184,274.44 432.35,267.774 447,248.5C 450.88,241.313 453.047,233.647 453.5,225.5C 453.583,209.999 447.917,196.999 436.5,186.5C 462.326,177.859 469.826,161.193 459,136.5C 456.65,134.317 454.483,131.984 452.5,129.5C 462.817,118.108 466.651,104.775 464,89.5C 455.623,64.1353 438.123,52.9686 411.5,56C 408.883,56.8215 406.216,57.3215 403.5,57.5C 407.432,39.7587 401.766,26.2587 386.5,17C 368.178,10.7462 354.678,16.2462 346,33.5C 343.54,43.4364 344.374,53.1031 348.5,62.5C 326.19,62.6397 312.69,73.6397 308,95.5C 293.245,79.8506 275.412,74.8506 254.5,80.5C 260.209,57.7987 254.209,38.9654 236.5,24C 207.125,7.22073 182.958,12.7207 164,40.5C 161.092,46.8744 159.259,53.5411 158.5,60.5C 140.041,55.6616 122.874,58.3283 107,68.5C 104.819,66.7338 102.652,65.0671 100.5,63.5C 99.5849,61.2459 98.2516,59.2459 96.5,57.5C 110.995,46.3341 127.329,41.6675 145.5,43.5C 154.758,19.7254 171.758,5.05878 196.5,-0.5 Z M 274.5,252.5 C 278.97,257.802 283.97,262.636 289.5,267C 278.321,279.011 266.988,290.845 255.5,302.5C 250.792,298.793 246.792,294.46 243.5,289.5C 249.135,279.928 252.135,269.594 252.5,258.5C 260.633,258.883 267.966,256.883 274.5,252.5 Z"/></g>
<g><path style="opacity:1" fill="#8dde77" d="M 453.5,225.5 C 439.517,244.131 420.683,253.131 397,252.5C 390.114,252.235 383.28,251.568 376.5,250.5C 375.489,260.135 374.656,269.802 374,279.5C 370.617,289.211 363.783,292.711 353.5,290C 347.391,287.624 344.391,283.124 344.5,276.5C 345.774,266.475 347.108,256.475 348.5,246.5C 338.494,246.666 328.494,246.5 318.5,246C 310.323,243.654 303.49,239.154 298,232.5C 293.026,225.359 287.86,218.359 282.5,211.5C 269.727,224.036 254.394,229.536 236.5,228C 230.073,227.137 223.74,226.137 217.5,225C 219.255,227.93 220.422,231.097 221,234.5C 221.667,242.5 221.667,250.5 221,258.5C 217.672,279.071 206.172,286.238 186.5,280C 183.37,277.872 180.537,275.372 178,272.5C 173.821,266.795 169.655,261.129 165.5,255.5C 152.687,266.075 138.021,270.575 121.5,269C 117.458,266.984 113.791,264.484 110.5,261.5C 108.327,246.671 113.661,235.171 126.5,227C 108.772,218.776 99.1054,204.943 97.5,185.5C 92.9862,186.421 88.6529,187.921 84.5,190C 66.0891,193.047 53.5891,185.88 47,168.5C 45.6694,141.714 58.5027,129.047 85.5,130.5C 80.7339,111.328 84.4006,93.9944 96.5,78.5C 94.1455,76.8122 92.1455,74.8122 90.5,72.5C 93.8333,69.5 97.1667,66.5 100.5,63.5C 102.652,65.0671 104.819,66.7338 107,68.5C 122.874,58.3283 140.041,55.6616 158.5,60.5C 159.259,53.5411 161.092,46.8744 164,40.5C 182.958,12.7207 207.125,7.22073 236.5,24C 254.209,38.9654 260.209,57.7987 254.5,80.5C 275.412,74.8506 293.245,79.8506 308,95.5C 312.69,73.6397 326.19,62.6397 348.5,62.5C 344.374,53.1031 343.54,43.4364 346,33.5C 354.678,16.2462 368.178,10.7462 386.5,17C 401.766,26.2587 407.432,39.7587 403.5,57.5C 406.216,57.3215 408.883,56.8215 411.5,56C 438.123,52.9686 455.623,64.1353 464,89.5C 466.651,104.775 462.817,118.108 452.5,129.5C 454.483,131.984 456.65,134.317 459,136.5C 469.826,161.193 462.326,177.859 436.5,186.5C 447.917,196.999 453.583,209.999 453.5,225.5 Z"/></g>
<g><path style="opacity:1" fill="#c7efbb" d="M 229.5,37.5 C 224.833,37.5 220.167,37.5 215.5,37.5C 215.5,42.1667 215.5,46.8333 215.5,51.5C 220.167,51.5 224.833,51.5 229.5,51.5C 224.695,52.4872 219.695,52.8205 214.5,52.5C 214.5,47.1667 214.5,41.8333 214.5,36.5C 219.695,36.1795 224.695,36.5128 229.5,37.5 Z"/></g>
<g><path style="opacity:1" fill="#fefffe" d="M 229.5,37.5 C 229.5,42.1667 229.5,46.8333 229.5,51.5C 224.833,51.5 220.167,51.5 215.5,51.5C 215.5,46.8333 215.5,42.1667 215.5,37.5C 220.167,37.5 224.833,37.5 229.5,37.5 Z"/></g>
<g><path style="opacity:1" fill="#ddf5d6" d="M 424.5,75.5 C 419.833,75.5 415.167,75.5 410.5,75.5C 410.5,80.1667 410.5,84.8333 410.5,89.5C 415.167,89.5 419.833,89.5 424.5,89.5C 419.695,90.4872 414.695,90.8205 409.5,90.5C 409.5,85.1667 409.5,79.8333 409.5,74.5C 414.695,74.1795 419.695,74.5128 424.5,75.5 Z"/></g>
<g><path style="opacity:1" fill="#fefffe" d="M 424.5,75.5 C 424.5,80.1667 424.5,84.8333 424.5,89.5C 419.833,89.5 415.167,89.5 410.5,89.5C 410.5,84.8333 410.5,80.1667 410.5,75.5C 415.167,75.5 419.833,75.5 424.5,75.5 Z"/></g>
<g><path style="opacity:1" fill="#ddf5d6" d="M 439.5,105.5 C 434.833,105.5 430.167,105.5 425.5,105.5C 425.5,110.167 425.5,114.833 425.5,119.5C 430.167,119.5 434.833,119.5 439.5,119.5C 434.695,120.487 429.695,120.821 424.5,120.5C 424.5,115.167 424.5,109.833 424.5,104.5C 429.695,104.179 434.695,104.513 439.5,105.5 Z"/></g>
<g><path style="opacity:1" fill="#fefffe" d="M 439.5,105.5 C 439.5,110.167 439.5,114.833 439.5,119.5C 434.833,119.5 430.167,119.5 425.5,119.5C 425.5,114.833 425.5,110.167 425.5,105.5C 430.167,105.5 434.833,105.5 439.5,105.5 Z"/></g>
<g><path style="opacity:1" fill="#69d04c" d="M 453.5,225.5 C 453.047,233.647 450.88,241.313 447,248.5C 432.35,267.774 413.184,274.44 389.5,268.5C 390.678,294.488 378.345,306.988 352.5,306C 332.249,297.657 325.249,282.824 331.5,261.5C 307.04,262.857 289.54,252.523 279,230.5C 266.399,243.483 251.732,246.483 235,239.5C 234.5,239.833 234,240.167 233.5,240.5C 240.245,260.301 235.912,277.134 220.5,291C 196.788,303.708 177.455,298.874 162.5,276.5C 157.391,280.388 151.725,283.221 145.5,285C 140.079,285.839 134.746,285.506 129.5,284C 118.972,279.977 112.639,272.477 110.5,261.5C 113.791,264.484 117.458,266.984 121.5,269C 138.021,270.575 152.687,266.075 165.5,255.5C 169.655,261.129 173.821,266.795 178,272.5C 180.537,275.372 183.37,277.872 186.5,280C 206.172,286.238 217.672,279.071 221,258.5C 221.667,250.5 221.667,242.5 221,234.5C 220.422,231.097 219.255,227.93 217.5,225C 223.74,226.137 230.073,227.137 236.5,228C 254.394,229.536 269.727,224.036 282.5,211.5C 287.86,218.359 293.026,225.359 298,232.5C 303.49,239.154 310.323,243.654 318.5,246C 328.494,246.5 338.494,246.666 348.5,246.5C 347.108,256.475 345.774,266.475 344.5,276.5C 344.391,283.124 347.391,287.624 353.5,290C 363.783,292.711 370.617,289.211 374,279.5C 374.656,269.802 375.489,260.135 376.5,250.5C 383.28,251.568 390.114,252.235 397,252.5C 420.683,253.131 439.517,244.131 453.5,225.5 Z"/></g>
<g><path style="opacity:1" fill="#c57c65" d="M 306.5,303.5 C 304.004,298.857 302.171,293.857 301,288.5C 298.692,287.009 296.192,286.009 293.5,285.5C 297.146,281.188 301.146,277.188 305.5,273.5C 308.399,274.642 311.399,275.308 314.5,275.5C 314.71,280.92 315.21,286.253 316,291.5C 313.055,295.751 309.888,299.751 306.5,303.5 Z"/></g>
<g><path style="opacity:0.999" fill="#d0a083" d="M 293.5,285.5 C 296.192,286.009 298.692,287.009 301,288.5C 302.171,293.857 304.004,298.857 306.5,303.5C 298.302,316.545 289.468,329.212 280,341.5C 281.321,365.892 283.488,390.225 286.5,414.5C 289.167,414.5 291.833,414.5 294.5,414.5C 295.037,419.221 295.704,423.888 296.5,428.5C 293.946,429.388 291.279,429.721 288.5,429.5C 288.593,434.575 289.259,439.575 290.5,444.5C 292.972,443.234 295.306,443.234 297.5,444.5C 298.296,449.112 298.963,453.779 299.5,458.5C 296.946,459.388 294.279,459.721 291.5,459.5C 291.373,472.324 294.373,484.324 300.5,495.5C 274.509,496.5 248.509,496.833 222.5,496.5C 228.386,490.391 231.886,483.058 233,474.5C 237.533,430.006 242.033,385.506 246.5,341C 246.333,339.5 246.167,338 246,336.5C 241.587,330.674 237.42,324.674 233.5,318.5C 236.385,316.231 239.385,314.231 242.5,312.5C 246.269,316.771 250.269,320.938 254.5,325C 255.167,325.667 255.833,325.667 256.5,325C 269.066,311.938 281.4,298.771 293.5,285.5 Z"/></g>
<g><path style="opacity:1" fill="#c67c65" d="M 242.5,312.5 C 239.385,314.231 236.385,316.231 233.5,318.5C 237.42,324.674 241.587,330.674 246,336.5C 246.167,338 246.333,339.5 246.5,341C 242.033,385.506 237.533,430.006 233,474.5C 231.886,483.058 228.386,490.391 222.5,496.5C 218.445,496.824 214.445,496.491 210.5,495.5C 214.274,489.349 216.774,482.682 218,475.5C 222.499,432.506 226.999,389.506 231.5,346.5C 231.333,344.833 231.167,343.167 231,341.5C 223.833,331.667 216.667,321.833 209.5,312C 217.503,309.831 224.836,306.331 231.5,301.5C 235.521,304.854 239.188,308.521 242.5,312.5 Z"/></g>
<g><path style="opacity:0.93" fill="#030202" d="M 297.5,444.5 C 295.306,443.234 292.972,443.234 290.5,444.5C 289.259,439.575 288.593,434.575 288.5,429.5C 291.279,429.721 293.946,429.388 296.5,428.5C 298.764,427.781 301.097,427.448 303.5,427.5C 304.239,432.82 304.906,438.154 305.5,443.5C 302.763,443.401 300.096,443.735 297.5,444.5 Z"/></g>
</svg>
