<?xml version="1.0" encoding="UTF-8"?>
<!DOCTYPE svg PUBLIC "-//W3C//DTD SVG 1.1//EN" "http://www.w3.org/Graphics/SVG/1.1/DTD/svg11.dtd">
<svg xmlns="http://www.w3.org/2000/svg" version="1.1" width="512px" height="512px" style="shape-rendering:geometricPrecision; text-rendering:geometricPrecision; image-rendering:optimizeQuality; fill-rule:evenodd; clip-rule:evenodd" xmlns:xlink="http://www.w3.org/1999/xlink">
<g><path style="opacity:0.938" fill="#000000" d="M 247.5,-0.5 C 252.833,-0.5 258.167,-0.5 263.5,-0.5C 263.5,4.5 263.5,9.5 263.5,14.5C 258.167,14.5 252.833,14.5 247.5,14.5C 247.5,9.5 247.5,4.5 247.5,-0.5 Z"/></g>
<g><path style="opacity:0.965" fill="#000100" d="M 458.5,511.5 C 445.833,511.5 433.167,511.5 420.5,511.5C 420.5,509.167 420.5,506.833 420.5,504.5C 420.5,501.833 420.5,499.167 420.5,496.5C 427.863,496.831 435.197,496.497 442.5,495.5C 440.583,489.993 437.916,484.993 434.5,480.5C 428.973,473.228 421.64,468.728 412.5,467C 397.504,466.5 382.504,466.333 367.5,466.5C 369.054,441.719 357.388,429.053 332.5,428.5C 312.764,388.629 280.764,371.963 236.5,378.5C 204.581,387.252 184.081,407.585 175,439.5C 173.985,443.44 173.485,447.44 173.5,451.5C 178.5,451.5 183.5,451.5 188.5,451.5C 198.167,451.5 207.833,451.5 217.5,451.5C 217.5,456.5 217.5,461.5 217.5,466.5C 178.833,466.5 140.167,466.5 101.5,466.5C 84.6177,469.377 73.6177,479.044 68.5,495.5C 170.831,496.5 273.164,496.833 375.5,496.5C 375.5,499.167 375.5,501.833 375.5,504.5C 375.5,506.833 375.5,509.167 375.5,511.5C 267.833,511.5 160.167,511.5 52.5,511.5C 51.2863,480.24 65.6197,460.407 95.5,452C 116.164,451.5 136.831,451.333 157.5,451.5C 165.185,399.148 195.185,369.148 247.5,361.5C 247.667,338.831 247.5,316.164 247,293.5C 239.472,283.103 231.472,273.103 223,263.5C 184.25,276.413 148.416,270.913 115.5,247C 98.5449,233.714 84.0449,218.214 72,200.5C 54.2396,173.323 37.7396,145.323 22.5,116.5C 77.2967,105.426 127.963,115.593 174.5,147C 207.829,173.136 227.662,207.303 234,249.5C 238.091,255.347 242.424,261.013 247,266.5C 247.5,187.501 247.667,108.501 247.5,29.5C 252.833,29.5 258.167,29.5 263.5,29.5C 263.333,83.501 263.5,137.501 264,191.5C 268.576,186.013 272.909,180.347 277,174.5C 290.447,103.05 332.614,58.8835 403.5,42C 431.366,35.6254 459.366,34.9587 487.5,40C 487.957,40.414 488.291,40.914 488.5,41.5C 473.26,70.3233 456.76,98.3233 439,125.5C 424.123,147.377 405.623,165.544 383.5,180C 352.947,196.872 321.113,199.705 288,188.5C 279.98,197.523 272.313,206.856 265,216.5C 263.51,264.749 263.01,313.082 263.5,361.5C 298.722,365.254 325.056,382.42 342.5,413C 364.566,416.902 377.899,429.735 382.5,451.5C 395.219,451.102 407.886,451.602 420.5,453C 441.584,460.085 454.084,474.585 458,496.5C 458.499,501.489 458.666,506.489 458.5,511.5 Z"/></g>
<g><path style="opacity:1" fill="#8cdc76" d="M 319.5,143.5 C 337.803,101.863 368.136,72.8631 410.5,56.5C 427.939,52.5443 445.606,51.5443 463.5,53.5C 448.24,84.3781 429.74,113.045 408,139.5C 391.362,158.466 370.862,171.299 346.5,178C 335.536,179.452 324.536,179.785 313.5,179C 309.332,178.625 305.332,177.625 301.5,176C 334.553,151.28 367.886,126.947 401.5,103C 398.379,99.2573 395.379,95.424 392.5,91.5C 368.13,108.883 343.797,126.217 319.5,143.5 Z"/></g>
<g><path style="opacity:1" fill="#68ce4b" d="M 410.5,56.5 C 368.136,72.8631 337.803,101.863 319.5,143.5C 311.852,149.636 304.018,155.636 296,161.5C 307.245,116.913 334.078,85.4131 376.5,67C 387.458,62.18 398.791,58.68 410.5,56.5 Z"/></g>
<g><path style="opacity:1" fill="#fbfdfa" d="M 416.5,73.5 C 419.479,77.4319 422.479,81.4319 425.5,85.5C 421.576,88.3793 417.743,91.3793 414,94.5C 410.767,90.9374 407.933,87.1041 405.5,83C 408.766,79.3674 412.433,76.2007 416.5,73.5 Z"/></g>
<g><path style="opacity:1" fill="#68d04c" d="M 63.5,127.5 C 77.5644,154.639 93.3977,180.639 111,205.5C 125.096,224.27 142.263,239.437 162.5,251C 161.552,251.483 160.552,251.649 159.5,251.5C 142.421,246.628 127.421,238.128 114.5,226C 97.7109,209.221 83.2109,190.721 71,170.5C 62.9132,156.662 55.0799,142.662 47.5,128.5C 52.7921,127.505 58.1254,127.172 63.5,127.5 Z"/></g>
<g><path style="opacity:1" fill="#8cdc76" d="M 63.5,127.5 C 102.258,127.92 137.258,139.42 168.5,162C 192.775,181.39 208.275,206.223 215,236.5C 183.167,213.333 151.333,190.167 119.5,167C 118.668,166.312 118.002,166.479 117.5,167.5C 115.025,171.142 112.358,174.642 109.5,178C 143.114,201.947 176.447,226.28 209.5,251C 192.73,255.428 176.063,255.595 159.5,251.5C 160.552,251.649 161.552,251.483 162.5,251C 142.263,239.437 125.096,224.27 111,205.5C 93.3977,180.639 77.5644,154.639 63.5,127.5 Z"/></g>
<g><path style="opacity:1" fill="#fbfefa" d="M 93.5,149.5 C 98.3655,151.1 102.365,153.934 105.5,158C 103.067,162.104 100.233,165.937 97,169.5C 93.2573,166.379 89.424,163.379 85.5,160.5C 88.1914,156.815 90.8581,153.148 93.5,149.5 Z"/></g>
<g><path style="opacity:1" fill="#d0a083" d="M 434.5,480.5 C 319.667,481.666 204.667,481.833 89.5,481C 93.0103,475.666 97.0103,470.833 101.5,466.5C 140.167,466.5 178.833,466.5 217.5,466.5C 217.5,461.5 217.5,456.5 217.5,451.5C 207.833,451.5 198.167,451.5 188.5,451.5C 192.241,418.997 208.241,394.663 236.5,378.5C 280.764,371.963 312.764,388.629 332.5,428.5C 357.388,429.053 369.054,441.719 367.5,466.5C 382.504,466.333 397.504,466.5 412.5,467C 421.64,468.728 428.973,473.228 434.5,480.5 Z"/></g>
<g><path style="opacity:1" fill="#c57c65" d="M 236.5,378.5 C 208.241,394.663 192.241,418.997 188.5,451.5C 183.5,451.5 178.5,451.5 173.5,451.5C 173.485,447.44 173.985,443.44 175,439.5C 184.081,407.585 204.581,387.252 236.5,378.5 Z"/></g>
<g><path style="opacity:1" fill="#e7cebf" d="M 262.5,398.5 C 267.833,398.5 273.167,398.5 278.5,398.5C 278.5,403.833 278.5,409.167 278.5,414.5C 273.167,414.5 267.833,414.5 262.5,414.5C 262.5,409.167 262.5,403.833 262.5,398.5 Z"/></g>
<g><path style="opacity:1" fill="#fefffe" d="M 263.5,399.5 C 268.167,399.5 272.833,399.5 277.5,399.5C 277.5,404.167 277.5,408.833 277.5,413.5C 272.833,413.5 268.167,413.5 263.5,413.5C 263.5,408.833 263.5,404.167 263.5,399.5 Z"/></g>
<g><path style="opacity:1" fill="#e7cebf" d="M 292.5,413.5 C 297.833,413.5 303.167,413.5 308.5,413.5C 308.5,418.833 308.5,424.167 308.5,429.5C 303.167,429.5 297.833,429.5 292.5,429.5C 292.5,424.167 292.5,418.833 292.5,413.5 Z"/></g>
<g><path style="opacity:1" fill="#fefffe" d="M 293.5,414.5 C 298.167,414.5 302.833,414.5 307.5,414.5C 307.5,419.167 307.5,423.833 307.5,428.5C 302.833,428.5 298.167,428.5 293.5,428.5C 293.5,423.833 293.5,419.167 293.5,414.5 Z"/></g>
<g><path style="opacity:1" fill="#c87d66" d="M 101.5,466.5 C 97.0103,470.833 93.0103,475.666 89.5,481C 204.667,481.833 319.667,481.666 434.5,480.5C 437.916,484.993 440.583,489.993 442.5,495.5C 435.197,496.497 427.863,496.831 420.5,496.5C 420.5,499.167 420.5,501.833 420.5,504.5C 415.5,504.5 410.5,504.5 405.5,504.5C 405.5,501.833 405.5,499.167 405.5,496.5C 400.5,496.5 395.5,496.5 390.5,496.5C 390.5,499.167 390.5,501.833 390.5,504.5C 385.5,504.5 380.5,504.5 375.5,504.5C 375.5,501.833 375.5,499.167 375.5,496.5C 273.164,496.833 170.831,496.5 68.5,495.5C 73.6177,479.044 84.6177,469.377 101.5,466.5 Z"/></g>
<g><path style="opacity:1" fill="#000000" d="M 405.5,504.5 C 405.5,506.833 405.5,509.167 405.5,511.5C 400.5,511.5 395.5,511.5 390.5,511.5C 390.5,509.167 390.5,506.833 390.5,504.5C 390.5,501.833 390.5,499.167 390.5,496.5C 395.5,496.5 400.5,496.5 405.5,496.5C 405.5,499.167 405.5,501.833 405.5,504.5 Z"/></g>
</svg>
