<?xml version="1.0" encoding="UTF-8"?>
<!DOCTYPE svg PUBLIC "-//W3C//DTD SVG 1.1//EN" "http://www.w3.org/Graphics/SVG/1.1/DTD/svg11.dtd">
<svg xmlns="http://www.w3.org/2000/svg" version="1.1" width="799px" height="707px" style="shape-rendering:geometricPrecision; text-rendering:geometricPrecision; image-rendering:optimizeQuality; fill-rule:evenodd; clip-rule:evenodd" xmlns:xlink="http://www.w3.org/1999/xlink">
<g><path style="opacity:0.951" fill="#010100" d="M 389.5,-0.5 C 400.167,-0.5 410.833,-0.5 421.5,-0.5C 440.665,3.24799 457.165,12.5813 471,27.5C 519.922,16.5768 556.589,32.9102 581,76.5C 582.14,79.1019 582.973,81.7686 583.5,84.5C 614.356,80.039 636.523,91.7056 650,119.5C 653.216,128.89 655.05,138.556 655.5,148.5C 691.721,167.247 710.721,197.08 712.5,238C 711.666,274.082 696.332,302.249 666.5,322.5C 665.085,326.317 665.252,329.984 667,333.5C 668.123,362.629 657.29,385.629 634.5,402.5C 631.558,420.018 623.225,434.351 609.5,445.5C 604.307,448.235 598.974,450.735 593.5,453C 587.221,453.805 581.054,454.972 575,456.5C 569.804,454.994 564.471,453.994 559,453.5C 557.674,453.245 556.674,452.578 556,451.5C 545.11,473.594 533.61,495.428 521.5,517C 503.876,521.381 486.21,525.548 468.5,529.5C 468.5,539.5 468.5,549.5 468.5,559.5C 464.326,559.666 460.326,559 456.5,557.5C 456.167,557.5 455.833,557.5 455.5,557.5C 452.038,556.518 448.371,556.185 444.5,556.5C 444.5,549.833 444.5,543.167 444.5,536.5C 444.5,531.167 444.5,525.833 444.5,520.5C 446.105,510.713 446.772,500.713 446.5,490.5C 446.5,484.167 446.5,477.833 446.5,471.5C 446.5,468.5 446.5,465.5 446.5,462.5C 447.488,457.36 447.821,452.026 447.5,446.5C 446.209,446.263 445.209,446.596 444.5,447.5C 442.282,447.614 440.282,448.28 438.5,449.5C 436.199,450.06 433.866,450.56 431.5,451C 430.944,451.383 430.611,451.883 430.5,452.5C 430.167,452.5 429.833,452.5 429.5,452.5C 426.848,452.41 424.515,453.076 422.5,454.5C 418.516,454.469 414.683,455.136 411,456.5C 407.59,463.98 404.757,471.647 402.5,479.5C 400.755,481.033 399.755,483.033 399.5,485.5C 399.5,486.167 399.5,486.833 399.5,487.5C 397.755,489.033 396.755,491.033 396.5,493.5C 394.905,496.285 393.905,499.285 393.5,502.5C 391.483,505.899 389.816,509.566 388.5,513.5C 388.5,514.167 388.5,514.833 388.5,515.5C 386.755,517.033 385.755,519.033 385.5,521.5C 385.5,522.167 385.5,522.833 385.5,523.5C 383.755,525.033 382.755,527.033 382.5,529.5C 380.741,532.185 379.741,535.185 379.5,538.5C 377.483,541.899 375.816,545.566 374.5,549.5C 374.539,550.756 374.039,551.756 373,552.5C 372.5,567.163 372.333,581.83 372.5,596.5C 370.843,605.278 370.176,614.278 370.5,623.5C 370.5,633.5 370.5,643.5 370.5,653.5C 367.743,663.194 364.077,672.528 359.5,681.5C 358.957,681.56 358.624,681.893 358.5,682.5C 390.493,683.5 422.493,683.833 454.5,683.5C 454.715,681.821 454.048,680.821 452.5,680.5C 450.811,676.289 448.644,672.289 446,668.5C 445.023,666.26 444.523,663.927 444.5,661.5C 444.741,659.102 444.074,657.102 442.5,655.5C 442.5,649.833 442.5,644.167 442.5,638.5C 442.5,635.167 442.5,631.833 442.5,628.5C 446.371,628.815 450.038,628.482 453.5,627.5C 454.167,627.5 454.5,627.167 454.5,626.5C 458.833,626.5 463.167,626.5 467.5,626.5C 467.169,635.192 467.502,643.859 468.5,652.5C 472.952,671.411 484.952,681.411 504.5,682.5C 504.5,690.5 504.5,698.5 504.5,706.5C 439.5,706.5 374.5,706.5 309.5,706.5C 309.5,698.5 309.5,690.5 309.5,682.5C 313.818,681.057 318.318,680.057 323,679.5C 333.53,675.093 340.363,667.427 343.5,656.5C 345.227,624.514 346.893,592.514 348.5,560.5C 348.333,558.5 348.167,556.5 348,554.5C 334.68,534.999 321.514,515.333 308.5,495.5C 297.703,512.128 282.369,521.794 262.5,524.5C 238.046,541.796 213.712,541.796 189.5,524.5C 165.228,520.79 148.061,507.79 138,485.5C 137.047,482.568 136.547,479.568 136.5,476.5C 122.224,474.792 110.391,468.459 101,457.5C 84.6072,435.558 82.7739,412.558 95.5,388.5C 102.603,378.022 111.603,370.355 122.5,365.5C 116.571,356.789 113.904,347.122 114.5,336.5C 114.405,324.425 117.405,313.259 123.5,303C 100.667,275.656 94.1668,244.156 104,208.5C 104.674,207.422 105.674,206.755 107,206.5C 110.008,207.879 113.175,208.879 116.5,209.5C 119.057,212.42 122.39,213.92 126.5,214C 127.337,215.011 127.67,216.178 127.5,217.5C 126.883,217.611 126.383,217.944 126,218.5C 125.39,221.827 124.89,225.161 124.5,228.5C 124.334,235.508 124.5,242.508 125,249.5C 125.198,251.382 125.698,253.048 126.5,254.5C 126.833,256.5 127.167,258.5 127.5,260.5C 127.518,263.736 128.518,266.403 130.5,268.5C 135.49,280.498 143.157,290.498 153.5,298.5C 153.483,300.565 153.15,302.565 152.5,304.5C 150.025,306.77 148.025,309.437 146.5,312.5C 144.755,314.033 143.755,316.033 143.5,318.5C 142.032,319.779 141.365,321.446 141.5,323.5C 140.883,323.611 140.383,323.944 140,324.5C 138.48,330.629 138.313,336.629 139.5,342.5C 139.5,344.167 139.5,345.833 139.5,347.5C 140.833,347.5 142.167,347.5 143.5,347.5C 143.5,346.5 143.5,345.5 143.5,344.5C 151.188,332.954 161.522,324.454 174.5,319C 176.134,318.506 177.801,318.34 179.5,318.5C 182.655,318.01 185.655,317.344 188.5,316.5C 190.167,315.167 191.833,313.833 193.5,312.5C 195.38,312.771 196.713,312.104 197.5,310.5C 199.027,310.573 200.027,309.906 200.5,308.5C 205.115,305.966 210.115,304.632 215.5,304.5C 223.162,303.214 230.828,303.214 238.5,304.5C 239.167,304.5 239.833,304.5 240.5,304.5C 242.395,306.241 244.728,307.241 247.5,307.5C 249.687,308.758 252.02,309.758 254.5,310.5C 256.961,311.987 259.295,313.654 261.5,315.5C 263.279,317.344 265.612,318.01 268.5,317.5C 279.822,319.814 289.822,324.814 298.5,332.5C 299.08,334.749 300.413,336.415 302.5,337.5C 305.675,340.325 308.008,343.659 309.5,347.5C 309.343,348.873 309.51,350.207 310,351.5C 310.902,353.431 312.069,355.097 313.5,356.5C 313.5,357.167 313.5,357.833 313.5,358.5C 313.651,362.314 315.651,363.981 319.5,363.5C 321.894,364.015 324.228,364.681 326.5,365.5C 327.287,367.104 328.62,367.771 330.5,367.5C 332.456,368.492 334.456,369.492 336.5,370.5C 344.49,376.159 351.157,383.159 356.5,391.5C 356.343,392.873 356.51,394.207 357,395.5C 357.902,397.431 359.069,399.097 360.5,400.5C 360.833,402.5 361.167,404.5 361.5,406.5C 361.676,409.727 362.343,412.727 363.5,415.5C 364.5,417.167 365.833,418.5 367.5,419.5C 368.585,421.587 370.251,422.92 372.5,423.5C 372.842,424.338 373.508,424.672 374.5,424.5C 374.973,425.906 375.973,426.573 377.5,426.5C 378.209,427.404 379.209,427.737 380.5,427.5C 380.611,428.117 380.944,428.617 381.5,429C 384.658,430.469 387.991,431.469 391.5,432C 400.5,432.667 409.5,432.667 418.5,432C 419.056,431.617 419.389,431.117 419.5,430.5C 420.167,430.5 420.833,430.5 421.5,430.5C 424.067,430.279 426.401,429.612 428.5,428.5C 431.481,428.818 433.815,427.818 435.5,425.5C 436.391,424.89 437.391,424.557 438.5,424.5C 440.674,424.25 442.341,423.25 443.5,421.5C 443.973,420.094 444.973,419.427 446.5,419.5C 448.795,418.864 450.461,417.531 451.5,415.5C 452.306,414.272 453.306,413.272 454.5,412.5C 456.027,412.573 457.027,411.906 457.5,410.5C 458.406,408.086 460.072,407.253 462.5,408C 468.028,416.027 474.695,422.86 482.5,428.5C 484.456,429.492 486.456,430.492 488.5,431.5C 491.626,433.99 495.292,435.323 499.5,435.5C 509.376,437.253 519.043,436.586 528.5,433.5C 530.887,433.088 532.887,432.088 534.5,430.5C 538.336,428.416 542.003,426.083 545.5,423.5C 547.315,422.37 549.315,421.704 551.5,421.5C 551.5,422.167 551.833,422.5 552.5,422.5C 552.973,423.906 553.973,424.573 555.5,424.5C 555.973,425.906 556.973,426.573 558.5,426.5C 560.033,428.245 562.033,429.245 564.5,429.5C 564.833,429.5 565.167,429.5 565.5,429.5C 565.611,430.117 565.944,430.617 566.5,431C 572.167,431.667 577.833,431.667 583.5,431C 584.056,430.617 584.389,430.117 584.5,429.5C 591.485,427.005 597.485,423.005 602.5,417.5C 605.393,415.252 607.06,412.252 607.5,408.5C 607.916,405.417 608.583,402.417 609.5,399.5C 610.483,395.702 610.817,391.702 610.5,387.5C 611.791,387.737 612.791,387.404 613.5,386.5C 622.383,381.621 629.716,374.954 635.5,366.5C 637.245,364.967 638.245,362.967 638.5,360.5C 638.5,359.833 638.5,359.167 638.5,358.5C 640.554,355.992 641.554,352.992 641.5,349.5C 641.5,343.5 641.5,337.5 641.5,331.5C 641.59,328.848 640.924,326.515 639.5,324.5C 639.167,323.167 638.833,321.833 638.5,320.5C 638.245,318.033 637.245,316.033 635.5,314.5C 635.325,312.379 635.659,310.379 636.5,308.5C 638.216,308.371 639.883,308.038 641.5,307.5C 643.027,307.573 644.027,306.906 644.5,305.5C 646.98,304.758 649.313,303.758 651.5,302.5C 653.674,302.25 655.341,301.25 656.5,299.5C 668.944,289.716 677.944,277.383 683.5,262.5C 685.217,259.155 685.884,255.489 685.5,251.5C 686.826,247.386 687.493,242.886 687.5,238C 687.499,233.32 687.166,228.82 686.5,224.5C 685.833,222.167 685.167,219.833 684.5,217.5C 684.657,216.127 684.49,214.793 684,213.5C 683.124,211.242 681.957,209.242 680.5,207.5C 679.792,204.451 678.459,201.785 676.5,199.5C 676.573,197.973 675.906,196.973 674.5,196.5C 674.262,194.596 673.262,193.262 671.5,192.5C 670.581,189.911 668.914,187.911 666.5,186.5C 660.543,179.518 653.209,174.518 644.5,171.5C 644.027,170.094 643.027,169.427 641.5,169.5C 639.139,169.326 636.806,168.993 634.5,168.5C 632.572,166.887 630.238,165.887 627.5,165.5C 626.425,163.189 626.425,160.856 627.5,158.5C 627.5,158.167 627.5,157.833 627.5,157.5C 628.117,157.389 628.617,157.056 629,156.5C 629.495,154.527 629.662,152.527 629.5,150.5C 630.599,144.636 630.432,138.636 629,132.5C 628.617,131.944 628.117,131.611 627.5,131.5C 623.817,120.483 616.483,113.15 605.5,109.5C 603.152,108.048 600.486,107.382 597.5,107.5C 594.118,107.676 590.785,108.176 587.5,109C 586.944,109.383 586.611,109.883 586.5,110.5C 585.391,110.557 584.391,110.89 583.5,111.5C 580.787,113.172 578.12,114.838 575.5,116.5C 573.596,116.738 572.262,117.738 571.5,119.5C 569.708,119.634 568.042,119.301 566.5,118.5C 566.384,115.14 566.051,111.807 565.5,108.5C 565.741,106.102 565.074,104.102 563.5,102.5C 563.5,102.167 563.5,101.833 563.5,101.5C 563.554,98.0076 562.554,95.0076 560.5,92.5C 560.5,92.1667 560.5,91.8333 560.5,91.5C 559.528,88.5634 558.195,85.8967 556.5,83.5C 555.89,81.5659 554.89,79.8993 553.5,78.5C 550.833,75.1667 548.167,71.8333 545.5,68.5C 544.833,67.1667 543.833,66.1667 542.5,65.5C 539.358,62.1182 535.692,59.4515 531.5,57.5C 531.027,56.0937 530.027,55.427 528.5,55.5C 524.964,53.81 521.298,52.4767 517.5,51.5C 514.829,49.8819 511.829,49.2153 508.5,49.5C 508.082,48.7784 507.416,48.2784 506.5,48C 500.167,47.3333 493.833,47.3333 487.5,48C 486.584,48.2784 485.918,48.7784 485.5,49.5C 482.834,49.933 480.168,50.433 477.5,51C 476.944,51.3826 476.611,51.8826 476.5,52.5C 475.833,52.5 475.167,52.5 474.5,52.5C 471.277,53.6434 468.111,54.9767 465,56.5C 464.098,56.2568 463.265,55.9234 462.5,55.5C 451.865,39.0019 436.865,28.6685 417.5,24.5C 417.082,23.7784 416.416,23.2784 415.5,23C 408.5,22.3333 401.5,22.3333 394.5,23C 393.944,23.3826 393.611,23.8826 393.5,24.5C 392.5,24.5 391.5,24.5 390.5,24.5C 388.199,25.0604 385.866,25.5604 383.5,26C 382.944,26.3826 382.611,26.8826 382.5,27.5C 382.167,27.5 381.833,27.5 381.5,27.5C 379.973,27.427 378.973,28.0937 378.5,29.5C 368.744,33.586 360.744,39.9193 354.5,48.5C 352.164,51.3352 349.664,54.0019 347,56.5C 343.42,55.29 339.92,53.9566 336.5,52.5C 335.209,52.7373 334.209,52.404 333.5,51.5C 329.089,49.8704 324.422,48.8704 319.5,48.5C 314.015,47.3483 308.349,47.1816 302.5,48C 301.944,48.3826 301.611,48.8826 301.5,49.5C 300.833,49.5 300.167,49.5 299.5,49.5C 296.008,49.446 293.008,50.446 290.5,52.5C 290.167,52.5 289.833,52.5 289.5,52.5C 287.033,52.7549 285.033,53.7549 283.5,55.5C 278.984,57.0985 275.317,59.7652 272.5,63.5C 269.911,64.4194 267.911,66.086 266.5,68.5C 262.793,71.5758 259.793,75.2424 257.5,79.5C 254.948,82.3866 253.282,85.72 252.5,89.5C 250.759,91.3949 249.759,93.7282 249.5,96.5C 249.167,98.5 248.833,100.5 248.5,102.5C 246.926,104.102 246.259,106.102 246.5,108.5C 246.5,109.167 246.5,109.833 246.5,110.5C 244.735,113.123 244.068,116.123 244.5,119.5C 243.5,119.5 242.5,119.5 241.5,119.5C 240.833,119.167 240.167,118.833 239.5,118.5C 239.027,117.094 238.027,116.427 236.5,116.5C 235.391,116.443 234.391,116.11 233.5,115.5C 227.98,110.49 221.48,108.157 214,108.5C 210.424,108.515 207.258,109.182 204.5,110.5C 203.041,110.433 201.708,110.766 200.5,111.5C 198.973,111.427 197.973,112.094 197.5,113.5C 192.068,116.933 188.068,121.599 185.5,127.5C 180.339,135.277 179.339,143.61 182.5,152.5C 183.808,156.776 184.808,161.11 185.5,165.5C 184.041,165.433 182.708,165.766 181.5,166.5C 179.102,166.259 177.102,166.926 175.5,168.5C 174.833,168.5 174.167,168.5 173.5,168.5C 171.033,168.755 169.033,169.755 167.5,171.5C 167.167,171.5 166.833,171.5 166.5,171.5C 164.033,171.755 162.033,172.755 160.5,174.5C 157.802,174.845 155.802,176.178 154.5,178.5C 151.062,180.759 147.729,183.259 144.5,186C 143.748,186.671 143.414,187.504 143.5,188.5C 140.763,190.914 138.096,193.247 135.5,195.5C 133.229,194.448 131.229,192.948 129.5,191C 128.207,190.51 126.873,190.343 125.5,190.5C 123.14,188.499 120.473,186.832 117.5,185.5C 116.189,184.742 115.689,183.742 116,182.5C 126.422,168.004 139.589,156.67 155.5,148.5C 156.86,137.845 159.193,127.345 162.5,117C 176.635,91.2871 198.635,80.4538 228.5,84.5C 228.178,82.2776 228.845,80.4443 230.5,79C 230.167,78.6667 229.833,78.3333 229.5,78C 234.557,69.6834 239.89,61.5168 245.5,53.5C 246.239,53.631 246.906,53.4643 247.5,53C 249.768,50.5819 251.768,48.0819 253.5,45.5C 262.322,39.2511 271.655,33.7511 281.5,29C 300.863,22.2826 320.363,21.7826 340,27.5C 353.584,12.797 370.084,3.46364 389.5,-0.5 Z M 358.5,444.5 C 366.473,449.603 375.14,452.936 384.5,454.5C 376.729,477.99 367.896,500.99 358,523.5C 349.111,508.774 339.611,494.441 329.5,480.5C 327.98,478.338 326.98,476.005 326.5,473.5C 341.82,468.495 352.486,458.828 358.5,444.5 Z M 472.5,451.5 C 487.601,458.993 503.601,462.326 520.5,461.5C 515.191,472.749 509.858,483.582 504.5,494C 493.265,496.893 482.099,499.727 471,502.5C 470.768,485.481 471.268,468.481 472.5,451.5 Z"/></g>
<g><path style="opacity:0.004" fill="#000000" d="M 344.5,19.5 C 345.833,20.1667 345.833,20.1667 344.5,19.5 Z"/></g>
<g><path style="opacity:0.004" fill="#000000" d="M 341.5,22.5 C 342.833,23.1667 342.833,23.1667 341.5,22.5 Z"/></g>
<g><path style="opacity:1" fill="#3c5f33" d="M 417.5,24.5 C 409.48,23.2385 401.48,23.2385 393.5,24.5C 393.611,23.8826 393.944,23.3826 394.5,23C 401.5,22.3333 408.5,22.3333 415.5,23C 416.416,23.2784 417.082,23.7784 417.5,24.5 Z"/></g>
<g><path style="opacity:1" fill="#8dde77" d="M 417.5,24.5 C 436.865,28.6685 451.865,39.0019 462.5,55.5C 462.791,56.6491 463.624,57.3158 465,57.5C 469.003,57.2349 472.17,55.5682 474.5,52.5C 475.167,52.5 475.833,52.5 476.5,52.5C 490.065,48.8782 503.732,48.5448 517.5,51.5C 521.298,52.4767 524.964,53.81 528.5,55.5C 528.973,56.9063 529.973,57.573 531.5,57.5C 535.692,59.4515 539.358,62.1182 542.5,65.5C 542.5,67.5 543.5,68.5 545.5,68.5C 548.167,71.8333 550.833,75.1667 553.5,78.5C 553.241,80.9893 554.241,82.656 556.5,83.5C 556.609,86.8992 557.942,89.5659 560.5,91.5C 560.5,91.8333 560.5,92.1667 560.5,92.5C 560.883,95.8112 561.883,98.8112 563.5,101.5C 563.5,101.833 563.5,102.167 563.5,102.5C 563.259,104.898 563.926,106.898 565.5,108.5C 566.051,111.807 566.384,115.14 566.5,118.5C 566.5,119.5 566.5,120.5 566.5,121.5C 568.553,121.598 570.22,120.931 571.5,119.5C 572.262,117.738 573.596,116.738 575.5,116.5C 579.13,116.299 581.797,114.632 583.5,111.5C 584.391,110.89 585.391,110.557 586.5,110.5C 592.775,109.582 599.108,109.249 605.5,109.5C 616.483,113.15 623.817,120.483 627.5,131.5C 628.418,137.775 628.751,144.108 628.5,150.5C 628.007,152.806 627.674,155.139 627.5,157.5C 627.5,157.833 627.5,158.167 627.5,158.5C 626.883,158.611 626.383,158.944 626,159.5C 625.503,162.146 625.336,164.813 625.5,167.5C 628.57,167.368 631.57,167.701 634.5,168.5C 636.806,168.993 639.139,169.326 641.5,169.5C 641.973,170.906 642.973,171.573 644.5,171.5C 653.209,174.518 660.543,179.518 666.5,186.5C 667.419,189.089 669.086,191.089 671.5,192.5C 673.262,193.262 674.262,194.596 674.5,196.5C 674.427,198.027 675.094,199.027 676.5,199.5C 678.459,201.785 679.792,204.451 680.5,207.5C 680.944,211.276 682.277,214.609 684.5,217.5C 685.167,219.833 685.833,222.167 686.5,224.5C 686.745,233.208 686.411,241.874 685.5,250.5C 684.205,254.267 683.539,258.267 683.5,262.5C 677.944,277.383 668.944,289.716 656.5,299.5C 654.326,299.75 652.659,300.75 651.5,302.5C 649.313,303.758 646.98,304.758 644.5,305.5C 642.973,305.427 641.973,306.094 641.5,307.5C 639.883,308.038 638.216,308.371 636.5,308.5C 632.843,309.826 632.51,311.826 635.5,314.5C 635.755,316.967 636.755,318.967 638.5,320.5C 638.833,321.833 639.167,323.167 639.5,324.5C 639.41,327.152 640.076,329.485 641.5,331.5C 641.5,337.5 641.5,343.5 641.5,349.5C 639.883,352.189 638.883,355.189 638.5,358.5C 638.5,359.167 638.5,359.833 638.5,360.5C 636.755,362.033 635.755,364.033 635.5,366.5C 629.716,374.954 622.383,381.621 613.5,386.5C 612.167,386.5 610.833,386.5 609.5,386.5C 609.5,390.833 609.5,395.167 609.5,399.5C 608.583,402.417 607.916,405.417 607.5,408.5C 605.473,411.22 603.807,414.22 602.5,417.5C 597.485,423.005 591.485,427.005 584.5,429.5C 578.167,430.833 571.833,430.833 565.5,429.5C 565.167,429.5 564.833,429.5 564.5,429.5C 562.967,427.755 560.967,426.755 558.5,426.5C 558.027,425.094 557.027,424.427 555.5,424.5C 555.027,423.094 554.027,422.427 552.5,422.5C 551.833,422.5 551.5,422.167 551.5,421.5C 548.92,419.984 546.92,420.651 545.5,423.5C 542.003,426.083 538.336,428.416 534.5,430.5C 531.895,430.621 529.895,431.621 528.5,433.5C 519.043,436.586 509.376,437.253 499.5,435.5C 499.389,434.883 499.056,434.383 498.5,434C 495.054,433.339 491.721,432.505 488.5,431.5C 487.313,429.025 485.313,428.025 482.5,428.5C 474.695,422.86 468.028,416.027 462.5,408C 460.072,407.253 458.406,408.086 457.5,410.5C 455.973,410.427 454.973,411.094 454.5,412.5C 453.306,413.272 452.306,414.272 451.5,415.5C 449.246,416.124 447.579,417.457 446.5,419.5C 444.973,419.427 443.973,420.094 443.5,421.5C 441.326,421.75 439.659,422.75 438.5,424.5C 437.391,424.557 436.391,424.89 435.5,425.5C 432.937,426.088 430.604,427.088 428.5,428.5C 425.612,427.99 423.279,428.656 421.5,430.5C 420.833,430.5 420.167,430.5 419.5,430.5C 411.189,431.499 402.856,431.665 394.5,431C 391.496,430.883 388.829,430.049 386.5,428.5C 388.413,387.616 370.747,359.116 333.5,343C 328.525,330.376 320.858,319.71 310.5,311C 303.537,306.671 296.537,302.338 289.5,298C 282.96,297.078 276.627,295.411 270.5,293C 247.391,278.818 222.724,275.818 196.5,284C 190.917,286.46 185.584,289.46 180.5,293C 171.257,294.642 162.59,297.809 154.5,302.5C 155.954,300.737 155.62,299.403 153.5,298.5C 143.157,290.498 135.49,280.498 130.5,268.5C 130.097,265.514 129.097,262.848 127.5,260.5C 127.167,258.5 126.833,256.5 126.5,254.5C 125.797,245.851 125.464,237.185 125.5,228.5C 126.167,224.833 126.833,221.167 127.5,217.5C 127.67,216.178 127.337,215.011 126.5,214C 122.39,213.92 119.057,212.42 116.5,209.5C 118.557,202.631 121.557,196.298 125.5,190.5C 126.873,190.343 128.207,190.51 129.5,191C 131.229,192.948 133.229,194.448 135.5,195.5C 136.251,196.573 137.251,196.74 138.5,196C 140.756,193.878 142.423,191.378 143.5,188.5C 143.414,187.504 143.748,186.671 144.5,186C 147.729,183.259 151.062,180.759 154.5,178.5C 156.853,177.66 158.853,176.326 160.5,174.5C 162.967,174.245 164.967,173.245 166.5,171.5C 166.833,171.5 167.167,171.5 167.5,171.5C 169.967,171.245 171.967,170.245 173.5,168.5C 174.167,168.5 174.833,168.5 175.5,168.5C 177.898,168.741 179.898,168.074 181.5,166.5C 182.708,165.766 184.041,165.433 185.5,165.5C 184.808,161.11 183.808,156.776 182.5,152.5C 182.042,143.955 183.042,135.622 185.5,127.5C 188.068,121.599 192.068,116.933 197.5,113.5C 199.027,113.573 200.027,112.906 200.5,111.5C 201.708,110.766 203.041,110.433 204.5,110.5C 210.145,109.258 215.812,109.258 221.5,110.5C 225.596,112.016 229.596,113.682 233.5,115.5C 234.391,116.11 235.391,116.443 236.5,116.5C 236.973,117.906 237.973,118.573 239.5,118.5C 240.167,118.833 240.833,119.167 241.5,119.5C 242.287,121.104 243.62,121.771 245.5,121.5C 245.552,117.802 245.886,114.135 246.5,110.5C 246.5,109.833 246.5,109.167 246.5,108.5C 248.074,106.898 248.741,104.898 248.5,102.5C 248.833,100.5 249.167,98.5 249.5,96.5C 251.357,94.7185 252.357,92.3852 252.5,89.5C 253.282,85.72 254.948,82.3866 257.5,79.5C 259.463,77.721 261.629,76.0543 264,74.5C 264.655,72.3716 265.489,70.3716 266.5,68.5C 267.911,66.086 269.911,64.4194 272.5,63.5C 277.025,61.9699 280.691,59.3032 283.5,55.5C 285.967,55.2451 287.967,54.2451 289.5,52.5C 289.833,52.5 290.167,52.5 290.5,52.5C 293.811,52.117 296.811,51.117 299.5,49.5C 300.167,49.5 300.833,49.5 301.5,49.5C 302.167,49.5 302.833,49.5 303.5,49.5C 313.578,49.2232 323.578,49.8898 333.5,51.5C 334.209,52.404 335.209,52.7373 336.5,52.5C 344.826,60.4382 350.826,59.1048 354.5,48.5C 360.744,39.9193 368.744,33.586 378.5,29.5C 380.027,29.573 381.027,28.9063 381.5,27.5C 381.833,27.5 382.167,27.5 382.5,27.5C 384.801,26.9396 387.134,26.4396 389.5,26C 390.056,25.6174 390.389,25.1174 390.5,24.5C 391.5,24.5 392.5,24.5 393.5,24.5C 401.48,23.2385 409.48,23.2385 417.5,24.5 Z"/></g>
<g><path style="opacity:1" fill="#436a39" d="M 390.5,24.5 C 390.389,25.1174 390.056,25.6174 389.5,26C 387.134,26.4396 384.801,26.9396 382.5,27.5C 382.611,26.8826 382.944,26.3826 383.5,26C 385.866,25.5604 388.199,25.0604 390.5,24.5 Z"/></g>
<g><path style="opacity:1" fill="#4a753f" d="M 381.5,27.5 C 381.027,28.9063 380.027,29.573 378.5,29.5C 378.973,28.0937 379.973,27.427 381.5,27.5 Z"/></g>
<g><path style="opacity:0.004" fill="#000000" d="M 253.5,45.5 C 252.833,44.1667 252.833,44.1667 253.5,45.5 Z"/></g>
<g><path style="opacity:1" fill="#3a5c31" d="M 319.5,48.5 C 313.974,48.1786 308.64,48.5119 303.5,49.5C 302.833,49.5 302.167,49.5 301.5,49.5C 301.611,48.8826 301.944,48.3826 302.5,48C 308.349,47.1816 314.015,47.3483 319.5,48.5 Z"/></g>
<g><path style="opacity:1" fill="#3e6134" d="M 508.5,49.5 C 500.828,48.2136 493.162,48.2136 485.5,49.5C 485.918,48.7784 486.584,48.2784 487.5,48C 493.833,47.3333 500.167,47.3333 506.5,48C 507.416,48.2784 508.082,48.7784 508.5,49.5 Z"/></g>
<g><path style="opacity:1" fill="#6eac5d" d="M 303.5,49.5 C 308.64,48.5119 313.974,48.1786 319.5,48.5C 324.422,48.8704 329.089,49.8704 333.5,51.5C 323.578,49.8898 313.578,49.2232 303.5,49.5 Z"/></g>
<g><path style="opacity:1" fill="#75b763" d="M 508.5,49.5 C 511.829,49.2153 514.829,49.8819 517.5,51.5C 503.732,48.5448 490.065,48.8782 476.5,52.5C 476.611,51.8826 476.944,51.3826 477.5,51C 480.168,50.433 482.834,49.933 485.5,49.5C 493.162,48.2136 500.828,48.2136 508.5,49.5 Z"/></g>
<g><path style="opacity:1" fill="#436838" d="M 299.5,49.5 C 296.811,51.117 293.811,52.117 290.5,52.5C 293.008,50.446 296.008,49.446 299.5,49.5 Z"/></g>
<g><path style="opacity:0.004" fill="#000000" d="M 245.5,53.5 C 244.833,52.1667 244.833,52.1667 245.5,53.5 Z"/></g>
<g><path style="opacity:1" fill="#3e6134" d="M 289.5,52.5 C 287.967,54.2451 285.967,55.2451 283.5,55.5C 285.033,53.7549 287.033,52.7549 289.5,52.5 Z"/></g>
<g><path style="opacity:1" fill="#5f9650" d="M 354.5,48.5 C 350.826,59.1048 344.826,60.4382 336.5,52.5C 339.92,53.9566 343.42,55.29 347,56.5C 349.664,54.0019 352.164,51.3352 354.5,48.5 Z"/></g>
<g><path style="opacity:1" fill="#568749" d="M 474.5,52.5 C 472.17,55.5682 469.003,57.2349 465,57.5C 463.624,57.3158 462.791,56.6491 462.5,55.5C 463.265,55.9234 464.098,56.2568 465,56.5C 468.111,54.9767 471.277,53.6434 474.5,52.5 Z"/></g>
<g><path style="opacity:1" fill="#36552e" d="M 528.5,55.5 C 530.027,55.427 531.027,56.0937 531.5,57.5C 529.973,57.573 528.973,56.9063 528.5,55.5 Z"/></g>
<g><path style="opacity:1" fill="#6dac5c" d="M 283.5,55.5 C 280.691,59.3032 277.025,61.9699 272.5,63.5C 275.317,59.7652 278.984,57.0985 283.5,55.5 Z"/></g>
<g><path style="opacity:1" fill="#bdecb0" d="M 417.5,81.5 C 417.825,73.9809 417.492,66.6476 416.5,59.5C 409.352,58.5084 402.019,58.175 394.5,58.5C 394.5,66.1667 394.5,73.8333 394.5,81.5C 393.508,73.6841 393.174,65.6841 393.5,57.5C 401.833,57.5 410.167,57.5 418.5,57.5C 418.826,65.6841 418.492,73.6841 417.5,81.5 Z"/></g>
<g><path style="opacity:1" fill="#4e7a42" d="M 542.5,65.5 C 543.833,66.1667 544.833,67.1667 545.5,68.5C 543.5,68.5 542.5,67.5 542.5,65.5 Z"/></g>
<g><path style="opacity:1" fill="#6dab5c" d="M 266.5,68.5 C 265.489,70.3716 264.655,72.3716 264,74.5C 261.629,76.0543 259.463,77.721 257.5,79.5C 259.793,75.2424 262.793,71.5758 266.5,68.5 Z"/></g>
<g><path style="opacity:1" fill="#e1f6db" d="M 416.5,59.5 C 417.492,66.6476 417.825,73.9809 417.5,81.5C 409.833,81.5 402.167,81.5 394.5,81.5C 394.5,73.8333 394.5,66.1667 394.5,58.5C 402.019,58.175 409.352,58.5084 416.5,59.5 Z"/></g>
<g><path style="opacity:1" fill="#fefefe" d="M 416.5,59.5 C 416.5,66.5 416.5,73.5 416.5,80.5C 409.5,80.5 402.5,80.5 395.5,80.5C 395.5,73.5 395.5,66.5 395.5,59.5C 402.5,59.5 409.5,59.5 416.5,59.5 Z"/></g>
<g><path style="opacity:1" fill="#5e9450" d="M 553.5,78.5 C 554.89,79.8993 555.89,81.5659 556.5,83.5C 554.241,82.656 553.241,80.9893 553.5,78.5 Z"/></g>
<g><path style="opacity:1" fill="#b0e8a1" d="M 464.5,104.5 C 464.825,96.9809 464.492,89.6476 463.5,82.5C 456.352,81.5084 449.019,81.175 441.5,81.5C 441.5,89.1667 441.5,96.8333 441.5,104.5C 440.177,101.062 439.51,97.229 439.5,93C 436.425,81.2429 440.758,77.0762 452.5,80.5C 456.748,80.5151 460.915,80.8485 465,81.5C 465.822,89.3446 465.656,97.0113 464.5,104.5 Z"/></g>
<g><path style="opacity:1" fill="#eaf9e6" d="M 463.5,82.5 C 456.5,82.5 449.5,82.5 442.5,82.5C 442.5,89.5 442.5,96.5 442.5,103.5C 449.5,103.5 456.5,103.5 463.5,103.5C 456.352,104.492 449.019,104.825 441.5,104.5C 441.5,96.8333 441.5,89.1667 441.5,81.5C 449.019,81.175 456.352,81.5084 463.5,82.5 Z"/></g>
<g><path style="opacity:1" fill="#fefefe" d="M 463.5,82.5 C 463.5,89.5 463.5,96.5 463.5,103.5C 456.5,103.5 449.5,103.5 442.5,103.5C 442.5,96.5 442.5,89.5 442.5,82.5C 449.5,82.5 456.5,82.5 463.5,82.5 Z"/></g>
<g><path style="opacity:1" fill="#5c904d" d="M 556.5,83.5 C 558.195,85.8967 559.528,88.5634 560.5,91.5C 557.942,89.5659 556.609,86.8992 556.5,83.5 Z"/></g>
<g><path style="opacity:1" fill="#5d924e" d="M 252.5,89.5 C 252.357,92.3852 251.357,94.7185 249.5,96.5C 249.759,93.7282 250.759,91.3949 252.5,89.5 Z"/></g>
<g><path style="opacity:1" fill="#466e3b" d="M 560.5,92.5 C 562.554,95.0076 563.554,98.0076 563.5,101.5C 561.883,98.8112 560.883,95.8112 560.5,92.5 Z"/></g>
<g><path style="opacity:0.004" fill="#000000" d="M 639.5,100.5 C 640.833,101.167 640.833,101.167 639.5,100.5 Z"/></g>
<g><path style="opacity:0.004" fill="#000000" d="M 169.5,102.5 C 170.833,103.167 170.833,103.167 169.5,102.5 Z"/></g>
<g><path style="opacity:1" fill="#caf0c0" d="M 463.5,82.5 C 464.492,89.6476 464.825,96.9809 464.5,104.5C 456.833,105.833 449.167,105.833 441.5,104.5C 449.019,104.825 456.352,104.492 463.5,103.5C 463.5,96.5 463.5,89.5 463.5,82.5 Z"/></g>
<g><path style="opacity:1" fill="#568849" d="M 248.5,102.5 C 248.741,104.898 248.074,106.898 246.5,108.5C 246.259,106.102 246.926,104.102 248.5,102.5 Z"/></g>
<g><path style="opacity:1" fill="#3d6034" d="M 563.5,102.5 C 565.074,104.102 565.741,106.102 565.5,108.5C 563.926,106.898 563.259,104.898 563.5,102.5 Z"/></g>
<g><path style="opacity:1" fill="#517f44" d="M 605.5,109.5 C 599.108,109.249 592.775,109.582 586.5,110.5C 586.611,109.883 586.944,109.383 587.5,109C 590.785,108.176 594.118,107.676 597.5,107.5C 600.486,107.382 603.152,108.048 605.5,109.5 Z"/></g>
<g><path style="opacity:1" fill="#69a559" d="M 233.5,115.5 C 229.596,113.682 225.596,112.016 221.5,110.5C 215.812,109.258 210.145,109.258 204.5,110.5C 207.258,109.182 210.424,108.515 214,108.5C 221.48,108.157 227.98,110.49 233.5,115.5 Z"/></g>
<g><path style="opacity:1" fill="#49723e" d="M 200.5,111.5 C 200.027,112.906 199.027,113.573 197.5,113.5C 197.973,112.094 198.973,111.427 200.5,111.5 Z"/></g>
<g><path style="opacity:1" fill="#5a8e4c" d="M 583.5,111.5 C 581.797,114.632 579.13,116.299 575.5,116.5C 578.12,114.838 580.787,113.172 583.5,111.5 Z"/></g>
<g><path style="opacity:1" fill="#33502b" d="M 236.5,116.5 C 238.027,116.427 239.027,117.094 239.5,118.5C 237.973,118.573 236.973,117.906 236.5,116.5 Z"/></g>
<g><path style="opacity:1" fill="#4b763f" d="M 246.5,110.5 C 245.886,114.135 245.552,117.802 245.5,121.5C 243.62,121.771 242.287,121.104 241.5,119.5C 242.5,119.5 243.5,119.5 244.5,119.5C 244.068,116.123 244.735,113.123 246.5,110.5 Z"/></g>
<g><path style="opacity:1" fill="#517f44" d="M 566.5,118.5 C 568.042,119.301 569.708,119.634 571.5,119.5C 570.22,120.931 568.553,121.598 566.5,121.5C 566.5,120.5 566.5,119.5 566.5,118.5 Z"/></g>
<g><path style="opacity:1" fill="#426838" d="M 185.5,127.5 C 183.042,135.622 182.042,143.955 182.5,152.5C 179.339,143.61 180.339,135.277 185.5,127.5 Z"/></g>
<g><path style="opacity:1" fill="#5c904d" d="M 627.5,131.5 C 628.117,131.611 628.617,131.944 629,132.5C 630.432,138.636 630.599,144.636 629.5,150.5C 629.167,150.5 628.833,150.5 628.5,150.5C 628.751,144.108 628.418,137.775 627.5,131.5 Z"/></g>
<g><path style="opacity:1" fill="#36542d" d="M 628.5,150.5 C 628.833,150.5 629.167,150.5 629.5,150.5C 629.662,152.527 629.495,154.527 629,156.5C 628.617,157.056 628.117,157.389 627.5,157.5C 627.674,155.139 628.007,152.806 628.5,150.5 Z"/></g>
<g><path style="opacity:1" fill="#639b53" d="M 627.5,158.5 C 626.425,160.856 626.425,163.189 627.5,165.5C 630.238,165.887 632.572,166.887 634.5,168.5C 631.57,167.701 628.57,167.368 625.5,167.5C 625.336,164.813 625.503,162.146 626,159.5C 626.383,158.944 626.883,158.611 627.5,158.5 Z"/></g>
<g><path style="opacity:1" fill="#578a4a" d="M 181.5,166.5 C 179.898,168.074 177.898,168.741 175.5,168.5C 177.102,166.926 179.102,166.259 181.5,166.5 Z"/></g>
<g><path style="opacity:1" fill="#568849" d="M 173.5,168.5 C 171.967,170.245 169.967,171.245 167.5,171.5C 169.033,169.755 171.033,168.755 173.5,168.5 Z"/></g>
<g><path style="opacity:1" fill="#426838" d="M 641.5,169.5 C 643.027,169.427 644.027,170.094 644.5,171.5C 642.973,171.573 641.973,170.906 641.5,169.5 Z"/></g>
<g><path style="opacity:1" fill="#538246" d="M 166.5,171.5 C 164.967,173.245 162.967,174.245 160.5,174.5C 162.033,172.755 164.033,171.755 166.5,171.5 Z"/></g>
<g><path style="opacity:1" fill="#507e44" d="M 160.5,174.5 C 158.853,176.326 156.853,177.66 154.5,178.5C 155.802,176.178 157.802,174.845 160.5,174.5 Z"/></g>
<g><path style="opacity:0.004" fill="#000000" d="M 695.5,180.5 C 696.833,181.167 696.833,181.167 695.5,180.5 Z"/></g>
<g><path style="opacity:1" fill="#5a8e4c" d="M 666.5,186.5 C 668.914,187.911 670.581,189.911 671.5,192.5C 669.086,191.089 667.419,189.089 666.5,186.5 Z"/></g>
<g><path style="opacity:1" fill="#67a357" d="M 143.5,188.5 C 142.423,191.378 140.756,193.878 138.5,196C 137.251,196.74 136.251,196.573 135.5,195.5C 138.096,193.247 140.763,190.914 143.5,188.5 Z"/></g>
<g><path style="opacity:1" fill="#517f44" d="M 674.5,196.5 C 675.906,196.973 676.573,197.973 676.5,199.5C 675.094,199.027 674.427,198.027 674.5,196.5 Z"/></g>
<g><path style="opacity:1" fill="#528246" d="M 680.5,207.5 C 681.957,209.242 683.124,211.242 684,213.5C 684.49,214.793 684.657,216.127 684.5,217.5C 682.277,214.609 680.944,211.276 680.5,207.5 Z"/></g>
<g><path style="opacity:1" fill="#436938" d="M 127.5,217.5 C 126.833,221.167 126.167,224.833 125.5,228.5C 125.167,228.5 124.833,228.5 124.5,228.5C 124.89,225.161 125.39,221.827 126,218.5C 126.383,217.944 126.883,217.611 127.5,217.5 Z"/></g>
<g><path style="opacity:1" fill="#6ca95b" d="M 124.5,228.5 C 124.833,228.5 125.167,228.5 125.5,228.5C 125.464,237.185 125.797,245.851 126.5,254.5C 125.698,253.048 125.198,251.382 125,249.5C 124.5,242.508 124.334,235.508 124.5,228.5 Z"/></g>
<g><path style="opacity:1" fill="#3f6335" d="M 686.5,224.5 C 687.166,228.82 687.499,233.32 687.5,238C 687.493,242.886 686.826,247.386 685.5,251.5C 685.5,251.167 685.5,250.833 685.5,250.5C 686.411,241.874 686.745,233.208 686.5,224.5 Z"/></g>
<g><path style="opacity:1" fill="#5c914e" d="M 685.5,250.5 C 685.5,250.833 685.5,251.167 685.5,251.5C 685.884,255.489 685.217,259.155 683.5,262.5C 683.539,258.267 684.205,254.267 685.5,250.5 Z"/></g>
<g><path style="opacity:1" fill="#2b4124" d="M 127.5,260.5 C 129.097,262.848 130.097,265.514 130.5,268.5C 128.518,266.403 127.518,263.736 127.5,260.5 Z"/></g>
<g><path style="opacity:1" fill="#69d14c" d="M 386.5,428.5 C 384.435,428.483 382.435,428.15 380.5,427.5C 379.209,427.737 378.209,427.404 377.5,426.5C 377.027,425.094 376.027,424.427 374.5,424.5C 373.508,424.672 372.842,424.338 372.5,423.5C 371.415,421.413 369.749,420.08 367.5,419.5C 365.833,418.5 364.5,417.167 363.5,415.5C 363.932,412.123 363.265,409.123 361.5,406.5C 361.167,404.5 360.833,402.5 360.5,400.5C 359.917,397.053 358.584,394.053 356.5,391.5C 351.157,383.159 344.49,376.159 336.5,370.5C 335.313,368.025 333.313,367.025 330.5,367.5C 329.486,366.326 328.153,365.66 326.5,365.5C 324.228,364.681 321.894,364.015 319.5,363.5C 316.914,362.585 314.914,360.918 313.5,358.5C 313.5,357.833 313.5,357.167 313.5,356.5C 312.917,353.053 311.584,350.053 309.5,347.5C 308.008,343.659 305.675,340.325 302.5,337.5C 301.92,335.251 300.587,333.585 298.5,332.5C 289.822,324.814 279.822,319.814 268.5,317.5C 266.285,316.732 263.952,316.065 261.5,315.5C 259.295,313.654 256.961,311.987 254.5,310.5C 252.973,307.932 250.639,306.599 247.5,306.5C 245.228,305.681 242.894,305.015 240.5,304.5C 239.833,304.5 239.167,304.5 238.5,304.5C 238.082,303.778 237.416,303.278 236.5,303C 233.5,302.833 230.5,302.667 227.5,302.5C 223.203,302.278 219.203,302.945 215.5,304.5C 210.115,304.632 205.115,305.966 200.5,308.5C 198.973,308.427 197.973,309.094 197.5,310.5C 195.847,310.66 194.514,311.326 193.5,312.5C 191.833,313.833 190.167,315.167 188.5,316.5C 184.988,315.945 181.988,316.612 179.5,318.5C 177.801,318.34 176.134,318.506 174.5,319C 161.522,324.454 151.188,332.954 143.5,344.5C 142.849,345.091 142.182,345.757 141.5,346.5C 140.507,341.88 140.173,337.214 140.5,332.5C 140.368,329.43 140.701,326.43 141.5,323.5C 141.365,321.446 142.032,319.779 143.5,318.5C 145.245,316.967 146.245,314.967 146.5,312.5C 148.025,309.437 150.025,306.77 152.5,304.5C 153.5,304.167 154.167,303.5 154.5,302.5C 162.59,297.809 171.257,294.642 180.5,293C 185.584,289.46 190.917,286.46 196.5,284C 222.724,275.818 247.391,278.818 270.5,293C 276.627,295.411 282.96,297.078 289.5,298C 296.537,302.338 303.537,306.671 310.5,311C 320.858,319.71 328.525,330.376 333.5,343C 370.747,359.116 388.413,387.616 386.5,428.5 Z"/></g>
<g><path style="opacity:1" fill="#375a2e" d="M 153.5,298.5 C 155.62,299.403 155.954,300.737 154.5,302.5C 154.167,303.5 153.5,304.167 152.5,304.5C 153.15,302.565 153.483,300.565 153.5,298.5 Z"/></g>
<g><path style="opacity:1" fill="#37562e" d="M 656.5,299.5 C 655.341,301.25 653.674,302.25 651.5,302.5C 652.659,300.75 654.326,299.75 656.5,299.5 Z"/></g>
<g><path style="opacity:1" fill="#264b1b" d="M 238.5,304.5 C 230.828,303.214 223.162,303.214 215.5,304.5C 219.203,302.945 223.203,302.278 227.5,302.5C 230.5,302.667 233.5,302.833 236.5,303C 237.416,303.278 238.082,303.778 238.5,304.5 Z"/></g>
<g><path style="opacity:0.004" fill="#000000" d="M 689.5,303.5 C 690.833,304.167 690.833,304.167 689.5,303.5 Z"/></g>
<g><path style="opacity:1" fill="#264b1c" d="M 240.5,304.5 C 242.894,305.015 245.228,305.681 247.5,306.5C 247.5,306.833 247.5,307.167 247.5,307.5C 244.728,307.241 242.395,306.241 240.5,304.5 Z"/></g>
<g><path style="opacity:1" fill="#4a9335" d="M 247.5,307.5 C 247.5,307.167 247.5,306.833 247.5,306.5C 250.639,306.599 252.973,307.932 254.5,310.5C 252.02,309.758 249.687,308.758 247.5,307.5 Z"/></g>
<g><path style="opacity:1" fill="#35542d" d="M 644.5,305.5 C 644.027,306.906 643.027,307.573 641.5,307.5C 641.973,306.094 642.973,305.427 644.5,305.5 Z"/></g>
<g><path style="opacity:1" fill="#28501d" d="M 200.5,308.5 C 200.027,309.906 199.027,310.573 197.5,310.5C 197.973,309.094 198.973,308.427 200.5,308.5 Z"/></g>
<g><path style="opacity:1" fill="#578849" d="M 636.5,308.5 C 635.659,310.379 635.325,312.379 635.5,314.5C 632.51,311.826 632.843,309.826 636.5,308.5 Z"/></g>
<g><path style="opacity:1" fill="#29531e" d="M 197.5,310.5 C 196.713,312.104 195.38,312.771 193.5,312.5C 194.514,311.326 195.847,310.66 197.5,310.5 Z"/></g>
<g><path style="opacity:1" fill="#24481a" d="M 188.5,316.5 C 185.655,317.344 182.655,318.01 179.5,318.5C 181.988,316.612 184.988,315.945 188.5,316.5 Z"/></g>
<g><path style="opacity:1" fill="#193113" d="M 261.5,315.5 C 263.952,316.065 266.285,316.732 268.5,317.5C 265.612,318.01 263.279,317.344 261.5,315.5 Z"/></g>
<g><path style="opacity:1" fill="#458932" d="M 146.5,312.5 C 146.245,314.967 145.245,316.967 143.5,318.5C 143.755,316.033 144.755,314.033 146.5,312.5 Z"/></g>
<g><path style="opacity:1" fill="#456b39" d="M 635.5,314.5 C 637.245,316.033 638.245,318.033 638.5,320.5C 636.755,318.967 635.755,316.967 635.5,314.5 Z"/></g>
<g><path style="opacity:1" fill="#314d29" d="M 231.5,326.5 C 226.438,326.274 221.438,326.608 216.5,327.5C 216.611,326.883 216.944,326.383 217.5,326C 222.352,325.185 227.019,325.352 231.5,326.5 Z"/></g>
<g><path style="opacity:1" fill="#76ba64" d="M 231.5,326.5 C 236.223,326.692 240.223,328.359 243.5,331.5C 234.192,327.792 224.525,326.792 214.5,328.5C 214.5,328.167 214.5,327.833 214.5,327.5C 215.167,327.5 215.833,327.5 216.5,327.5C 221.438,326.608 226.438,326.274 231.5,326.5 Z"/></g>
<g><path style="opacity:1" fill="#548547" d="M 639.5,324.5 C 640.924,326.515 641.59,328.848 641.5,331.5C 640.076,329.485 639.41,327.152 639.5,324.5 Z"/></g>
<g><path style="opacity:1" fill="#4e7a41" d="M 214.5,327.5 C 214.5,327.833 214.5,328.167 214.5,328.5C 213.07,329.537 211.403,330.204 209.5,330.5C 210.659,328.75 212.326,327.75 214.5,327.5 Z"/></g>
<g><path style="opacity:1" fill="#8dde77" d="M 243.5,331.5 C 247.192,333.533 250.192,336.2 252.5,339.5C 258.722,340.432 265.055,341.432 271.5,342.5C 275.63,343.937 279.297,346.27 282.5,349.5C 282.738,351.404 283.738,352.738 285.5,353.5C 289.549,357.996 291.882,363.33 292.5,369.5C 292.5,374.833 292.5,380.167 292.5,385.5C 301.004,386.362 309.67,387.029 318.5,387.5C 322.391,389.373 326.058,391.707 329.5,394.5C 329.511,396.017 330.177,397.184 331.5,398C 331.043,398.414 330.709,398.914 330.5,399.5C 332.319,400.32 333.986,401.32 335.5,402.5C 335.5,403.167 335.5,403.833 335.5,404.5C 333.694,414.005 328.694,421.505 320.5,427C 318.122,427.511 315.788,428.178 313.5,429C 298.504,429.5 283.504,429.667 268.5,429.5C 268.667,442.837 268.5,456.171 268,469.5C 266.337,471.917 264.171,473.75 261.5,475C 255.5,475.333 249.5,475.667 243.5,476C 240.097,484.24 234.097,489.407 225.5,491.5C 216.826,489.661 211.16,484.494 208.5,476C 202.167,475.667 195.833,475.333 189.5,475C 187.333,473.5 185.5,471.667 184,469.5C 182.538,456.599 182.038,443.599 182.5,430.5C 166.124,430.906 149.79,430.406 133.5,429C 124.162,423.33 118.329,415.163 116,404.5C 115.764,406.119 114.931,407.119 113.5,407.5C 116.771,398.563 122.771,392.23 131.5,388.5C 140.923,387.151 150.256,386.151 159.5,385.5C 159.326,378.465 159.659,371.465 160.5,364.5C 163.173,361.822 164.839,358.488 165.5,354.5C 165.5,353.833 165.833,353.5 166.5,353.5C 169.5,351.167 172.167,348.5 174.5,345.5C 176.891,343.638 179.558,342.304 182.5,341.5C 188.009,340.818 193.342,339.818 198.5,338.5C 201.665,335.09 205.332,332.423 209.5,330.5C 211.403,330.204 213.07,329.537 214.5,328.5C 224.525,326.792 234.192,327.792 243.5,331.5 Z"/></g>
<g><path style="opacity:1" fill="#254a1b" d="M 298.5,332.5 C 300.587,333.585 301.92,335.251 302.5,337.5C 300.413,336.415 299.08,334.749 298.5,332.5 Z"/></g>
<g><path style="opacity:1" fill="#29521e" d="M 141.5,323.5 C 140.701,326.43 140.368,329.43 140.5,332.5C 139.521,335.625 139.187,338.958 139.5,342.5C 138.313,336.629 138.48,330.629 140,324.5C 140.383,323.944 140.883,323.611 141.5,323.5 Z"/></g>
<g><path style="opacity:1" fill="#3a5c32" d="M 198.5,338.5 C 193.342,339.818 188.009,340.818 182.5,341.5C 182.611,340.883 182.944,340.383 183.5,340C 188.448,338.95 193.448,338.45 198.5,338.5 Z"/></g>
<g><path style="opacity:1" fill="#649e55" d="M 252.5,339.5 C 257.179,339.334 261.845,339.501 266.5,340C 268.315,340.757 269.981,341.59 271.5,342.5C 265.055,341.432 258.722,340.432 252.5,339.5 Z"/></g>
<g><path style="opacity:1" fill="#3f7d2e" d="M 140.5,332.5 C 140.173,337.214 140.507,341.88 141.5,346.5C 142.182,345.757 142.849,345.091 143.5,344.5C 143.5,345.5 143.5,346.5 143.5,347.5C 142.167,347.5 140.833,347.5 139.5,347.5C 139.5,345.833 139.5,344.167 139.5,342.5C 139.187,338.958 139.521,335.625 140.5,332.5 Z"/></g>
<g><path style="opacity:1" fill="#5f9550" d="M 174.5,345.5 C 172.167,348.5 169.5,351.167 166.5,353.5C 168.167,349.833 170.833,347.167 174.5,345.5 Z"/></g>
<g><path style="opacity:1" fill="#4f7d43" d="M 282.5,349.5 C 284.262,350.262 285.262,351.596 285.5,353.5C 283.738,352.738 282.738,351.404 282.5,349.5 Z"/></g>
<g><path style="opacity:1" fill="#274c1d" d="M 309.5,347.5 C 311.584,350.053 312.917,353.053 313.5,356.5C 312.069,355.097 310.902,353.431 310,351.5C 309.51,350.207 309.343,348.873 309.5,347.5 Z"/></g>
<g><path style="opacity:1" fill="#4d7941" d="M 641.5,349.5 C 641.554,352.992 640.554,355.992 638.5,358.5C 638.883,355.189 639.883,352.189 641.5,349.5 Z"/></g>
<g><path style="opacity:1" fill="#458932" d="M 313.5,358.5 C 314.914,360.918 316.914,362.585 319.5,363.5C 315.651,363.981 313.651,362.314 313.5,358.5 Z"/></g>
<g><path style="opacity:1" fill="#5f9650" d="M 165.5,354.5 C 164.839,358.488 163.173,361.822 160.5,364.5C 160.691,360.337 162.357,357.004 165.5,354.5 Z"/></g>
<g><path style="opacity:1" fill="#2a4224" d="M 638.5,360.5 C 638.245,362.967 637.245,364.967 635.5,366.5C 635.755,364.033 636.755,362.033 638.5,360.5 Z"/></g>
<g><path style="opacity:1" fill="#28501d" d="M 326.5,365.5 C 328.153,365.66 329.486,366.326 330.5,367.5C 328.62,367.771 327.287,367.104 326.5,365.5 Z"/></g>
<g><path style="opacity:1" fill="#488f34" d="M 330.5,367.5 C 333.313,367.025 335.313,368.025 336.5,370.5C 334.456,369.492 332.456,368.492 330.5,367.5 Z"/></g>
<g><path style="opacity:1" fill="#1e2f19" d="M 160.5,364.5 C 159.659,371.465 159.326,378.465 159.5,385.5C 152.5,385.5 145.5,385.5 138.5,385.5C 144.979,384.509 151.646,384.176 158.5,384.5C 158.334,378.824 158.501,373.157 159,367.5C 159.232,366.263 159.732,365.263 160.5,364.5 Z"/></g>
<g><path style="opacity:1" fill="#bbebae" d="M 237.5,384.5 C 229.684,385.492 221.684,385.826 213.5,385.5C 213.5,377.167 213.5,368.833 213.5,360.5C 221.507,360.334 229.507,360.5 237.5,361C 238.827,368.932 238.827,376.765 237.5,384.5 Z"/></g>
<g><path style="opacity:1" fill="#e3f6dd" d="M 236.5,362.5 C 237.492,369.648 237.825,376.981 237.5,384.5C 229.981,384.825 222.648,384.492 215.5,383.5C 222.5,383.5 229.5,383.5 236.5,383.5C 236.5,376.5 236.5,369.5 236.5,362.5 Z"/></g>
<g><path style="opacity:1" fill="#fefffe" d="M 236.5,362.5 C 236.5,369.5 236.5,376.5 236.5,383.5C 229.5,383.5 222.5,383.5 215.5,383.5C 215.5,376.5 215.5,369.5 215.5,362.5C 222.5,362.5 229.5,362.5 236.5,362.5 Z"/></g>
<g><path style="opacity:1" fill="#e6f8e1" d="M 236.5,362.5 C 229.5,362.5 222.5,362.5 215.5,362.5C 215.5,369.5 215.5,376.5 215.5,383.5C 214.508,376.352 214.175,369.019 214.5,361.5C 222.019,361.175 229.352,361.508 236.5,362.5 Z"/></g>
<g><path style="opacity:1" fill="#192816" d="M 292.5,369.5 C 293.487,374.305 293.821,379.305 293.5,384.5C 300.354,384.176 307.021,384.509 313.5,385.5C 306.5,385.5 299.5,385.5 292.5,385.5C 292.5,380.167 292.5,374.833 292.5,369.5 Z"/></g>
<g><path style="opacity:1" fill="#71b15f" d="M 138.5,385.5 C 145.5,385.5 152.5,385.5 159.5,385.5C 150.256,386.151 140.923,387.151 131.5,388.5C 133.395,386.759 135.728,385.759 138.5,385.5 Z"/></g>
<g><path style="opacity:1" fill="#70b05f" d="M 292.5,385.5 C 299.5,385.5 306.5,385.5 313.5,385.5C 315.306,386.024 316.972,386.691 318.5,387.5C 309.67,387.029 301.004,386.362 292.5,385.5 Z"/></g>
<g><path style="opacity:0.004" fill="#000000" d="M 650.5,389.5 C 651.833,390.167 651.833,390.167 650.5,389.5 Z"/></g>
<g><path style="opacity:1" fill="#273d21" d="M 613.5,386.5 C 612.791,387.404 611.791,387.737 610.5,387.5C 610.817,391.702 610.483,395.702 609.5,399.5C 609.5,395.167 609.5,390.833 609.5,386.5C 610.833,386.5 612.167,386.5 613.5,386.5 Z"/></g>
<g><path style="opacity:1" fill="#254a1b" d="M 356.5,391.5 C 358.584,394.053 359.917,397.053 360.5,400.5C 359.069,399.097 357.902,397.431 357,395.5C 356.51,394.207 356.343,392.873 356.5,391.5 Z"/></g>
<g><path style="opacity:1" fill="#70b05e" d="M 329.5,394.5 C 331.984,396.8 333.984,399.467 335.5,402.5C 333.986,401.32 332.319,400.32 330.5,399.5C 330.709,398.914 331.043,398.414 331.5,398C 330.177,397.184 329.511,396.017 329.5,394.5 Z"/></g>
<g><path style="opacity:1" fill="#3a722a" d="M 335.5,402.5 C 337.245,404.033 338.245,406.033 338.5,408.5C 337.143,407.41 336.143,406.076 335.5,404.5C 335.5,403.833 335.5,403.167 335.5,402.5 Z"/></g>
<g><path style="opacity:1" fill="#69d14d" d="M 335.5,404.5 C 336.143,406.076 337.143,407.41 338.5,408.5C 338.5,409.167 338.5,409.833 338.5,410.5C 339.292,416.13 339.625,421.797 339.5,427.5C 338.596,428.209 338.263,429.209 338.5,430.5C 336.755,432.033 335.755,434.033 335.5,436.5C 334.026,437.436 333.026,438.77 332.5,440.5C 329.464,444.196 325.797,447.196 321.5,449.5C 319.973,449.427 318.973,450.094 318.5,451.5C 316.194,451.993 313.861,452.326 311.5,452.5C 304.833,452.5 298.167,452.5 291.5,452.5C 291.5,458.167 291.5,463.833 291.5,469.5C 289.934,479.297 285.268,487.297 277.5,493.5C 275.326,493.75 273.659,494.75 272.5,496.5C 270.784,496.629 269.117,496.962 267.5,497.5C 262.332,497.934 257.332,498.6 252.5,499.5C 250.12,502.881 247.12,505.547 243.5,507.5C 240.16,509.59 236.493,510.923 232.5,511.5C 226.441,511.746 220.441,511.413 214.5,510.5C 213.209,510.737 212.209,510.404 211.5,509.5C 211.027,508.094 210.027,507.427 208.5,507.5C 204.979,505.898 201.979,503.565 199.5,500.5C 194.825,499.723 190.158,499.056 185.5,498.5C 184.5,497.833 183.5,497.167 182.5,496.5C 181.791,495.596 180.791,495.263 179.5,495.5C 179.5,494.5 179.5,493.5 179.5,492.5C 177.801,492.66 176.134,492.494 174.5,492C 173.796,488.883 171.462,487.049 167.5,486.5C 164.235,482.735 161.901,478.402 160.5,473.5C 159.659,466.535 159.326,459.535 159.5,452.5C 152.833,452.5 146.167,452.5 139.5,452.5C 126.171,450.174 117.504,442.508 113.5,429.5C 112.253,422.52 112.253,415.52 113.5,408.5C 113.5,408.167 113.5,407.833 113.5,407.5C 114.931,407.119 115.764,406.119 116,404.5C 118.329,415.163 124.162,423.33 133.5,429C 149.79,430.406 166.124,430.906 182.5,430.5C 182.038,443.599 182.538,456.599 184,469.5C 185.5,471.667 187.333,473.5 189.5,475C 195.833,475.333 202.167,475.667 208.5,476C 211.16,484.494 216.826,489.661 225.5,491.5C 234.097,489.407 240.097,484.24 243.5,476C 249.5,475.667 255.5,475.333 261.5,475C 264.171,473.75 266.337,471.917 268,469.5C 268.5,456.171 268.667,442.837 268.5,429.5C 283.504,429.667 298.504,429.5 313.5,429C 315.788,428.178 318.122,427.511 320.5,427C 328.694,421.505 333.694,414.005 335.5,404.5 Z"/></g>
<g><path style="opacity:1" fill="#2e5c21" d="M 361.5,406.5 C 363.265,409.123 363.932,412.123 363.5,415.5C 362.343,412.727 361.676,409.727 361.5,406.5 Z"/></g>
<g><path style="opacity:1" fill="#35532d" d="M 457.5,410.5 C 457.027,411.906 456.027,412.573 454.5,412.5C 454.973,411.094 455.973,410.427 457.5,410.5 Z"/></g>
<g><path style="opacity:1" fill="#304c29" d="M 607.5,408.5 C 607.06,412.252 605.393,415.252 602.5,417.5C 603.807,414.22 605.473,411.22 607.5,408.5 Z"/></g>
<g><path style="opacity:1" fill="#306123" d="M 113.5,408.5 C 112.253,415.52 112.253,422.52 113.5,429.5C 112.883,429.389 112.383,429.056 112,428.5C 111.333,422.5 111.333,416.5 112,410.5C 112.278,409.584 112.778,408.918 113.5,408.5 Z"/></g>
<g><path style="opacity:1" fill="#23361e" d="M 451.5,415.5 C 450.461,417.531 448.795,418.864 446.5,419.5C 447.579,417.457 449.246,416.124 451.5,415.5 Z"/></g>
<g><path style="opacity:1" fill="#305f23" d="M 338.5,410.5 C 339.117,410.611 339.617,410.944 340,411.5C 340.817,417.016 340.651,422.35 339.5,427.5C 339.625,421.797 339.292,416.13 338.5,410.5 Z"/></g>
<g><path style="opacity:1" fill="#458932" d="M 367.5,419.5 C 369.749,420.08 371.415,421.413 372.5,423.5C 370.251,422.92 368.585,421.587 367.5,419.5 Z"/></g>
<g><path style="opacity:1" fill="#324f2a" d="M 443.5,421.5 C 442.341,423.25 440.674,424.25 438.5,424.5C 439.659,422.75 441.326,421.75 443.5,421.5 Z"/></g>
<g><path style="opacity:1" fill="#38582f" d="M 551.5,421.5 C 549.315,421.704 547.315,422.37 545.5,423.5C 546.92,420.651 548.92,419.984 551.5,421.5 Z"/></g>
<g><path style="opacity:1" fill="#528145" d="M 552.5,422.5 C 554.027,422.427 555.027,423.094 555.5,424.5C 553.973,424.573 552.973,423.906 552.5,422.5 Z"/></g>
<g><path style="opacity:1" fill="#3d7a2c" d="M 374.5,424.5 C 376.027,424.427 377.027,425.094 377.5,426.5C 375.973,426.573 374.973,425.906 374.5,424.5 Z"/></g>
<g><path style="opacity:1" fill="#4c7840" d="M 555.5,424.5 C 557.027,424.427 558.027,425.094 558.5,426.5C 556.973,426.573 555.973,425.906 555.5,424.5 Z"/></g>
<g><path style="opacity:1" fill="#324f2b" d="M 435.5,425.5 C 433.815,427.818 431.481,428.818 428.5,428.5C 430.604,427.088 432.937,426.088 435.5,425.5 Z"/></g>
<g><path style="opacity:1" fill="#649d54" d="M 428.5,428.5 C 426.401,429.612 424.067,430.279 421.5,430.5C 423.279,428.656 425.612,427.99 428.5,428.5 Z"/></g>
<g><path style="opacity:1" fill="#5d924e" d="M 482.5,428.5 C 485.313,428.025 487.313,429.025 488.5,431.5C 486.456,430.492 484.456,429.492 482.5,428.5 Z"/></g>
<g><path style="opacity:1" fill="#456d3a" d="M 558.5,426.5 C 560.967,426.755 562.967,427.755 564.5,429.5C 562.033,429.245 560.033,428.245 558.5,426.5 Z"/></g>
<g><path style="opacity:1" fill="#4b793f" d="M 380.5,427.5 C 382.435,428.15 384.435,428.483 386.5,428.5C 388.829,430.049 391.496,430.883 394.5,431C 402.856,431.665 411.189,431.499 419.5,430.5C 419.389,431.117 419.056,431.617 418.5,432C 409.5,432.667 400.5,432.667 391.5,432C 387.991,431.469 384.658,430.469 381.5,429C 380.944,428.617 380.611,428.117 380.5,427.5 Z"/></g>
<g><path style="opacity:1" fill="#2a4324" d="M 565.5,429.5 C 571.833,430.833 578.167,430.833 584.5,429.5C 584.389,430.117 584.056,430.617 583.5,431C 577.833,431.667 572.167,431.667 566.5,431C 565.944,430.617 565.611,430.117 565.5,429.5 Z"/></g>
<g><path style="opacity:1" fill="#5c904d" d="M 534.5,430.5 C 532.887,432.088 530.887,433.088 528.5,433.5C 529.895,431.621 531.895,430.621 534.5,430.5 Z"/></g>
<g><path style="opacity:1" fill="#4d7941" d="M 488.5,431.5 C 491.721,432.505 495.054,433.339 498.5,434C 499.056,434.383 499.389,434.883 499.5,435.5C 495.292,435.323 491.626,433.99 488.5,431.5 Z"/></g>
<g><path style="opacity:1" fill="#29521d" d="M 338.5,430.5 C 338.245,432.967 337.245,434.967 335.5,436.5C 335.755,434.033 336.755,432.033 338.5,430.5 Z"/></g>
<g><path style="opacity:1" fill="#29521e" d="M 335.5,436.5 C 335.446,438.632 334.446,439.965 332.5,440.5C 333.026,438.77 334.026,437.436 335.5,436.5 Z"/></g>
<g><path style="opacity:0.004" fill="#000000" d="M 609.5,445.5 C 610.833,446.167 610.833,446.167 609.5,445.5 Z"/></g>
<g><path style="opacity:1" fill="#c77d66" d="M 444.5,447.5 C 446.442,452.056 447.108,457.056 446.5,462.5C 446.5,465.5 446.5,468.5 446.5,471.5C 446.167,471.5 445.833,471.5 445.5,471.5C 438.706,473.982 431.873,476.315 425,478.5C 415.515,502.11 406.181,525.777 397,549.5C 396.811,585.191 395.811,620.858 394,656.5C 391.237,665.094 388.737,673.761 386.5,682.5C 377.318,682.827 368.318,682.493 359.5,681.5C 364.077,672.528 367.743,663.194 370.5,653.5C 371.577,640.676 372.244,627.676 372.5,614.5C 372.5,608.5 372.5,602.5 372.5,596.5C 372.333,581.83 372.5,567.163 373,552.5C 374.039,551.756 374.539,550.756 374.5,549.5C 377.379,546.481 379.045,542.814 379.5,538.5C 379.741,535.185 380.741,532.185 382.5,529.5C 384.245,527.967 385.245,525.967 385.5,523.5C 385.5,522.833 385.5,522.167 385.5,521.5C 387.245,519.967 388.245,517.967 388.5,515.5C 388.5,514.833 388.5,514.167 388.5,513.5C 391.379,510.481 393.045,506.814 393.5,502.5C 393.905,499.285 394.905,496.285 396.5,493.5C 398.245,491.967 399.245,489.967 399.5,487.5C 399.5,486.833 399.5,486.167 399.5,485.5C 401.245,483.967 402.245,481.967 402.5,479.5C 404.757,471.647 407.59,463.98 411,456.5C 414.683,455.136 418.516,454.469 422.5,454.5C 425.152,454.59 427.485,453.924 429.5,452.5C 429.833,452.5 430.167,452.5 430.5,452.5C 432.801,451.94 435.134,451.44 437.5,451C 438.056,450.617 438.389,450.117 438.5,449.5C 440.282,448.28 442.282,447.614 444.5,447.5 Z"/></g>
<g><path style="opacity:1" fill="#264d1c" d="M 321.5,449.5 C 321.027,450.906 320.027,451.573 318.5,451.5C 318.973,450.094 319.973,449.427 321.5,449.5 Z"/></g>
<g><path style="opacity:1" fill="#5b382f" d="M 438.5,449.5 C 438.389,450.117 438.056,450.617 437.5,451C 435.134,451.44 432.801,451.94 430.5,452.5C 430.611,451.883 430.944,451.383 431.5,451C 433.866,450.56 436.199,450.06 438.5,449.5 Z"/></g>
<g><path style="opacity:1" fill="#3d792c" d="M 311.5,452.5 C 305.355,453.49 299.022,453.823 292.5,453.5C 292.821,459.026 292.488,464.36 291.5,469.5C 291.5,463.833 291.5,458.167 291.5,452.5C 298.167,452.5 304.833,452.5 311.5,452.5 Z"/></g>
<g><path style="opacity:1" fill="#674135" d="M 429.5,452.5 C 427.485,453.924 425.152,454.59 422.5,454.5C 424.515,453.076 426.848,452.41 429.5,452.5 Z"/></g>
<g><path style="opacity:1" fill="#24471a" d="M 139.5,452.5 C 146.167,452.5 152.833,452.5 159.5,452.5C 159.326,459.535 159.659,466.535 160.5,473.5C 159.732,472.737 159.232,471.737 159,470.5C 158.501,464.843 158.334,459.176 158.5,453.5C 152.537,454.53 146.537,454.697 140.5,454C 139.944,453.617 139.611,453.117 139.5,452.5 Z"/></g>
<g><path style="opacity:1" fill="#603c31" d="M 444.5,447.5 C 445.209,446.596 446.209,446.263 447.5,446.5C 447.821,452.026 447.488,457.36 446.5,462.5C 447.108,457.056 446.442,452.056 444.5,447.5 Z"/></g>
<g><path style="opacity:0.004" fill="#000000" d="M 102.5,461.5 C 103.833,462.167 103.833,462.167 102.5,461.5 Z"/></g>
<g><path style="opacity:0.004" fill="#000000" d="M 105.5,464.5 C 106.833,465.167 106.833,465.167 105.5,464.5 Z"/></g>
<g><path style="opacity:1" fill="#d0a083" d="M 445.5,471.5 C 445.128,482.499 444.794,493.499 444.5,504.5C 444.5,509.833 444.5,515.167 444.5,520.5C 444.5,525.833 444.5,531.167 444.5,536.5C 443.509,543.313 443.175,550.313 443.5,557.5C 447.5,557.5 451.5,557.5 455.5,557.5C 455.833,557.5 456.167,557.5 456.5,557.5C 456.5,564.833 456.5,572.167 456.5,579.5C 451.491,580.915 446.491,581.915 441.5,582.5C 440.508,589.982 440.175,597.648 440.5,605.5C 445.167,605.5 449.833,605.5 454.5,605.5C 454.5,612.5 454.5,619.5 454.5,626.5C 454.5,627.167 454.167,627.5 453.5,627.5C 449.5,627.5 445.5,627.5 441.5,627.5C 441.185,631.371 441.518,635.038 442.5,638.5C 442.5,644.167 442.5,649.833 442.5,655.5C 442.259,657.898 442.926,659.898 444.5,661.5C 444.523,663.927 445.023,666.26 446,668.5C 448.644,672.289 450.811,676.289 452.5,680.5C 452.611,681.117 452.944,681.617 453.5,682C 431.169,682.5 408.836,682.667 386.5,682.5C 388.737,673.761 391.237,665.094 394,656.5C 395.811,620.858 396.811,585.191 397,549.5C 406.181,525.777 415.515,502.11 425,478.5C 431.873,476.315 438.706,473.982 445.5,471.5 Z"/></g>
<g><path style="opacity:1" fill="#613d31" d="M 402.5,479.5 C 402.245,481.967 401.245,483.967 399.5,485.5C 399.755,483.033 400.755,481.033 402.5,479.5 Z"/></g>
<g><path style="opacity:1" fill="#6c4437" d="M 399.5,487.5 C 399.245,489.967 398.245,491.967 396.5,493.5C 396.755,491.033 397.755,489.033 399.5,487.5 Z"/></g>
<g><path style="opacity:1" fill="#5ab341" d="M 167.5,486.5 C 171.462,487.049 173.796,488.883 174.5,492C 176.134,492.494 177.801,492.66 179.5,492.5C 179.5,493.5 179.5,494.5 179.5,495.5C 180.791,495.263 181.791,495.596 182.5,496.5C 181.833,496.5 181.167,496.5 180.5,496.5C 174.996,494.66 170.663,491.327 167.5,486.5 Z"/></g>
<g><path style="opacity:1" fill="#23461a" d="M 277.5,493.5 C 276.341,495.25 274.674,496.25 272.5,496.5C 273.659,494.75 275.326,493.75 277.5,493.5 Z"/></g>
<g><path style="opacity:1" fill="#24481a" d="M 180.5,496.5 C 181.167,496.5 181.833,496.5 182.5,496.5C 183.5,497.167 184.5,497.833 185.5,498.5C 183.302,498.88 181.635,498.213 180.5,496.5 Z"/></g>
<g><path style="opacity:1" fill="#3f7e2e" d="M 267.5,497.5 C 266.737,498.268 265.737,498.768 264.5,499C 260.514,499.499 256.514,499.666 252.5,499.5C 257.332,498.6 262.332,497.934 267.5,497.5 Z"/></g>
<g><path style="opacity:0.004" fill="#000000" d="M 306.5,500.5 C 307.833,501.167 307.833,501.167 306.5,500.5 Z"/></g>
<g><path style="opacity:1" fill="#906f5b" d="M 445.5,471.5 C 445.833,471.5 446.167,471.5 446.5,471.5C 446.5,477.833 446.5,484.167 446.5,490.5C 445.833,495.167 445.167,499.833 444.5,504.5C 444.794,493.499 445.128,482.499 445.5,471.5 Z"/></g>
<g><path style="opacity:1" fill="#376e28" d="M 208.5,507.5 C 210.027,507.427 211.027,508.094 211.5,509.5C 209.973,509.573 208.973,508.906 208.5,507.5 Z"/></g>
<g><path style="opacity:1" fill="#7e4f40" d="M 393.5,502.5 C 393.045,506.814 391.379,510.481 388.5,513.5C 389.816,509.566 391.483,505.899 393.5,502.5 Z"/></g>
<g><path style="opacity:1" fill="#1b3014" d="M 243.5,507.5 C 240.744,510.81 237.077,512.476 232.5,512.5C 232.5,512.167 232.5,511.833 232.5,511.5C 236.493,510.923 240.16,509.59 243.5,507.5 Z"/></g>
<g><path style="opacity:1" fill="#3d792c" d="M 214.5,510.5 C 220.441,511.413 226.441,511.746 232.5,511.5C 232.5,511.833 232.5,512.167 232.5,512.5C 226.824,512.666 221.157,512.499 215.5,512C 214.944,511.617 214.611,511.117 214.5,510.5 Z"/></g>
<g><path style="opacity:1" fill="#674035" d="M 388.5,515.5 C 388.245,517.967 387.245,519.967 385.5,521.5C 385.755,519.033 386.755,517.033 388.5,515.5 Z"/></g>
<g><path style="opacity:1" fill="#554135" d="M 446.5,490.5 C 446.772,500.713 446.105,510.713 444.5,520.5C 444.5,515.167 444.5,509.833 444.5,504.5C 445.167,499.833 445.833,495.167 446.5,490.5 Z"/></g>
<g><path style="opacity:1" fill="#74493b" d="M 385.5,523.5 C 385.245,525.967 384.245,527.967 382.5,529.5C 382.755,527.033 383.755,525.033 385.5,523.5 Z"/></g>
<g><path style="opacity:1" fill="#845344" d="M 379.5,538.5 C 379.045,542.814 377.379,546.481 374.5,549.5C 375.816,545.566 377.483,541.899 379.5,538.5 Z"/></g>
<g><path style="opacity:1" fill="#5b4639" d="M 444.5,536.5 C 444.5,543.167 444.5,549.833 444.5,556.5C 448.371,556.185 452.038,556.518 455.5,557.5C 451.5,557.5 447.5,557.5 443.5,557.5C 443.175,550.313 443.509,543.313 444.5,536.5 Z"/></g>
<g><path style="opacity:0.886" fill="#020201" d="M 456.5,579.5 C 459.909,579.249 463.242,579.583 466.5,580.5C 467.664,587.476 467.831,594.476 467,601.5C 466.727,603.101 466.227,604.601 465.5,606C 461.745,606.755 458.078,606.589 454.5,605.5C 450.366,604.515 446.032,604.182 441.5,604.5C 441.5,597.167 441.5,589.833 441.5,582.5C 446.491,581.915 451.491,580.915 456.5,579.5 Z"/></g>
<g><path style="opacity:1" fill="#685041" d="M 441.5,582.5 C 441.5,589.833 441.5,597.167 441.5,604.5C 446.032,604.182 450.366,604.515 454.5,605.5C 449.833,605.5 445.167,605.5 440.5,605.5C 440.175,597.648 440.508,589.982 441.5,582.5 Z"/></g>
<g><path style="opacity:1" fill="#4d3027" d="M 372.5,596.5 C 372.5,602.5 372.5,608.5 372.5,614.5C 371.833,617.5 371.167,620.5 370.5,623.5C 370.176,614.278 370.843,605.278 372.5,596.5 Z"/></g>
<g><path style="opacity:1" fill="#604a3c" d="M 453.5,627.5 C 450.038,628.482 446.371,628.815 442.5,628.5C 442.5,631.833 442.5,635.167 442.5,638.5C 441.518,635.038 441.185,631.371 441.5,627.5C 445.5,627.5 449.5,627.5 453.5,627.5 Z"/></g>
<g><path style="opacity:1" fill="#915b4a" d="M 372.5,614.5 C 372.244,627.676 371.577,640.676 370.5,653.5C 370.5,643.5 370.5,633.5 370.5,623.5C 371.167,620.5 371.833,617.5 372.5,614.5 Z"/></g>
<g><path style="opacity:1" fill="#775c4b" d="M 442.5,655.5 C 444.074,657.102 444.741,659.102 444.5,661.5C 442.926,659.898 442.259,657.898 442.5,655.5 Z"/></g>
<g><path style="opacity:1" fill="#7e5c4b" d="M 452.5,680.5 C 454.048,680.821 454.715,681.821 454.5,683.5C 422.493,683.833 390.493,683.5 358.5,682.5C 358.624,681.893 358.957,681.56 359.5,681.5C 368.318,682.493 377.318,682.827 386.5,682.5C 408.836,682.667 431.169,682.5 453.5,682C 452.944,681.617 452.611,681.117 452.5,680.5 Z"/></g>
</svg>
