<?xml version="1.0" encoding="UTF-8"?>
<!DOCTYPE svg PUBLIC "-//W3C//DTD SVG 1.1//EN" "http://www.w3.org/Graphics/SVG/1.1/DTD/svg11.dtd">
<svg xmlns="http://www.w3.org/2000/svg" version="1.1" width="512px" height="512px" style="shape-rendering:geometricPrecision; text-rendering:geometricPrecision; image-rendering:optimizeQuality; fill-rule:evenodd; clip-rule:evenodd" xmlns:xlink="http://www.w3.org/1999/xlink">
<g><path style="opacity:0.969" fill="#010100" d="M 209.5,-0.5 C 216.833,-0.5 224.167,-0.5 231.5,-0.5C 249.592,3.30464 263.759,12.9713 274,28.5C 298.806,24.4865 316.973,33.6532 328.5,56C 375.421,56.5396 403.921,79.7063 414,125.5C 416.47,142.009 413.97,157.675 406.5,172.5C 432.811,178.977 447.645,195.643 451,222.5C 469.495,236.804 475.162,255.137 468,277.5C 459.076,296.056 444.243,305.723 423.5,306.5C 408.813,331.174 387.146,341.34 358.5,337C 353.349,335.951 348.516,334.117 344,331.5C 317.333,352.167 290.667,372.833 264,393.5C 263.5,401.159 263.334,408.826 263.5,416.5C 261.167,416.5 258.833,416.5 256.5,416.5C 254.052,415.527 251.385,415.194 248.5,415.5C 248.314,405.817 248.148,396.15 248,386.5C 271.621,368.279 295.121,349.945 318.5,331.5C 322.798,328.537 326.798,325.203 330.5,321.5C 327.524,317.356 324.357,313.356 321,309.5C 314.022,313.4 307.188,317.4 300.5,321.5C 282.727,330.888 265.061,340.555 247.5,350.5C 245.668,328.54 244.668,306.54 244.5,284.5C 244.5,279.167 244.5,273.833 244.5,268.5C 238.929,266.715 233.596,264.381 228.5,261.5C 223.522,264.239 218.355,266.572 213,268.5C 211.519,283.806 211.186,299.139 212,314.5C 222.398,333.491 221.731,352.158 210,370.5C 201.288,381.211 190.122,387.711 176.5,390C 186.333,399.167 196.167,408.333 206,417.5C 206.177,437.502 205.843,457.502 205,477.5C 204.063,484.313 201.563,490.479 197.5,496C 203.491,496.499 209.491,496.666 215.5,496.5C 229.504,496.667 243.504,496.5 257.5,496C 253.06,489.514 250.727,482.347 250.5,474.5C 250.5,470.167 250.5,465.833 250.5,461.5C 253.059,461.802 255.393,461.468 257.5,460.5C 260.167,460.5 262.833,460.5 265.5,460.5C 263.22,472.91 266.554,483.41 275.5,492C 279.351,494.496 283.517,495.996 288,496.5C 288.499,501.489 288.666,506.489 288.5,511.5C 248.167,511.5 207.833,511.5 167.5,511.5C 167.5,506.167 167.5,500.833 167.5,495.5C 178.868,495.224 186.035,489.557 189,478.5C 190.407,460.517 191.073,442.517 191,424.5C 179.367,414.536 168.034,404.202 157,393.5C 144.82,408.67 129.653,412.504 111.5,405C 106.709,402.373 102.709,398.873 99.5,394.5C 74.2359,397.619 55.7359,387.952 44,365.5C 35.399,342.072 40.2323,321.905 58.5,305C 66.2229,299.2 74.8895,295.534 84.5,294C 96.6123,270.447 115.612,261.78 141.5,268C 153.228,271.729 161.895,279.062 167.5,290C 177.348,290.628 186.681,293.128 195.5,297.5C 196.34,287.838 197.007,278.172 197.5,268.5C 184.097,265.599 175.263,257.599 171,244.5C 165.2,242.565 159.534,240.231 154,237.5C 132.566,246.06 113.566,242.393 97,226.5C 90.0168,217.728 85.8501,207.728 84.5,196.5C 57.7526,182.68 45.9193,160.68 49,130.5C 50.6989,118.773 55.3655,108.44 63,99.5C 64.7742,100.965 66.6075,102.298 68.5,103.5C 70.1013,105.853 72.1013,108.02 74.5,110C 61.6154,126.781 60.1154,144.614 70,163.5C 77.4219,174.749 87.5886,182.416 100.5,186.5C 98.8334,201.315 103.833,213.149 115.5,222C 129.24,228.876 142.24,227.709 154.5,218.5C 158.667,222.087 163.334,224.92 168.5,227C 173.736,228.339 179.07,228.839 184.5,228.5C 184.951,248.556 194.951,256.39 214.5,252C 219.481,249.221 223.481,245.387 226.5,240.5C 230.185,243.191 233.852,245.858 237.5,248.5C 244.098,254.088 251.764,256.588 260.5,256C 249.95,244.326 246.783,230.826 251,215.5C 260.214,195.643 275.714,186.81 297.5,189C 304.983,181.118 313.983,178.618 324.5,181.5C 340.6,159.633 360.933,154.466 385.5,166C 387.09,167.046 388.59,168.213 390,169.5C 393.027,165.26 395.194,160.594 396.5,155.5C 403.889,124.512 394.556,99.6787 368.5,81C 352.203,72.2415 334.869,69.4081 316.5,72.5C 313.062,53.896 301.895,43.896 283,42.5C 276.961,43.08 271.127,44.2467 265.5,46C 252.417,18.9601 231.417,9.62674 202.5,18C 193.758,22.4138 186.591,28.5804 181,36.5C 177.668,43.0077 174.835,49.6744 172.5,56.5C 153.963,47.9596 138.797,51.9596 127,68.5C 124.924,71.8931 123.758,75.5598 123.5,79.5C 122.515,83.6344 122.182,87.9677 122.5,92.5C 120.167,92.5 117.833,92.5 115.5,92.5C 104.211,91.572 93.878,94.2386 84.5,100.5C 82.8394,98.1728 80.8394,96.1728 78.5,94.5C 77.2983,92.6075 75.965,90.7742 74.5,89C 84.458,81.6796 95.6246,77.5129 108,76.5C 112.61,56.5557 124.776,43.7223 144.5,38C 150.887,36.7381 157.22,36.2381 163.5,36.5C 172.931,16.7265 188.265,4.39313 209.5,-0.5 Z M 272.5,270.5 C 274.66,285.963 282.66,297.463 296.5,305C 285.243,311.88 273.743,318.38 262,324.5C 260.564,306.886 259.73,289.219 259.5,271.5C 264.032,271.818 268.366,271.485 272.5,270.5 Z"/></g>
<g><path style="opacity:1" fill="#8dde77" d="M 396.5,155.5 C 368.077,138.488 342.077,141.655 318.5,165C 309.318,165.061 300.984,167.728 293.5,173C 265.177,173.677 246.01,187.177 236,213.5C 233.697,225.306 234.197,236.972 237.5,248.5C 233.852,245.858 230.185,243.191 226.5,240.5C 223.481,245.387 219.481,249.221 214.5,252C 194.951,256.39 184.951,248.556 184.5,228.5C 179.07,228.839 173.736,228.339 168.5,227C 163.334,224.92 158.667,222.087 154.5,218.5C 142.24,227.709 129.24,228.876 115.5,222C 103.833,213.149 98.8334,201.315 100.5,186.5C 87.5886,182.416 77.4219,174.749 70,163.5C 60.1154,144.614 61.6154,126.781 74.5,110C 72.1013,108.02 70.1013,105.853 68.5,103.5C 71.859,100.471 75.1924,97.4715 78.5,94.5C 80.8394,96.1728 82.8394,98.1728 84.5,100.5C 93.878,94.2386 104.211,91.572 115.5,92.5C 117.948,93.4731 120.615,93.8064 123.5,93.5C 123.5,88.8333 123.5,84.1667 123.5,79.5C 123.758,75.5598 124.924,71.8931 127,68.5C 138.797,51.9596 153.963,47.9596 172.5,56.5C 174.835,49.6744 177.668,43.0077 181,36.5C 186.591,28.5804 193.758,22.4138 202.5,18C 231.417,9.62674 252.417,18.9601 265.5,46C 271.127,44.2467 276.961,43.08 283,42.5C 301.895,43.896 313.062,53.896 316.5,72.5C 334.869,69.4081 352.203,72.2415 368.5,81C 394.556,99.6787 403.889,124.512 396.5,155.5 Z"/></g>
<g><path style="opacity:1" fill="#507d43" d="M 123.5,79.5 C 123.5,84.1667 123.5,88.8333 123.5,93.5C 120.615,93.8064 117.948,93.4731 115.5,92.5C 117.833,92.5 120.167,92.5 122.5,92.5C 122.182,87.9677 122.515,83.6344 123.5,79.5 Z"/></g>
<g><path style="opacity:1" fill="#fcfefc" d="M 329.5,90.5 C 334.5,90.5 339.5,90.5 344.5,90.5C 344.5,95.5 344.5,100.5 344.5,105.5C 339.5,105.5 334.5,105.5 329.5,105.5C 329.5,100.5 329.5,95.5 329.5,90.5 Z"/></g>
<g><path style="opacity:1" fill="#fcfefc" d="M 359.5,105.5 C 364.5,105.5 369.5,105.5 374.5,105.5C 374.5,110.5 374.5,115.5 374.5,120.5C 369.5,120.5 364.5,120.5 359.5,120.5C 359.5,115.5 359.5,110.5 359.5,105.5 Z"/></g>
<g><path style="opacity:1" fill="#69d14c" d="M 396.5,155.5 C 395.194,160.594 393.027,165.26 390,169.5C 388.59,168.213 387.09,167.046 385.5,166C 360.933,154.466 340.6,159.633 324.5,181.5C 313.983,178.618 304.983,181.118 297.5,189C 275.714,186.81 260.214,195.643 251,215.5C 246.783,230.826 249.95,244.326 260.5,256C 251.764,256.588 244.098,254.088 237.5,248.5C 234.197,236.972 233.697,225.306 236,213.5C 246.01,187.177 265.177,173.677 293.5,173C 300.984,167.728 309.318,165.061 318.5,165C 342.077,141.655 368.077,138.488 396.5,155.5 Z"/></g>
<g><path style="opacity:1" fill="#8dde77" d="M 455.5,262.5 C 442.156,277.795 426.323,281.129 408,272.5C 405.029,278.441 402.029,284.441 399,290.5C 386.817,307.233 371.65,310.733 353.5,301C 344.588,293.342 338.588,283.842 335.5,272.5C 324.617,279.408 312.951,281.242 300.5,278C 296.722,275.888 293.222,273.388 290,270.5C 289.536,271.094 289.369,271.761 289.5,272.5C 288.237,266.958 288.904,261.458 291.5,256C 291.095,255.055 290.428,254.388 289.5,254C 270.671,251.174 262.504,240.341 265,221.5C 268.858,210.642 276.525,204.642 288,203.5C 293.614,204.445 299.114,205.779 304.5,207.5C 307.024,197.236 313.358,193.736 323.5,197C 326.5,199.167 329.5,201.333 332.5,203.5C 335.377,189.128 343.711,179.628 357.5,175C 364.179,173.849 370.512,174.849 376.5,178C 381.031,181.534 385.197,185.368 389,189.5C 412.282,185.807 427.615,195.14 435,217.5C 435.171,222.533 435.671,227.533 436.5,232.5C 449.343,238.349 455.676,248.349 455.5,262.5 Z"/></g>
<g><path style="opacity:1" fill="#fdfefd" d="M 399.5,209.5 C 404.5,209.5 409.5,209.5 414.5,209.5C 414.5,214.167 414.5,218.833 414.5,223.5C 409.5,223.5 404.5,223.5 399.5,223.5C 399.5,218.833 399.5,214.167 399.5,209.5 Z"/></g>
<g><path style="opacity:1" fill="#c67c65" d="M 244.5,284.5 C 238.974,283.101 233.64,281.101 228.5,278.5C 226.64,289.097 226.14,299.764 227,310.5C 240.116,338.58 236.283,364.08 215.5,387C 211.976,390.025 208.309,392.858 204.5,395.5C 210.158,400.989 215.991,406.323 222,411.5C 221.762,434.166 221.095,456.833 220,479.5C 218.594,485.213 217.094,490.88 215.5,496.5C 209.491,496.666 203.491,496.499 197.5,496C 201.563,490.479 204.063,484.313 205,477.5C 205.843,457.502 206.177,437.502 206,417.5C 196.167,408.333 186.333,399.167 176.5,390C 190.122,387.711 201.288,381.211 210,370.5C 221.731,352.158 222.398,333.491 212,314.5C 211.186,299.139 211.519,283.806 213,268.5C 218.355,266.572 223.522,264.239 228.5,261.5C 233.596,264.381 238.929,266.715 244.5,268.5C 244.5,273.833 244.5,279.167 244.5,284.5 Z"/></g>
<g><path style="opacity:1" fill="#68d04c" d="M 455.5,262.5 C 451.852,282.5 439.852,291.667 419.5,290C 417.782,289.654 416.115,289.154 414.5,288.5C 405.781,313.858 388.115,325.024 361.5,322C 344.721,317.054 333.721,306.221 328.5,289.5C 314.704,296.704 302.871,294.371 293,282.5C 291.132,279.395 289.965,276.062 289.5,272.5C 289.369,271.761 289.536,271.094 290,270.5C 293.222,273.388 296.722,275.888 300.5,278C 312.951,281.242 324.617,279.408 335.5,272.5C 338.588,283.842 344.588,293.342 353.5,301C 371.65,310.733 386.817,307.233 399,290.5C 402.029,284.441 405.029,278.441 408,272.5C 426.323,281.129 442.156,277.795 455.5,262.5 Z"/></g>
<g><path style="opacity:0.999" fill="#cf9f83" d="M 244.5,284.5 C 244.668,306.54 245.668,328.54 247.5,350.5C 265.061,340.555 282.727,330.888 300.5,321.5C 304.813,322.331 309.147,323.164 313.5,324C 315.415,326.4 317.081,328.9 318.5,331.5C 295.121,349.945 271.621,368.279 248,386.5C 248.148,396.15 248.314,405.817 248.5,415.5C 251.385,415.194 254.052,415.527 256.5,416.5C 256.5,421.167 256.5,425.833 256.5,430.5C 254.393,431.468 252.059,431.802 249.5,431.5C 249.5,436.5 249.5,441.5 249.5,446.5C 252.167,446.5 254.833,446.5 257.5,446.5C 257.5,451.167 257.5,455.833 257.5,460.5C 254.833,460.5 252.167,460.5 249.5,460.5C 249.181,465.363 249.514,470.03 250.5,474.5C 250.727,482.347 253.06,489.514 257.5,496C 243.504,496.5 229.504,496.667 215.5,496.5C 217.094,490.88 218.594,485.213 220,479.5C 221.095,456.833 221.762,434.166 222,411.5C 215.991,406.323 210.158,400.989 204.5,395.5C 208.309,392.858 211.976,390.025 215.5,387C 236.283,364.08 240.116,338.58 227,310.5C 226.14,299.764 226.64,289.097 228.5,278.5C 233.64,281.101 238.974,283.101 244.5,284.5 Z"/></g>
<g><path style="opacity:1" fill="#8dde77" d="M 204.5,339.5 C 195.708,355.062 182.374,360.895 164.5,357C 156.578,355.693 149.078,353.193 142,349.5C 141.829,357.204 140.162,364.537 137,371.5C 131.328,377.562 125.162,378.062 118.5,373C 115.263,369.028 113.263,364.528 112.5,359.5C 105.936,361.14 99.2694,362.14 92.5,362.5C 81.7579,362.712 72.9245,358.712 66,350.5C 62.6432,344.519 59.8099,338.519 57.5,332.5C 65.086,315.867 78.086,308.2 96.5,309.5C 100.757,288.86 113.423,279.694 134.5,282C 146.802,285.803 154.469,293.969 157.5,306.5C 178.49,302.911 193.657,310.578 203,329.5C 204.043,332.757 204.543,336.09 204.5,339.5 Z"/></g>
<g><path style="opacity:1" fill="#c47b64" d="M 318.5,331.5 C 317.081,328.9 315.415,326.4 313.5,324C 309.147,323.164 304.813,322.331 300.5,321.5C 307.188,317.4 314.022,313.4 321,309.5C 324.357,313.356 327.524,317.356 330.5,321.5C 326.798,325.203 322.798,328.537 318.5,331.5 Z"/></g>
<g><path style="opacity:1" fill="#68d04c" d="M 57.5,332.5 C 59.8099,338.519 62.6432,344.519 66,350.5C 72.9245,358.712 81.7579,362.712 92.5,362.5C 99.2694,362.14 105.936,361.14 112.5,359.5C 113.263,364.528 115.263,369.028 118.5,373C 125.162,378.062 131.328,377.562 137,371.5C 140.162,364.537 141.829,357.204 142,349.5C 149.078,353.193 156.578,355.693 164.5,357C 182.374,360.895 195.708,355.062 204.5,339.5C 203.024,361.31 191.358,373.31 169.5,375.5C 161.866,374.509 154.532,372.509 147.5,369.5C 147.621,386.55 139.288,394.384 122.5,393C 120.004,391.92 117.67,390.586 115.5,389C 112.533,384.89 109.699,380.723 107,376.5C 85.3965,384.522 69.0632,378.522 58,358.5C 54.9637,349.829 54.797,341.163 57.5,332.5 Z"/></g>
<g><path style="opacity:0.95" fill="#020201" d="M 256.5,430.5 C 259.167,430.5 261.833,430.5 264.5,430.5C 264.5,435.833 264.5,441.167 264.5,446.5C 262.167,446.5 259.833,446.5 257.5,446.5C 254.833,446.5 252.167,446.5 249.5,446.5C 249.5,441.5 249.5,436.5 249.5,431.5C 252.059,431.802 254.393,431.468 256.5,430.5 Z"/></g>
<g><path style="opacity:1" fill="#6e5546" d="M 257.5,460.5 C 255.393,461.468 253.059,461.802 250.5,461.5C 250.5,465.833 250.5,470.167 250.5,474.5C 249.514,470.03 249.181,465.363 249.5,460.5C 252.167,460.5 254.833,460.5 257.5,460.5 Z"/></g>
</svg>
