<?xml version="1.0" encoding="UTF-8"?>
<!DOCTYPE svg PUBLIC "-//W3C//DTD SVG 1.1//EN" "http://www.w3.org/Graphics/SVG/1.1/DTD/svg11.dtd">
<svg xmlns="http://www.w3.org/2000/svg" version="1.1" width="512px" height="512px" style="shape-rendering:geometricPrecision; text-rendering:geometricPrecision; image-rendering:optimizeQuality; fill-rule:evenodd; clip-rule:evenodd" xmlns:xlink="http://www.w3.org/1999/xlink">
<g><path style="opacity:0.968" fill="#010201" d="M 244.5,-0.5 C 253.167,-0.5 261.833,-0.5 270.5,-0.5C 297.349,4.84667 317.682,19.3467 331.5,43C 360.152,43.0584 377.986,56.8918 385,84.5C 406.813,97.1474 420.313,115.814 425.5,140.5C 449.669,145.519 465.502,159.853 473,183.5C 474.745,192.081 475.912,200.748 476.5,209.5C 495.506,220.19 507.173,236.19 511.5,257.5C 511.5,265.167 511.5,272.833 511.5,280.5C 503.233,313.258 482.233,331.758 448.5,336C 438.408,349.514 428.075,362.847 417.5,376C 397.5,377.667 377.5,379.333 357.5,381C 337.633,399.868 317.467,418.368 297,436.5C 301.245,452.896 306.912,468.896 314,484.5C 317.52,491.194 323.02,494.86 330.5,495.5C 330.5,500.833 330.5,506.167 330.5,511.5C 312.833,511.5 295.167,511.5 277.5,511.5C 277.5,509.167 277.5,506.833 277.5,504.5C 278.473,502.052 278.806,499.385 278.5,496.5C 286.528,496.831 294.528,496.498 302.5,495.5C 300.413,492.327 298.579,488.994 297,485.5C 291.53,470.09 285.863,454.756 280,439.5C 254.333,419.167 228.667,398.833 203,378.5C 201.654,370.786 200.154,363.119 198.5,355.5C 196.229,354.637 193.895,354.637 191.5,355.5C 186.319,355.369 181.319,355.369 176.5,355.5C 178.641,366.372 180.974,377.206 183.5,388C 196.945,400.56 210.611,412.893 224.5,425C 227.551,427.714 230.218,430.714 232.5,434C 227.197,449.576 221.697,465.076 216,480.5C 214.027,485.779 211.527,490.779 208.5,495.5C 212.783,496.492 217.116,496.826 221.5,496.5C 225.167,496.5 228.833,496.5 232.5,496.5C 232.194,499.385 232.527,502.052 233.5,504.5C 233.5,506.833 233.5,509.167 233.5,511.5C 215.833,511.5 198.167,511.5 180.5,511.5C 180.5,506.167 180.5,500.833 180.5,495.5C 187.98,494.86 193.48,491.194 197,484.5C 203.886,469.169 209.552,453.502 214,437.5C 200.167,425 186.333,412.5 172.5,400C 147.167,394.333 121.833,388.667 96.5,383C 89.8742,372.25 83.3742,361.416 77,350.5C 54.1226,345.735 41.6226,331.735 39.5,308.5C 18.4332,304.43 5.09983,292.097 -0.5,271.5C -0.5,264.5 -0.5,257.5 -0.5,250.5C 4.9796,230.356 17.9796,218.023 38.5,213.5C 39.2603,183.081 53.927,162.748 82.5,152.5C 86.8099,140.694 93.9766,131.027 104,123.5C 98.83,103.36 102.33,84.8603 114.5,68C 116.992,68.579 119.325,69.7456 121.5,71.5C 123.091,73.4366 124.758,75.4366 126.5,77.5C 115.607,93.6276 114.607,110.461 123.5,128C 117.436,132.383 111.603,137.216 106,142.5C 94.7619,157.504 92.4286,173.838 99,191.5C 100.357,194.898 102.19,197.898 104.5,200.5C 107.479,205.479 111.479,209.479 116.5,212.5C 125.889,183.818 145.555,172.151 175.5,177.5C 186.704,141.465 210.704,118.965 247.5,110C 284.876,104.869 315.543,116.702 339.5,145.5C 353.39,140.016 367.057,140.683 380.5,147.5C 389.475,142.398 399.142,139.732 409.5,139.5C 408.334,134.168 406.334,129.168 403.5,124.5C 396.024,111.36 385.357,101.693 371.5,95.5C 367.221,67.0272 350.887,55.1938 322.5,60C 307.574,27.5333 282.24,12.5333 246.5,15C 217.876,21.4544 198.876,38.6211 189.5,66.5C 171.544,55.525 153.877,55.8583 136.5,67.5C 134.839,65.1728 132.839,63.1728 130.5,61.5C 129.298,59.6075 127.965,57.7742 126.5,56C 137.329,47.5567 149.663,43.39 163.5,43.5C 169.581,43.6893 175.581,44.1893 181.5,45C 195.49,20.0155 216.49,4.84884 244.5,-0.5 Z M 131.5,324.5 C 137.15,330.655 143.15,336.822 149.5,343C 153.129,344.97 156.462,347.304 159.5,350C 161.584,360.424 163.917,370.758 166.5,381C 146.768,377.653 127.102,373.653 107.5,369C 103.167,362 98.8333,355 94.5,348C 104.199,344.638 111.866,338.638 117.5,330C 122.464,328.629 127.131,326.796 131.5,324.5 Z M 293.5,324.5 C 300.987,330.477 308.654,336.31 316.5,342C 315.107,345.399 313.94,348.899 313,352.5C 305.105,359.196 296.938,365.529 288.5,371.5C 283.51,366.342 278.677,361.009 274,355.5C 273.169,348.476 273.336,341.476 274.5,334.5C 281.898,332.97 288.231,329.637 293.5,324.5 Z M 410.5,326.5 C 416.584,329.538 422.917,332.038 429.5,334C 423.024,342.643 416.357,351.143 409.5,359.5C 408.624,360.251 407.624,360.751 406.5,361C 392.469,361.989 378.469,363.156 364.5,364.5C 365.244,359.781 366.244,355.114 367.5,350.5C 384.435,346.873 398.769,338.873 410.5,326.5 Z M 240.5,328.5 C 245.731,331.688 251.398,333.688 257.5,334.5C 257.334,343.506 257.5,352.506 258,361.5C 263.459,368.627 269.292,375.461 275.5,382C 268.025,387.308 260.692,392.808 253.5,398.5C 241.424,388.713 229.258,379.046 217,369.5C 215.832,363.662 214.666,357.828 213.5,352C 224.497,346.506 233.497,338.672 240.5,328.5 Z"/></g>
<g><path style="opacity:1" fill="#8ddd77" d="M 403.5,124.5 C 395.259,125.56 387.259,127.56 379.5,130.5C 367.725,126.838 355.725,125.671 343.5,127C 307.598,93.3816 266.598,85.3816 220.5,103C 194.896,114.793 176.563,133.626 165.5,159.5C 136.465,160.499 116.131,174.166 104.5,200.5C 102.19,197.898 100.357,194.898 99,191.5C 92.4286,173.838 94.7619,157.504 106,142.5C 111.603,137.216 117.436,132.383 123.5,128C 114.607,110.461 115.607,93.6276 126.5,77.5C 124.758,75.4366 123.091,73.4366 121.5,71.5C 124.5,68.1667 127.5,64.8333 130.5,61.5C 132.839,63.1728 134.839,65.1728 136.5,67.5C 153.877,55.8583 171.544,55.525 189.5,66.5C 198.876,38.6211 217.876,21.4544 246.5,15C 282.24,12.5333 307.574,27.5333 322.5,60C 350.887,55.1938 367.221,67.0272 371.5,95.5C 385.357,101.693 396.024,111.36 403.5,124.5 Z"/></g>
<g><path style="opacity:1" fill="#030402" d="M 252.5,45.5 C 272.488,44.9869 281.655,54.6536 280,74.5C 274.043,87.9401 263.877,92.7735 249.5,89C 239.338,83.5108 234.838,75.0108 236,63.5C 238.592,54.7446 244.092,48.7446 252.5,45.5 Z"/></g>
<g><path style="opacity:1" fill="#f37790" d="M 255.5,60.5 C 263.147,60.3133 266.314,63.98 265,71.5C 259.919,76.9865 255.252,76.6531 251,70.5C 250.077,66.0165 251.577,62.6832 255.5,60.5 Z"/></g>
<g><path style="opacity:1" fill="#fcfefb" d="M 332.5,77.5 C 337.5,77.5 342.5,77.5 347.5,77.5C 347.5,82.5 347.5,87.5 347.5,92.5C 342.5,92.5 337.5,92.5 332.5,92.5C 332.5,87.5 332.5,82.5 332.5,77.5 Z"/></g>
<g><path style="opacity:1" fill="#040402" d="M 160.5,86.5 C 180.396,85.5611 189.563,94.8944 188,114.5C 183.705,127.233 174.872,132.733 161.5,131C 147.863,125.905 142.363,116.072 145,101.5C 148.106,94.2253 153.272,89.2253 160.5,86.5 Z"/></g>
<g><path style="opacity:1" fill="#69d14c" d="M 403.5,124.5 C 406.334,129.168 408.334,134.168 409.5,139.5C 399.142,139.732 389.475,142.398 380.5,147.5C 367.057,140.683 353.39,140.016 339.5,145.5C 315.543,116.702 284.876,104.869 247.5,110C 210.704,118.965 186.704,141.465 175.5,177.5C 145.555,172.151 125.889,183.818 116.5,212.5C 111.479,209.479 107.479,205.479 104.5,200.5C 116.131,174.166 136.465,160.499 165.5,159.5C 176.563,133.626 194.896,114.793 220.5,103C 266.598,85.3816 307.598,93.3816 343.5,127C 355.725,125.671 367.725,126.838 379.5,130.5C 387.259,127.56 395.259,125.56 403.5,124.5 Z"/></g>
<g><path style="opacity:1" fill="#f77992" d="M 163.5,101.5 C 171.775,100.706 174.942,104.373 173,112.5C 168.585,117.726 164.251,117.726 160,112.5C 158.518,107.774 159.685,104.107 163.5,101.5 Z"/></g>
<g><path style="opacity:1" fill="#8dde77" d="M 494.5,281.5 C 473.175,306.08 448.175,310.247 419.5,294C 414.737,291.202 410.237,288.036 406,284.5C 396.551,297.29 384.717,307.123 370.5,314C 355.557,318.694 341.557,316.694 328.5,308C 316.408,299.243 305.574,289.076 296,277.5C 285.208,302.663 268.042,308.496 244.5,295C 240.631,291.466 237.131,287.633 234,283.5C 226.934,296.464 217.434,307.297 205.5,316C 177.07,330.689 155.737,323.855 141.5,295.5C 140.365,284.072 143.198,273.739 150,264.5C 153.617,260.761 157.117,256.928 160.5,253C 139.029,247.882 129.529,234.382 132,212.5C 138.74,195.376 151.24,188.543 169.5,192C 174.96,194.564 180.294,197.397 185.5,200.5C 189.901,160.808 211.234,135.642 249.5,125C 286.945,119.808 315.445,133.308 335,165.5C 350.004,153.552 365.004,153.552 380,165.5C 386.675,161.079 393.842,157.579 401.5,155C 430.433,151.303 449.6,163.137 459,190.5C 459.971,199.611 459.471,208.611 457.5,217.5C 487.493,228.838 499.827,250.172 494.5,281.5 Z"/></g>
<g><path style="opacity:1" fill="#030402" d="M 253.5,162.5 C 266.779,159.89 276.279,164.557 282,176.5C 285.032,198.208 275.532,208.042 253.5,206C 240.708,199.578 236.208,189.411 240,175.5C 243.076,169.589 247.576,165.255 253.5,162.5 Z"/></g>
<g><path style="opacity:1" fill="#68d04c" d="M 113.5,314.5 C 111.593,302.587 111.093,290.587 112,278.5C 112.957,274.044 114.29,269.711 116,265.5C 116.667,263.833 116.667,262.167 116,260.5C 110.981,254.464 106.981,247.797 104,240.5C 81.4786,226.803 68.9786,206.803 66.5,180.5C 70.2201,176.456 74.5534,173.123 79.5,170.5C 80.4621,197.448 92.7955,217.114 116.5,229.5C 119.565,241.804 126.232,251.638 136.5,259C 131.842,265.484 128.676,272.651 127,280.5C 126.547,290.188 126.547,299.855 127,309.5C 122.828,312.057 118.328,313.724 113.5,314.5 Z"/></g>
<g><path style="opacity:1" fill="#fbfefa" d="M 396.5,172.5 C 401.5,172.5 406.5,172.5 411.5,172.5C 411.5,177.5 411.5,182.5 411.5,187.5C 406.5,187.5 401.5,187.5 396.5,187.5C 396.5,182.5 396.5,177.5 396.5,172.5 Z"/></g>
<g><path style="opacity:1" fill="#f37790" d="M 258.5,176.5 C 265.368,176.53 268.535,179.864 268,186.5C 265.928,191.143 262.428,192.643 257.5,191C 253.876,188.839 252.709,185.672 254,181.5C 255.025,179.313 256.525,177.646 258.5,176.5 Z"/></g>
<g><path style="opacity:1" fill="#8cdc76" d="M 66.5,180.5 C 68.9786,206.803 81.4786,226.803 104,240.5C 106.981,247.797 110.981,254.464 116,260.5C 116.667,262.167 116.667,263.833 116,265.5C 114.29,269.711 112.957,274.044 112,278.5C 111.093,290.587 111.593,302.587 113.5,314.5C 111.473,314.338 109.473,314.505 107.5,315C 98.7282,333.479 85.0615,338.479 66.5,330C 55.1485,320.105 51.8151,307.938 56.5,293.5C 38.2405,296.455 25.0738,289.788 17,273.5C 11.1603,252.347 18.3269,237.514 38.5,229C 44.1569,228.501 49.8236,228.334 55.5,228.5C 50.7838,210.39 54.4505,194.39 66.5,180.5 Z"/></g>
<g><path style="opacity:1" fill="#fbfefa" d="M 426.5,187.5 C 431.5,187.5 436.5,187.5 441.5,187.5C 441.5,192.5 441.5,197.5 441.5,202.5C 436.5,202.5 431.5,202.5 426.5,202.5C 426.5,197.5 426.5,192.5 426.5,187.5 Z"/></g>
<g><path style="opacity:1" fill="#030402" d="M 303.5,221.5 C 317.607,219.631 327.107,225.297 332,238.5C 332.833,257.667 323.667,266.833 304.5,266C 288.584,258.915 284.084,247.415 291,231.5C 294.44,227.223 298.607,223.89 303.5,221.5 Z"/></g>
<g><path style="opacity:1" fill="#030302" d="M 402.5,233.5 C 415.916,231.289 425.416,236.289 431,248.5C 433.711,260.905 429.544,270.072 418.5,276C 405.401,280.362 395.568,276.529 389,264.5C 384.78,250.28 389.28,239.946 402.5,233.5 Z"/></g>
<g><path style="opacity:1" fill="#030402" d="M 209.5,236.5 C 223.607,234.631 233.107,240.297 238,253.5C 238.833,272.667 229.667,281.833 210.5,281C 194.584,273.915 190.084,262.415 197,246.5C 200.44,242.223 204.607,238.89 209.5,236.5 Z"/></g>
<g><path style="opacity:1" fill="#f37790" d="M 306.5,236.5 C 314.161,235.663 317.661,238.996 317,246.5C 313.455,252.209 309.121,252.875 304,248.5C 301.511,243.757 302.345,239.757 306.5,236.5 Z"/></g>
<g><path style="opacity:1" fill="#030302" d="M 72.5,239.5 C 85.916,237.289 95.416,242.289 101,254.5C 103.711,266.905 99.5442,276.072 88.5,282C 75.401,286.362 65.5677,282.529 59,270.5C 54.7804,256.28 59.2804,245.946 72.5,239.5 Z"/></g>
<g><path style="opacity:1" fill="#f97a93" d="M 405.5,248.5 C 416.818,247.99 419.485,252.49 413.5,262C 402.105,262.803 399.439,258.303 405.5,248.5 Z"/></g>
<g><path style="opacity:1" fill="#f37790" d="M 212.5,251.5 C 220.161,250.663 223.661,253.996 223,261.5C 219.455,267.209 215.121,267.875 210,263.5C 207.511,258.757 208.345,254.757 212.5,251.5 Z"/></g>
<g><path style="opacity:1" fill="#f87a93" d="M 75.5,254.5 C 86.8179,253.99 89.4846,258.49 83.5,268C 72.1055,268.803 69.4388,264.303 75.5,254.5 Z"/></g>
<g><path style="opacity:1" fill="#69d04c" d="M 494.5,281.5 C 488.983,301.184 476.316,313.684 456.5,319C 438.124,322.575 422.124,318.075 408.5,305.5C 385.536,335.482 356.87,342.649 322.5,327C 310.897,320.064 302.064,310.564 296,298.5C 292.862,303.271 289.362,307.771 285.5,312C 271.833,322 258.167,322 244.5,312C 241.984,309.317 239.317,306.817 236.5,304.5C 231.927,316.154 224.594,325.654 214.5,333C 190.547,345.935 169.38,342.435 151,322.5C 144.949,314.513 141.782,305.513 141.5,295.5C 155.737,323.855 177.07,330.689 205.5,316C 217.434,307.297 226.934,296.464 234,283.5C 237.131,287.633 240.631,291.466 244.5,295C 268.042,308.496 285.208,302.663 296,277.5C 305.574,289.076 316.408,299.243 328.5,308C 341.557,316.694 355.557,318.694 370.5,314C 384.717,307.123 396.551,297.29 406,284.5C 410.237,288.036 414.737,291.202 419.5,294C 448.175,310.247 473.175,306.08 494.5,281.5 Z"/></g>
<g><path style="opacity:1" fill="#ce9e82" d="M 297.5,414.5 C 291.711,410.551 286.044,406.384 280.5,402C 279.663,400.989 279.33,399.822 279.5,398.5C 295.796,386.366 311.629,373.699 327,360.5C 328.067,356.465 329.234,352.465 330.5,348.5C 331.167,348.167 331.833,347.833 332.5,347.5C 338.805,348.679 345.138,349.679 351.5,350.5C 349.904,356.794 348.404,363.127 347,369.5C 330.63,384.707 314.13,399.707 297.5,414.5 Z"/></g>
<g><path style="opacity:1" fill="#c67c66" d="M 191.5,355.5 C 193.649,364.413 195.483,373.413 197,382.5C 214.167,397.667 231.333,412.833 248.5,428C 242.475,445.076 236.641,462.242 231,479.5C 228.328,485.517 225.161,491.184 221.5,496.5C 217.116,496.826 212.783,496.492 208.5,495.5C 211.527,490.779 214.027,485.779 216,480.5C 221.697,465.076 227.197,449.576 232.5,434C 230.218,430.714 227.551,427.714 224.5,425C 210.611,412.893 196.945,400.56 183.5,388C 180.974,377.206 178.641,366.372 176.5,355.5C 181.319,355.369 186.319,355.369 191.5,355.5 Z"/></g>
<g><path style="opacity:1" fill="#ce9f82" d="M 277.5,504.5 C 272.833,504.5 268.167,504.5 263.5,504.5C 262.527,502.052 262.194,499.385 262.5,496.5C 257.833,496.5 253.167,496.5 248.5,496.5C 248.806,499.385 248.473,502.052 247.5,504.5C 242.833,504.5 238.167,504.5 233.5,504.5C 232.527,502.052 232.194,499.385 232.5,496.5C 228.833,496.5 225.167,496.5 221.5,496.5C 225.161,491.184 228.328,485.517 231,479.5C 236.641,462.242 242.475,445.076 248.5,428C 231.333,412.833 214.167,397.667 197,382.5C 195.483,373.413 193.649,364.413 191.5,355.5C 193.895,354.637 196.229,354.637 198.5,355.5C 200.154,363.119 201.654,370.786 203,378.5C 228.667,398.833 254.333,419.167 280,439.5C 285.863,454.756 291.53,470.09 297,485.5C 298.579,488.994 300.413,492.327 302.5,495.5C 294.528,496.498 286.528,496.831 278.5,496.5C 278.806,499.385 278.473,502.052 277.5,504.5 Z"/></g>
<g><path style="opacity:1" fill="#c57b65" d="M 279.5,398.5 C 279.33,399.822 279.663,400.989 280.5,402C 286.044,406.384 291.711,410.551 297.5,414.5C 294.168,418.664 290.335,422.331 286,425.5C 280.108,420.141 273.942,415.141 267.5,410.5C 266.479,409.998 266.312,409.332 267,408.5C 271.041,404.953 275.208,401.62 279.5,398.5 Z"/></g>
<g><path style="opacity:0.969" fill="#000000" d="M 263.5,504.5 C 263.5,506.833 263.5,509.167 263.5,511.5C 258.167,511.5 252.833,511.5 247.5,511.5C 247.5,509.167 247.5,506.833 247.5,504.5C 248.473,502.052 248.806,499.385 248.5,496.5C 253.167,496.5 257.833,496.5 262.5,496.5C 262.194,499.385 262.527,502.052 263.5,504.5 Z"/></g>
</svg>
