<svg xmlns="http://www.w3.org/2000/svg" data-name="Layer 1" viewBox="0 0 512 512" id="crying-face"><circle cx="256" cy="256" r="219.5" fill="#fdd402"></circle><circle cx="185.12" cy="216" r="19.5" fill="#74563a"></circle><circle cx="327.025" cy="216" r="19.5" fill="#74563a"></circle><path fill="#4ebaea" d="M334.13043,283.02174c-.52683-2.50247-2.07329-4.63044-4.63043-4.63044s-4.1036,2.128-4.63043,4.63044C318.69565,312.34783,294,327.78261,294,357.1087a35.5,35.5,0,0,0,71,0C365,327.78261,340.30435,312.34783,334.13043,283.02174Z"></path><path fill="#2c2b2d" d="M416.51318,95.48682A227.00009,227.00009,0,0,0,95.48682,416.51367,227.00009,227.00009,0,0,0,416.51318,95.48682ZM256,468C139.103,468,44,372.89746,44,256,44,139.103,139.103,44,256,44s212,95.103,212,212C468,372.89746,372.897,468,256,468ZM189.60449,154.167a7.48215,7.48215,0,0,0-7.6333-7.36474A62.85575,62.85575,0,0,0,148.67188,156.814c-26.69434,17.40625-28.52247,48.46827-28.64307,51.95264a7.50016,7.50016,0,0,0,7.23633,7.75488c.08838.00293.17627.0044.26416.0044a7.50025,7.50025,0,0,0,7.49072-7.24072c.09277-2.6875,1.49561-26.6377,21.8457-39.90723a47.23286,47.23286,0,0,1,25.374-7.57764A7.50053,7.50053,0,0,0,189.60449,154.167ZM158.12012,216a27,27,0,1,0,27-27A27.03077,27.03077,0,0,0,158.12012,216Zm39,0a12,12,0,1,1-12-12A12.01375,12.01375,0,0,1,197.12012,216Zm166.353-59.18555a62.85486,62.85486,0,0,0-33.2998-10.0122c-.0459-.00049-.09131-.001-.13672-.001a7.50011,7.50011,0,0,0-.13183,14.999,47.232,47.232,0,0,1,25.37451,7.57813c20.34961,13.269,21.75244,37.21924,21.84521,39.90674a7.49992,7.49992,0,0,0,7.49072,7.24072c.0879,0,.17579-.00147.26416-.0044a7.50016,7.50016,0,0,0,7.23633-7.75488C391.99512,205.28223,390.167,174.22021,363.47314,156.81445ZM327.02441,243a27,27,0,1,0-27-27A27.03077,27.03077,0,0,0,327.02441,243Zm0-39a12,12,0,1,1-12,12A12.01375,12.01375,0,0,1,327.02441,204Zm14.44532,77.47656-.00049-.001c-1.333-6.33008-6.14307-10.584-11.96924-10.584s-10.63623,4.25391-11.96973,10.585c-2.49707,11.86133-8.3872,21.24512-14.62353,31.18067q-.97028,1.54576-1.94025,3.104A132.05881,132.05881,0,0,0,259.5,309.13965h-7a132.08717,132.08717,0,0,0-92.88818,38.01269,7.49981,7.49981,0,1,0,10.5166,10.69532A117.08815,117.08815,0,0,1,252.5,324.13965h7a117.265,117.265,0,0,1,33.90137,4.96509C289.38922,337.32642,286.5,346.34607,286.5,357.1084a43,43,0,1,0,86,0c0-18.31445-8.34033-31.60156-16.40674-44.45117C349.85693,302.72168,343.9668,293.33789,341.46973,281.47656ZM329.5,385.1084a28.03146,28.03146,0,0,1-28-28c0-13.99707,6.53906-24.41406,14.11084-36.47656C320.71826,312.49512,325.959,304.14648,329.5,294.168c3.541,9.97949,8.78174,18.32715,13.88916,26.46387C350.96094,332.69434,357.5,343.11133,357.5,357.1084A28.03146,28.03146,0,0,1,329.5,385.1084Z"></path></svg>