<svg xmlns="http://www.w3.org/2000/svg" viewBox="0 0 50 50" id="fresh-leaves"><path fill="#638b3f" d="M45.9 17.3c-.2-.4-.7-.5-1.1-.3-2.2 1.5-7.7 3.2-7.7 3.2-19.6 5-11.3 26.3-11.3 26.3 9.5.8 18.5-1.2 22.2-11.3 2.8-8-.8-15.6-2.1-17.9z"></path><path fill="#82af58" d="M25.7 46.5c0-1 3.5-14.3 15.6-20.7 0 0-11.2 10-15.6 20.7z"></path><path fill="#88c057" d="M9 3.7c.4-.4 1-.4 1.4 0 2.4 2.5 8.8 6.4 8.8 6.4 23.2 12.1 6.5 36.5 6.5 36.5-12.3-1.7-23-6.9-24.6-20.8C-.1 14.8 6.6 6.3 9 3.7z"></path><path fill="#638b3f" d="M25.8 46.5c.3-1.3-.2-19.1-13.5-30.7-.1-.1 11.1 15.9 13.5 30.7z"></path></svg>