<svg xmlns="http://www.w3.org/2000/svg" data-name="Layer 1" viewBox="0 0 512 512"><path fill="#ffe966" d="M264.73116,12.92751l16.59537,33.6259a9.7366,9.7366,0,0,0,7.33105,5.32633L325.766,57.2719a9.7366,9.7366,0,0,1,5.39615,16.60765l-26.85188,26.17411a9.73662,9.73662,0,0,0-2.80021,8.61817l6.33887,36.95844a9.7366,9.7366,0,0,1-14.12731,10.2641L260.53084,138.445a9.73659,9.73659,0,0,0-9.06168,0l-33.19075,17.44941a9.7366,9.7366,0,0,1-14.12731-10.2641L210.49,108.67183a9.73662,9.73662,0,0,0-2.80021-8.61817L180.83788,73.87955A9.7366,9.7366,0,0,1,186.234,57.2719l37.10839-5.39216a9.7366,9.7366,0,0,0,7.33105-5.32633l16.59537-33.6259A9.7366,9.7366,0,0,1,264.73116,12.92751Z"/><path fill="#ffe236" d="M331.16211,73.87952A9.73655,9.73655,0,0,0,325.766,57.27191l-37.1084-5.39221a9.73667,9.73667,0,0,1-7.33105-5.32629l-16.5954-33.62592a9.73656,9.73656,0,0,0-17.46228,0l-2.7821,5.63709,16.1715,32.76709a9.73676,9.73676,0,0,0,7.33106,5.32635l37.1084,5.39215a9.73656,9.73656,0,0,1,5.39612,16.60761L283.642,104.83191a9.7366,9.7366,0,0,0-2.80017,8.61816l6.33886,36.95844a10.0405,10.0405,0,0,1,.13727,2.11926l6.40369,3.36658a9.73657,9.73657,0,0,0,14.12726-10.2641L301.51,108.67181a9.73665,9.73665,0,0,1,2.80023-8.61816Z"/><path fill="#ffe966" d="M86.60566 142.34539l15.11658 30.62954a8.869 8.869 0 0 0 6.67779 4.8517l33.8017 4.91167a8.869 8.869 0 0 1 4.91531 15.12776L122.6579 221.70783a8.869 8.869 0 0 0-2.55069 7.85021l5.774 33.66512a8.869 8.869 0 0 1-12.86844 9.34947L82.77963 256.67812a8.869 8.869 0 0 0-8.2542 0L44.29227 272.57263a8.869 8.869 0 0 1-12.86844-9.34947l5.774-33.66512a8.869 8.869 0 0 0-2.55069-7.85021L10.188 197.86606a8.869 8.869 0 0 1 4.91531-15.12776l33.8017-4.91167a8.869 8.869 0 0 0 6.67779-4.8517l15.11657-30.62954A8.869 8.869 0 0 1 86.60566 142.34539zM441.30061 142.34539l15.11657 30.62954a8.869 8.869 0 0 0 6.67779 4.8517l33.8017 4.91167a8.869 8.869 0 0 1 4.91531 15.12776l-24.45914 23.84177a8.869 8.869 0 0 0-2.55069 7.85021l5.774 33.66512a8.869 8.869 0 0 1-12.86844 9.34947l-30.23316-15.89451a8.869 8.869 0 0 0-8.2542 0l-30.23316 15.89451a8.869 8.869 0 0 1-12.86844-9.34947l5.774-33.66512a8.869 8.869 0 0 0-2.55069-7.85021L364.883 197.86606a8.869 8.869 0 0 1 4.91531-15.12776L403.6 177.82663a8.869 8.869 0 0 0 6.67779-4.8517l15.11658-30.62954A8.869 8.869 0 0 1 441.30061 142.34539z"/><path fill="#ffe236" d="M147.117,197.866a8.869,8.869,0,0,0-4.91528-15.12775L108.4,177.8266a8.86891,8.86891,0,0,1-6.67779-4.85169L86.60566,142.3454a8.869,8.869,0,0,0-15.90625,0l-2.54687,5.16046c.1405.2312.28894.45349.41241.70373l15.11658,30.62958a8.86891,8.86891,0,0,0,6.67779,4.85169l33.8017,4.91168a8.869,8.869,0,0,1,4.91528,15.12775l-24.4591,23.84179a8.869,8.869,0,0,0-2.55072,7.85016l5.774,33.66516c.04694.27368.05738.53943.07959.80786l5.09266,2.67737a8.869,8.869,0,0,0,12.86847-9.34949l-5.77405-33.6651a8.86918,8.86918,0,0,1,2.55072-7.85022Z"/><path fill="#ffcd85" d="M163.66109 354.745a10.00911 10.00911 0 0 1 2.99663-4.97092 555.13038 555.13038 0 0 0 41.16863-41.39387 555.38372 555.38372 0 0 0 44.49927-56.74353 19.53578 19.53578 0 0 1 22.01538-7.47223l.41724.12976a19.67293 19.67293 0 0 1 12.572 25.70918L270 316.09433a5 5 0 0 0 4.68011 6.75972h85.12674c11.77226 0 21.79864 9.15412 22.217 20.91894a21.71113 21.71113 0 0 1-21.69653 22.50233h-.52042c11.77227 0 21.79865 9.15414 22.21695 20.919a21.7112 21.7112 0 0 1-21.69653 22.50241h-14.9942c11.77224 0 21.79861 9.15408 22.217 20.91889A21.71118 21.71118 0 0 1 345.85358 453.118H331.38a21.7107 21.7107 0 0 1 21.7107 21.71021l.00006 2.71893a21.73486 21.73486 0 0 1-19.12522 21.59992c-64.89712 7.74024-134.11482 9.62693-196.709-11.97848-.35964-.12414-6.5201-2.15262-6.49757-2.24274zM317.25651 487.1686c-.35964-.12414-6.5201-2.15262-6.49757-2.24274"/><path fill="#66c1ff" d="M0,339.74893H136.70342a25.36415,25.36415,0,0,1,25.36415,25.36415V478.07753a25.36415,25.36415,0,0,1-25.36415,25.36415H0"/><circle cx="115.759" cy="458.442" r="15" fill="#fff"/><path fill="#272a33" d="M202.45447,105.42337a2.23652,2.23652,0,0,1,.64306,1.98l-6.33886,36.959a17.23714,17.23714,0,0,0,25.00976,18.17041L254.95935,145.083a2.23433,2.23433,0,0,1,2.08106,0l33.19091,17.44971a17.23722,17.23722,0,0,0,25.00977-18.1709l-6.33887-36.959a2.23571,2.23571,0,0,1,.64258-1.979l26.852-26.17431a17.23609,17.23609,0,0,0-9.55225-29.39991l-37.10839-5.39208a2.23706,2.23706,0,0,1-1.68409-1.22413l-16.5957-33.625a17.23609,17.23609,0,0,0-30.91309-.00048L223.94714,43.2344a2.23651,2.23651,0,0,1-1.68359,1.22315l-37.10791,5.39208a17.236,17.236,0,0,0-9.55273,29.39991Zm-16.94776-39.208a2.1203,2.1203,0,0,1,1.80567-1.522l37.1084-5.39208a17.23113,17.23113,0,0,0,12.978-9.4292l16.59571-33.626a2.23631,2.23631,0,0,1,4.01074,0v.00049l16.59521,33.62451A17.23167,17.23167,0,0,0,287.579,59.3013l37.10889,5.39208a2.23631,2.23631,0,0,1,1.23877,3.81495l-26.85206,26.1748a17.23345,17.23345,0,0,0-4.95654,15.25635l6.33887,36.958a2.23656,2.23656,0,0,1-3.24512,2.35791l-33.19092-17.44971a17.23671,17.23671,0,0,0-16.042,0L214.788,149.2554a2.23648,2.23648,0,0,1-3.24511-2.35743l6.33886-36.958a17.23424,17.23424,0,0,0-4.957-15.25733l-26.852-26.17431A2.12015,2.12015,0,0,1,185.50671,66.21536Zm321.54053,137.021a16.36916,16.36916,0,0,0-9.07226-27.92041l-33.80127-4.91162a1.36983,1.36983,0,0,1-1.03125-.749l-15.11621-30.62988a16.36916,16.36916,0,0,0-29.35743,0l-15.1167,30.62988a1.36986,1.36986,0,0,1-1.03076.749l-33.80176,4.91162a16.36886,16.36886,0,0,0-9.07177,27.92041l24.459,23.8418a1.36773,1.36773,0,0,1,.39356,1.21143l-5.77393,33.665a16.36955,16.36955,0,0,0,23.751,17.25634l30.23242-15.89453a1.368,1.368,0,0,1,1.27441,0l30.2334,15.89453a16.36935,16.36935,0,0,0,23.75049-17.25634l-5.77393-33.66553a1.36766,1.36766,0,0,1,.39356-1.21094Zm-34.92969,13.10059A16.36591,16.36591,0,0,0,467.41,230.82571l5.77393,33.665a1.36873,1.36873,0,0,1-1.98633,1.44287l-30.2334-15.89453a16.3684,16.3684,0,0,0-15.23437,0l-30.23242,15.89453a1.36893,1.36893,0,0,1-1.98682-1.44287l5.77393-33.66455a16.36554,16.36554,0,0,0-4.70752-14.48926l-24.459-23.84131a1.36944,1.36944,0,0,1,.75879-2.33594l33.80225-4.91162a16.367,16.367,0,0,0,12.32422-8.9541L432.12,145.6636a1.369,1.369,0,0,1,2.45507.00049L449.69128,176.294a16.36583,16.36583,0,0,0,12.3252,8.9541l33.80127,4.91162a1.369,1.369,0,0,1,.75879,2.33545ZM29.4115,227.07815a1.36715,1.36715,0,0,1,.394,1.21143l-5.77392,33.665a16.36954,16.36954,0,0,0,23.751,17.25634L78.015,263.31643a1.368,1.368,0,0,1,1.27442,0l30.2334,15.89453a16.36935,16.36935,0,0,0,23.75049-17.25634l-5.77393-33.66553a1.36826,1.36826,0,0,1,.39307-1.21094l24.46-23.8418a16.36916,16.36916,0,0,0-9.07227-27.92041l-33.80127-4.91162a1.36984,1.36984,0,0,1-1.03125-.749l-15.1167-30.62988v.00048a16.267,16.267,0,0,0-14.67822-9.125h-.00049a16.26916,16.26916,0,0,0-14.67871,9.12452L48.8573,169.6553a1.36984,1.36984,0,0,1-1.03125.749l-33.80127,4.91162A16.36886,16.36886,0,0,0,4.953,203.23635Zm-14.335-35.98682a1.26608,1.26608,0,0,1,1.10547-.93164l33.80127-4.91162a16.36582,16.36582,0,0,0,12.32519-8.9541l15.11621-30.62988a1.369,1.369,0,0,1,2.45508-.00049v.00049L94.99646,176.294a16.367,16.367,0,0,0,12.32471,8.9541l33.80175,4.91162a1.36943,1.36943,0,0,1,.75928,2.33545l-24.46,23.8418a16.366,16.366,0,0,0-4.707,14.48877l5.77393,33.665a1.36873,1.36873,0,0,1-1.98633,1.44287l-30.2334-15.89453a16.36842,16.36842,0,0,0-15.23438,0L40.80261,265.93362a1.36893,1.36893,0,0,1-1.98681-1.44287l5.77392-33.66455a16.36535,16.36535,0,0,0-4.708-14.48926L15.42322,192.49563A1.26668,1.26668,0,0,1,15.07654,191.09133Zm123.18213,267.3501a22.5,22.5,0,1,0-22.5,22.5A22.52523,22.52523,0,0,0,138.25867,458.44143Zm-30,0a7.5,7.5,0,1,1,7.5,7.5A7.5082,7.5082,0,0,1,108.25867,458.44143ZM389.5155,343.50833c-.5415-15.52686-13.86767-28.1587-29.70556-28.1587h-81.519l16.05957-42.71142A27.17716,27.17716,0,0,0,276.976,237.12454l-.41015-.127a26.91684,26.91684,0,0,0-30.42432,10.40479A551.2863,551.2863,0,0,1,202.24207,303.377a550.48345,550.48345,0,0,1-40.3827,40.61914,32.80158,32.80158,0,0,0-25.15588-11.74756H7.49988a7.5,7.5,0,0,0,0,15H136.70349a17.88413,17.88413,0,0,1,17.86377,17.86426V478.07717a17.88413,17.88413,0,0,1-17.86377,17.86426H7.49988a7.5,7.5,0,0,0,0,15H136.70349A32.74726,32.74726,0,0,0,159.63177,501.59c20.42042,5.1131,49.46167,10.34552,92.6728,10.34461a698.75259,698.75259,0,0,0,82.55908-5.33838,29.2519,29.2519,0,0,0,25.72607-29.04688v-2.71972a29.03081,29.03081,0,0,0-4.7569-15.94855,29.26593,29.26593,0,0,0,19.212-28.529,28.782,28.782,0,0,0-4.74957-14.88684,28.98525,28.98525,0,0,0,9.41412-49.05616c.55853-.4978,1.10632-1.01147,1.63184-1.556A28.99888,28.99888,0,0,0,389.5155,343.50833ZM324.14,373.77932h35.66993c7.85058,0,14.45166,6.13281,14.71484,13.67676A14.20883,14.20883,0,0,1,360.33,402.19973H324.14a7.5,7.5,0,0,0,0,15h21.19c7.84961,0,14.45507,6.14014,14.72461,13.687A14.20793,14.20793,0,0,1,345.85,445.61965H324.14a7.5,7.5,0,1,0,0,15h7.23975a14.226,14.226,0,0,1,14.21,14.21v2.71972a14.2406,14.2406,0,0,1-12.50781,14.15283c-42.88678,5.11383-105.71338,10.10035-165.09747-3.55957a32.731,32.731,0,0,0,1.58282-10.06543V365.11282c0-.89862-.04632-1.78607-.11743-2.66669l1.47729-5.84259a2.56439,2.56439,0,0,1,.76514-1.273,565.30914,565.30914,0,0,0,41.72656-41.94971,566.35829,566.35829,0,0,0,45.104-57.51074,12.0031,12.0031,0,0,1,13.60058-4.54541l.40821.12647a12.17738,12.17738,0,0,1,7.77832,15.90869l-17.33008,46.08887a12.50165,12.50165,0,0,0,11.70019,16.90087h85.12989c7.85058,0,14.45117,6.13721,14.71484,13.687A14.21425,14.21425,0,0,1,360.33,358.77932H324.14a7.5,7.5,0,1,0,0,15Z"/></svg>