<svg id="Capa_1" enable-background="new 0 0 512 512" height="512" viewBox="0 0 512 512" width="512" xmlns="http://www.w3.org/2000/svg"><g><g><g><circle cx="256" cy="256" fill="#685e69" r="210.381"/><path d="m256 45.619c-5.044 0-10.044.189-15 .538 109.189 7.693 195.381 98.697 195.381 209.843s-86.192 202.15-195.381 209.843c4.956.349 9.956.538 15 .538 116.19 0 210.381-94.191 210.381-210.381s-94.191-210.381-210.381-210.381z" fill="#564e57"/><g><path d="m158.008 282.27c1.014-2.893 1.399-5.872 1.378-8.932-.038-5.378.407-10.84-1.143-16.044-1.243-4.175-2.948-8.249-4.824-12.19-3.404-7.152-5.863-14.534-5.953-22.498-.185-16.211 6.43-29.34 18.667-39.711 7.878-6.677 17.109-10.393 27.352-11.481 5.054-.537 9.198-2.663 12.779-6.189 2.608-2.568 5.259-5.118 8.101-7.415 9.708-7.846 20.834-11.449 33.34-11.051 10.216.325 19.197 3.951 27.529 9.58 1.422.961 2.912 1.821 4.373 2.723 4.589 2.834 9.492 3.447 14.738 2.316 8.212-1.77 16.521-2.245 24.789-.638 22.837 4.44 41.138 23.331 44.706 46.315 2.45 15.781-1.629 30.011-11.152 42.754-1.73 2.315-3.496 4.624-4.983 7.094-3.86 6.408-3.627 12.996-.293 19.514 1.397 2.73 3.198 5.25 4.703 7.929 12.662 22.541 6.3 50.373-14.81 65.322-12.653 8.96-26.478 11.229-41.419 7.701-1.362-.322-2.747-.553-4.106-.885-5.463-1.336-10.488-.138-15.236 2.619-3.563 2.069-7.113 4.209-11.174 5.127-11.605 2.623-22.063.34-31.144-7.544-1.024-.889-2.073-1.75-3.097-2.639-5.081-4.414-10.916-6.117-17.61-5.177-11.608 1.63-22.529-.631-32.667-6.407-12.491-7.118-20.907-17.561-24.467-31.569-.932-3.675-6.14-13.516 1.623-28.624z" fill="#e7efff"/><g><path d="m347.412 276.419c-3.334-6.517-3.567-13.106.293-19.514 1.488-2.469 3.253-4.779 4.983-7.094 9.524-12.744 13.602-26.974 11.152-42.754-3.568-22.984-21.869-41.875-44.706-46.315-8.268-1.608-16.577-1.132-24.789.637-.478.103-.95.175-1.423.249 21.049 5.688 37.55 23.731 40.918 45.428 2.45 15.781-1.629 30.01-11.152 42.754-1.73 2.315-3.495 4.625-4.983 7.094-3.86 6.408-3.627 12.996-.293 19.514 1.396 2.73 3.198 5.25 4.703 7.928 12.662 22.541 6.3 50.373-14.81 65.322-4.565 3.233-9.286 5.582-14.154 7.115.913.19 1.828.373 2.735.587 14.941 3.528 28.766 1.259 41.419-7.701 21.11-14.948 27.472-42.781 14.81-65.322-1.505-2.678-3.306-5.198-4.703-7.928z" fill="#d3dbfe"/></g><circle cx="256" cy="256" fill="#ffc344" r="41.378"/><path d="m256 214.622c-5.293 0-10.348 1.005-15 2.816 15.435 6.009 26.378 21.003 26.378 38.562s-10.943 32.554-26.378 38.563c4.652 1.811 9.707 2.815 15 2.815 22.853 0 41.378-18.525 41.378-41.378s-18.525-41.378-41.378-41.378z" fill="#feb237"/></g></g><g><path d="m92.055 232.172v-108.002c-24.354 30.248-40.504 67.37-45.086 108.002z" fill="#564e57"/><path d="m41.266 466.382c11.482 0 20.789-9.201 20.789-20.551v-213.659l-24.605-15-16.974 15v213.659c.001 11.35 9.308 20.551 20.79 20.551z" fill="#c86d36"/><path d="m62.055 232.172h-51.435c-1.723 0-3.12-1.381-3.12-3.084v-107.928c0-32.762 19.746-62.373 50.205-75.288 2.059-.873 4.35.62 4.35 2.834z" fill="#e7efff"/><path d="m57.705 45.872c-7.436 3.153-14.228 7.307-20.255 12.252v174.048h24.605v-183.466c0-2.214-2.291-3.707-4.35-2.834z" fill="#d3dbfe"/><path d="m50.477 301.081c7.057 32.322 21.541 61.862 41.579 86.75v-155.659h-41.579z" fill="#564e57"/><path d="m20.477 232.172v27.186h10.155c3.866 0 7 3.134 7 7v179.473c0 6.833-3.387 12.869-8.577 16.606 3.431 2.47 7.643 3.945 12.212 3.945 11.482 0 20.789-9.201 20.789-20.55v-213.66z" fill="#ac5e2e"/></g><g><path d="m466.695 466.382c11.239 0 20.349-9.035 20.349-20.18v-312.911h-40.698v312.911c0 11.145 9.111 20.18 20.349 20.18z" fill="#e7efff"/><g><g><path d="m466.695 113.633c-4.142 0-7.5-3.357-7.5-7.5v-60.515c0-4.143 3.358-7.5 7.5-7.5s7.5 3.357 7.5 7.5v60.515c0 4.142-3.358 7.5-7.5 7.5z" fill="#e7efff"/></g><path d="m487.044 136.133h-40.698v75.069c3.504 2.225 10.067 3.895 14.793 4.881 3.241.676 5.556 3.538 5.556 6.849v223.27c0 7.465-4.098 13.968-10.175 17.458 2.995 1.721 6.464 2.722 10.175 2.722 11.238 0 20.349-9.035 20.349-20.18z" fill="#d3dbfe"/><path d="m466.695 187.103c20.879 0 37.805-16.786 37.805-37.492v-43.479h-75.61v43.479c0 20.707 16.926 37.492 37.805 37.492z" fill="#e7efff"/></g></g></g><path d="m256 304.878c26.951 0 48.878-21.927 48.878-48.878s-21.927-48.878-48.878-48.878-48.878 21.927-48.878 48.878 21.927 48.878 48.878 48.878zm0-82.756c18.68 0 33.878 15.197 33.878 33.878s-15.198 33.878-33.878 33.878-33.878-15.197-33.878-33.878 15.198-33.878 33.878-33.878zm102.696 32.179c11.025-14.754 15.25-31.036 12.555-48.395-4.021-25.906-24.864-47.506-50.685-52.526-8.737-1.697-17.831-1.479-27.799.668-3.545.764-6.474.33-9.219-1.366-.504-.311-3.19-1.932-4.115-2.557-10.305-6.962-20.605-10.515-31.489-10.861-14.398-.457-27.286 3.82-38.291 12.714-3.195 2.582-6.14 5.434-8.65 7.905-2.479 2.44-5.119 3.735-8.31 4.074-11.997 1.275-22.564 5.722-31.408 13.217-14.351 12.163-21.523 27.478-21.317 45.519.092 8.107 2.215 16.253 6.68 25.634.465.978.919 1.963 1.357 2.958 1.667 3.792 6.092 5.513 9.885 3.846 3.792-1.667 5.513-6.093 3.846-9.885-.497-1.13-1.013-2.252-1.542-3.364-3.499-7.351-5.159-13.502-5.226-19.359-.154-13.549 5.085-24.64 16.017-33.904 6.506-5.515 14.344-8.793 23.295-9.744 6.559-.697 12.362-3.49 17.248-8.302 2.359-2.323 4.886-4.771 7.554-6.927 8.244-6.663 17.53-9.733 28.386-9.389 7.97.254 15.679 2.969 23.568 8.298 1.977 1.336 4.154 2.596 4.632 2.891 6.078 3.754 12.894 4.853 20.26 3.268 7.948-1.713 15.071-1.912 21.777-.607 19.732 3.837 35.657 20.327 38.727 40.103 2.082 13.411-1.107 25.551-9.748 37.114 0 .001-3.307 4.238-5.4 7.714-5.042 8.371-5.231 17.639-.545 26.801.949 1.854 1.988 3.518 2.993 5.127.666 1.065 1.293 2.071 1.848 3.058 10.677 19.007 5.258 42.879-12.605 55.527-10.598 7.506-22.165 9.637-35.357 6.523-1.699-.401-2.901-.591-4.051-.872-6.957-1.703-13.948-.551-20.785 3.419l-.529.308c-2.979 1.733-5.792 3.371-8.531 3.989-9.498 2.146-17.535.219-24.574-5.893-.943-.818-1.844-1.552-3.094-2.638-6.74-5.854-14.671-8.194-23.572-6.941-9.723 1.362-19.114-.484-27.91-5.497-17.562-10.008-19.939-24.158-21.613-29.182-1.339-4.019-3.581-10.743 1.725-21.067 1.893-3.684.441-8.205-3.243-10.099-3.683-1.893-8.205-.441-10.099 3.243-8.189 15.936-4.282 27.659-2.614 32.665.179.539 3.986 23.55 28.418 37.473 11.746 6.693 24.336 9.156 37.422 7.317 4.536-.633 8.237.448 11.648 3.411 1.528 1.327 2.527 2.145 3.099 2.642 7.998 6.944 17.071 10.435 27.077 10.434 3.437 0 6.985-.412 10.636-1.237 4.986-1.126 9.122-3.532 12.771-5.655l.518-.302c3.463-2.01 6.543-2.587 9.685-1.82 1.745.426 3.193.671 4.167.901 17.387 4.104 33.359 1.117 47.476-8.88 24.149-17.101 31.464-49.394 17.014-75.116-.725-1.289-1.476-2.492-2.202-3.656-.877-1.404-1.706-2.73-2.362-4.014-2.326-4.549-2.314-8.32.04-12.229 1.216-2.03 4.561-6.477 4.561-6.477zm145.804-216.183c-4.142 0-7.5 3.357-7.5 7.5v53.015h-22.805v-53.015c0-4.143-3.358-7.5-7.5-7.5s-7.5 3.357-7.5 7.5v53.015h-22.805v-53.015c0-4.143-3.358-7.5-7.5-7.5s-7.5 3.357-7.5 7.5v60.515 8.069c-41.186-47.987-101.509-76.082-165.39-76.082-77.176 0-147.372 40.358-186.445 105.036v-94.45c0-3.553-1.772-6.848-4.741-8.814-2.984-1.979-6.735-2.323-10.036-.926-33.277 14.109-54.778 46.372-54.778 82.193v107.929c0 5.836 4.764 10.584 10.62 10.584h2.356v206.159c0 15.467 12.69 28.051 28.29 28.051 15.599 0 28.289-12.584 28.289-28.051v-76.98c39.082 64.673 109.279 105.029 186.445 105.029 42.102 0 82.96-12.031 118.159-34.793 26.008-16.818 47.998-38.832 64.691-64.561v71.674c0 15.263 12.489 27.68 27.85 27.68 15.351 0 27.84-12.417 27.84-27.68v-261.136c10.616-8.242 17.46-21.064 17.46-35.452v-43.479-60.515c0-4.142-3.358-7.5-7.5-7.5zm-449.945 407.713c0 7.196-5.961 13.051-13.289 13.051s-13.29-5.854-13.29-13.051v-206.159h26.579zm0-221.159h-39.555v-103.513c0-27.551 15.321-52.581 39.555-65.484zm424.985 221.528c0 6.991-5.76 12.68-12.85 12.68-7.08 0-12.84-5.688-12.84-12.68v-175.2c0-4.143-3.358-7.5-7.5-7.5s-7.5 3.357-7.5 7.5v72.953c-16.22 33.663-41.364 62.185-72.836 82.538-32.766 21.189-70.809 32.389-110.014 32.389-81.33 0-154.346-48.143-186.445-122.773v-160.195c32.084-74.641 105.099-122.792 186.445-122.792 65.676 0 127.316 31.891 165.39 85.401v11.091c0 14.388 6.844 27.21 17.46 35.452v50.936c0 4.143 3.358 7.5 7.5 7.5s7.5-3.357 7.5-7.5v-43.25c4.075 1.199 8.383 1.853 12.845 1.853 4.461 0 8.77-.654 12.845-1.853zm17.46-296.589c0 16.538-13.595 29.992-30.305 29.992s-30.305-13.454-30.305-29.992v-35.979h60.61z"/></g></svg>