<svg id="Capa_1" enable-background="new 0 0 512 512" height="512" viewBox="0 0 512 512" width="512" xmlns="http://www.w3.org/2000/svg"><g><g><path d="m339.017 504.5h-228.149c-16.569 0-30-13.431-30-30v-137.105l-36.684-329.895h294.833c16.569 0 30 13.431 30 30v437c0 16.569-13.432 30-30 30z" fill="#fdf6ec"/><path d="m80.868 399.5h-63.368c-5.523 0-10-4.477-10-10v-345.316c0-20.26 16.424-36.684 36.684-36.684 20.26 0 36.684 16.424 36.684 36.684z" fill="#fae2c0"/><path d="m315.636 133.5h-183c-3.866 0-7-3.134-7-7v-47c0-3.866 3.134-7 7-7h183c3.866 0 7 3.134 7 7v47c0 3.866-3.134 7-7 7z" fill="#fae2c0"/><path d="m315.636 72.5h-30c3.866 0 7 3.134 7 7v47c0 3.866-3.134 7-7 7h30c3.866 0 7-3.134 7-7v-47c0-3.866-3.134-7-7-7z" fill="#fdd79b"/><g><g><path d="m442.651 472.539c-34.104 0-61.849-27.745-61.849-61.849s27.745-61.849 61.849-61.849 61.849 27.745 61.849 61.849-27.745 61.849-61.849 61.849zm0-93.697c-17.562 0-31.849 14.287-31.849 31.849s14.287 31.849 31.849 31.849 31.849-14.287 31.849-31.849-14.287-31.849-31.849-31.849z" fill="#e7efff"/></g><path d="m339.017 7.5h-30c16.568 0 30 13.432 30 30v242.381c0 3.866-3.134 7-7 7h-96.313c-17.673 0-32 14.327-32 32v155.619c0 10.925 2.949 21.167 8.072 30h97.241 30c16.569 0 30-13.431 30-30v-437c0-16.569-13.432-30-30-30z" fill="#fae2c0"/><path d="m393.454 504.5h-129.751c-16.569 0-30-13.431-30-30v-155.619c0-1.105.895-2 2-2h185.751c1.105 0 2 .895 2 2v155.619c0 16.569-13.432 30-30 30z" fill="#e7efff"/><path d="m421.454 316.881h-30c1.105 0 2 .895 2 2v155.619c0 16.568-13.431 30-30 30h30c16.569 0 30-13.432 30-30v-155.619c0-1.105-.896-2-2-2z" fill="#d3dbfe"/></g></g><path d="m187.636 429.381h-62c-4.142 0-7.5 3.357-7.5 7.5s3.358 7.5 7.5 7.5h62c4.142 0 7.5-3.357 7.5-7.5s-3.358-7.5-7.5-7.5zm-62-225h197c4.142 0 7.5-3.357 7.5-7.5s-3.358-7.5-7.5-7.5h-197c-4.142 0-7.5 3.357-7.5 7.5s3.358 7.5 7.5 7.5zm7-63.381h183c7.995 0 14.5-6.505 14.5-14.5v-47c0-7.995-6.505-14.5-14.5-14.5h-183c-7.995 0-14.5 6.505-14.5 14.5v47c0 7.995 6.505 14.5 14.5 14.5zm.5-61h182v46h-182zm197 176.881c0-4.143-3.358-7.5-7.5-7.5h-197c-4.142 0-7.5 3.357-7.5 7.5s3.358 7.5 7.5 7.5h197c4.142 0 7.5-3.358 7.5-7.5zm112.514 84.459c-3.946 0-7.853.342-11.696.999v-23.458c0-5.238-4.262-9.5-9.5-9.5h-44.934v-271.881c0-20.678-16.822-37.5-37.5-37.5h-294.84c-.001 0-.002 0-.003 0-24.36.004-44.177 19.823-44.177 44.184v345.316c0 9.649 7.851 17.5 17.5 17.5h55.87v67.5c0 20.678 16.822 37.5 37.5 37.5h152.83.001.002 129.75c19.157 0 34.994-14.442 37.222-33.009 3.933.689 7.934 1.049 11.975 1.049 38.24 0 69.35-31.11 69.35-69.35s-31.11-69.35-69.35-69.35zm-26.696 133.16c0 12.406-10.093 22.5-22.5 22.5h-129.75c-12.407 0-22.5-10.094-22.5-22.5v-150.119h48.088c4.142 0 7.5-3.357 7.5-7.5s-3.358-7.5-7.5-7.5h-53.588c-5.238 0-9.5 4.262-9.5 9.5v155.619c0 8.436 2.801 16.228 7.52 22.5h-122.854c-12.407 0-22.5-10.094-22.5-22.5v-137.11c0-.017-.002-.032-.002-.048v-152.215c0-4.143-3.358-7.5-7.5-7.5s-7.5 3.357-7.5 7.5v206.873h-55.868c-1.378 0-2.5-1.121-2.5-2.5v-345.316c0-16.092 13.092-29.184 29.184-29.184s29.184 13.092 29.184 29.184v105.943c0 4.143 3.358 7.5 7.5 7.5s7.5-3.357 7.5-7.5v-105.943c0-11.179-4.181-21.394-11.051-29.184h261.703c12.407 0 22.5 10.094 22.5 22.5v271.881h-37.229c-4.142 0-7.5 3.357-7.5 7.5s3.358 7.5 7.5 7.5h91.663zm15-85.148c3.561-1.971 7.542-3.012 11.696-3.012 13.427 0 24.35 10.924 24.35 24.351s-10.923 24.35-24.35 24.35c-4.154 0-8.135-1.041-11.696-3.012zm11.696 75.688c-3.967 0-7.881-.436-11.696-1.279v-15.492c3.744 1.166 7.67 1.771 11.696 1.771 21.698 0 39.35-17.652 39.35-39.35s-17.652-39.351-39.35-39.351c-4.026 0-7.953.605-11.696 1.771v-15.49c3.815-.843 7.729-1.28 11.696-1.28 29.969 0 54.35 24.382 54.35 54.351s-24.381 54.349-54.35 54.349zm-255.014-95.659h-62c-4.142 0-7.5 3.357-7.5 7.5s3.358 7.5 7.5 7.5h62c4.142 0 7.5-3.357 7.5-7.5s-3.358-7.5-7.5-7.5zm0-60h-62c-4.142 0-7.5 3.357-7.5 7.5s3.358 7.5 7.5 7.5h62c4.142 0 7.5-3.357 7.5-7.5s-3.358-7.5-7.5-7.5z"/></g></svg>