<svg xmlns="http://www.w3.org/2000/svg" enable-background="new 0 0 64 64" viewBox="0 0 64 64" id="food-platter"><path fill="#4e5293" d="M61.46,47.68h-9.89l0.91-4.13c0.07-0.29,0-0.59-0.19-0.82c-0.18-0.23-0.46-0.36-0.75-0.36h-2.69c0.07-0.62,0.11-1.24,0.11-1.87c0-9.03-7.09-16.42-15.99-16.92v-2.43l6.25-6.24c1.89-1.9,1.89-4.98,0-6.87c-0.92-0.92-2.14-1.43-3.44-1.43c-1.3,0-2.52,0.51-3.43,1.43L32,8.38l-0.35-0.34c-1.89-1.9-4.97-1.9-6.87,0c-1.89,1.89-1.89,4.97,0,6.87l6.25,6.25v2.42c-8.9,0.51-15.99,7.89-15.99,16.92c0,0.63,0.04,1.25,0.11,1.87h-2.68c-0.32,0-0.61,0.15-0.79,0.4c-0.18,0.25-0.23,0.58-0.13,0.87l1.34,4.04H2.54c-1.4,0-2.54,1.14-2.54,2.53v4.65c0,1.39,1.14,2.53,2.54,2.53h58.92c1.4,0,2.54-1.14,2.54-2.53v-4.65C64,48.82,62.86,47.68,61.46,47.68z M26.15,13.54c-1.13-1.14-1.13-2.99,0-4.13c0.57-0.57,1.32-0.86,2.07-0.86c0.74,0,1.49,0.29,2.06,0.86l1.03,1.03c0.37,0.36,1.01,0.36,1.38,0l1.03-1.03c1.1-1.1,3.02-1.1,4.12,0c1.14,1.14,1.14,2.99,0,4.13L32,19.38L26.15,13.54z M32.01,25.47c8.28,0,15.01,6.74,15.01,15.03c0,0.63-0.05,1.25-0.13,1.87H17.11c-0.08-0.62-0.13-1.24-0.13-1.87C16.98,32.21,23.72,25.47,32.01,25.47z M50.33,44.31l-0.75,3.37H14.93l-1.12-3.37H50.33z M62.06,54.86c0,0.32-0.27,0.59-0.6,0.59H2.54c-0.33,0-0.6-0.27-0.6-0.59v-4.65c0-0.33,0.27-0.59,0.6-0.59h11.69c0,0,0,0,0.01,0h47.22c0.33,0,0.6,0.26,0.6,0.59V54.86z"></path><path fill="#ff6c6c" d="M37.84,13.54L32,19.38l-5.85-5.84c-1.13-1.14-1.13-2.99,0-4.13c0.57-0.57,1.32-0.86,2.07-0.86c0.74,0,1.49,0.29,2.06,0.86l1.03,1.03c0.37,0.36,1.01,0.36,1.38,0l1.03-1.03c1.1-1.1,3.02-1.1,4.12,0C38.98,10.55,38.98,12.4,37.84,13.54z"></path><path fill="#f96262" d="M33.81,17.57L32,19.38l-5.85-5.84c-1.13-1.14-1.13-2.99,0-4.13c0.32-0.32,0.71-0.56,1.12-0.7c-0.35,1.02-0.12,2.2,0.69,3.02L33.81,17.57z"></path><path fill="#fadea2" d="M47.02,40.5c0,0.63-0.05,1.25-0.13,1.87H17.11c-0.08-0.62-0.13-1.24-0.13-1.87c0-8.29,6.74-15.03,15.03-15.03C40.29,25.47,47.02,32.21,47.02,40.5z"></path><path fill="#f4d398" d="M47.02,40.5c0,0.61-0.05,1.2-0.12,1.8c-0.93-7.4-7.25-13.14-14.89-13.14c-7.65,0-13.98,5.74-14.91,13.14c-0.07-0.6-0.12-1.19-0.12-1.8c0-8.29,6.74-15.03,15.03-15.03C40.29,25.47,47.02,32.21,47.02,40.5z"></path><polygon fill="#fbbf96" points="50.33 44.31 49.58 47.68 14.93 47.68 13.81 44.31"></polygon><path fill="#fbbf96" d="M62.06,50.21v4.65c0,0.32-0.27,0.59-0.6,0.59H2.54c-0.33,0-0.6-0.27-0.6-0.59v-4.65c0-0.33,0.27-0.59,0.6-0.59h11.69c0,0,0,0,0.01,0h47.22C61.79,49.62,62.06,49.88,62.06,50.21z"></path></svg>