<svg xmlns="http://www.w3.org/2000/svg" data-name="Layer 1" viewBox="0 0 512 512"><circle cx="256" cy="256" r="219.5" fill="#fdd402"/><path fill="#2c2b2d" d="M382.042,299.40674a7.496,7.496,0,0,0-9.21582,5.251A117.42927,117.42927,0,0,1,259.5,391h-7a117.41578,117.41578,0,0,1-113.32715-86.33447,7.49971,7.49971,0,1,0-14.46484,3.96875A132.417,132.417,0,0,0,252.5,406h7a132.58733,132.58733,0,0,0,127.793-97.37744A7.4999,7.4999,0,0,0,382.042,299.40674ZM416.51367,95.48682A227.00026,227.00026,0,0,0,95.48633,416.51318,227.00026,227.00026,0,0,0,416.51367,95.48682ZM256,468C139.10254,468,44,372.897,44,256S139.10254,44,256,44s212,95.103,212,212S372.89746,468,256,468ZM137.5,202a7.49974,7.49974,0,0,0,7.5-7.5,20.5,20.5,0,0,1,41,0,7.5,7.5,0,0,0,15,0,35.5,35.5,0,0,0-71,0A7.49974,7.49974,0,0,0,137.5,202Zm181,0a7.49974,7.49974,0,0,0,7.5-7.5,20.5,20.5,0,0,1,41,0,7.5,7.5,0,0,0,15,0,35.5,35.5,0,0,0-71,0A7.49974,7.49974,0,0,0,318.5,202Z"/></svg>