<svg xmlns="http://www.w3.org/2000/svg" data-name="Layer 1" viewBox="0 0 512 512"><circle cx="266.057" cy="256.5" r="219.5" fill="#fdd402"/><path fill="#e5303e" d="M57.58554 112.39912h0a2.12564 2.12564 0 0 0 2.64885-1.42142v0A25.25464 25.25464 0 0 1 91.705 94.09l.00007 0a25.25459 25.25459 0 0 1 16.88771 31.47055l-.61372 2.03516L95.63581 168.52732a7.75706 7.75706 0 0 1-9.66631 5.18714L45.03786 161.3712l-2.03516-.61372A25.25465 25.25465 0 0 1 26.115 129.2869l0-.00007A25.2546 25.2546 0 0 1 57.58554 112.39912zM413.62945 68.02094l0 0a2.12565 2.12565 0 0 0 3.00357.12413l0 0a25.25465 25.25465 0 0 1 35.685 1.47474l0 .00006a25.2546 25.2546 0 0 1-1.47474 35.685l-1.56387 1.43974-31.45287 28.95638a7.75706 7.75706 0 0 1-10.96078-.453L377.90944 103.7951l-1.43974-1.56387a25.25464 25.25464 0 0 1 1.47475-35.685l0-.00005A25.2546 25.2546 0 0 1 413.62945 68.02094zM441.62945 364.02094l0 0a2.12565 2.12565 0 0 0 3.00357.12413l0 0a25.25465 25.25465 0 0 1 35.685 1.47474l0 .00006a25.2546 25.2546 0 0 1-1.47474 35.685l-1.56387 1.43974-31.45287 28.95638a7.75706 7.75706 0 0 1-10.96078-.453L405.90944 399.7951l-1.43974-1.56387a25.25464 25.25464 0 0 1 1.47475-35.685l0 0A25.2546 25.2546 0 0 1 441.62945 364.02094z"/><path fill="#2c2b2d" d="M391.59849,299.40625a7.496,7.496,0,0,0-9.21582,5.251A117.429,117.429,0,0,1,269.0565,391h-7a117.418,117.418,0,0,1-113.32715-86.334,7.49971,7.49971,0,1,0-14.46484,3.96875A132.41724,132.41724,0,0,0,262.0565,406h7a132.58695,132.58695,0,0,0,127.793-97.37793A7.50068,7.50068,0,0,0,391.59849,299.40625ZM144.0565,202a7.49943,7.49943,0,0,0,7.5-7.5,20.5,20.5,0,0,1,41,0,7.5,7.5,0,0,0,15,0,35.5,35.5,0,0,0-71,0A7.49943,7.49943,0,0,0,144.0565,202Zm181,0a7.49943,7.49943,0,0,0,7.5-7.5,20.5,20.5,0,0,1,41,0,7.5,7.5,0,0,0,15,0,35.5,35.5,0,0,0-71,0A7.49943,7.49943,0,0,0,325.0565,202Zm160.78,158.54a32.56638,32.56638,0,0,0-14.29-9.07007,227.2139,227.2139,0,0,0-24.63989-232.03c-.05-.06006-.09009-.11987-.15015-.17993l9.17017-8.43994a32.75795,32.75795,0,0,0-40.44019-51.3A32.821,32.821,0,0,0,376.6649,58.0249,227.03421,227.03421,0,0,0,106.50108,94.0647l-.00464-.00464a32.79166,32.79166,0,0,0-51.63989,10.08008,32.75747,32.75747,0,0,0-14.02,63.7998l13.74,4.1499.00757.0022a227.01378,227.01378,0,0,0,363.501,252.00537l.01147.01245,11.25,12.22022a15.29044,15.29044,0,0,0,21.56006.88989l33.02-30.3999A32.79792,32.79792,0,0,0,485.83653,360.54ZM379.52647,76.51l.00049-.00073a7.4997,7.4997,0,0,0,8.66016-7.74951,17.76775,17.76775,0,0,1,19.92944,4.34033,9.61628,9.61628,0,0,0,13.59985.55981A17.75661,17.75661,0,0,1,445.76646,99.79l-33.02,30.38989a.25276.25276,0,0,1-.35986-.01l-30.40015-33.02A17.7744,17.7744,0,0,1,379.52647,76.51ZM45.16637,153.58008a17.75573,17.75573,0,1,1,10.25-34,9.64266,9.64266,0,0,0,12-6.43994,17.75713,17.75713,0,0,1,34,10.25976l-12.96,42.96a.21224.21224,0,0,1-.12988.15015.22365.22365,0,0,1-.18994.02ZM265.5565,468c-116.89746,0-212-95.10254-212-212a210.55765,210.55765,0,0,1,15.44214-79.56934L83.8065,180.8999a15.60483,15.60483,0,0,0,4.41992.65015,15.27108,15.27108,0,0,0,14.59009-10.86011l12.96-42.96a32.48556,32.48556,0,0,0-.729-21.06714c.11841-.10473.23877-.20556.35181-.31909a212.08571,212.08571,0,0,1,250.8955-36.91064,32.79343,32.79343,0,0,0,4.66162,37.87695l30.39014,33.02a15.29044,15.29044,0,0,0,21.56006.88989l12.75977-11.75a212.18887,212.18887,0,0,1,19.65014,221.15015,32.34107,32.34107,0,0,0-11.83008,4.8999,32.75664,32.75664,0,0,0-44.53,47.79l8.97168,9.751A210.71927,210.71927,0,0,1,265.5565,468Zm208.21-72.21-33.02,30.38989a.25313.25313,0,0,1-.35986-.01l-14.75-16.02-.00537-.00586a7.45836,7.45836,0,0,0-3.27783-3.56762l-12.367-13.42652a17.75629,17.75629,0,0,1,20.08008-28.32983,17.58031,17.58031,0,0,1,6.05,4.28A9.5731,9.5731,0,0,0,442.79649,372.2h.1001a9.53916,9.53916,0,0,0,6.81982-2.54,17.63792,17.63792,0,0,1,12.76-4.66992,18.53668,18.53668,0,0,1,2.12012.21A17.76171,17.76171,0,0,1,473.76646,395.79Z"/></svg>