<svg xmlns="http://www.w3.org/2000/svg" data-name="Layer 1" viewBox="0 0 512 512"><circle cx="256" cy="256" r="219.5" fill="#fdd402"/><rect width="82" height="30" x="215.5" y="128.765" fill="#3c3b41"/><path fill="#3c3b41" d="M421.455 269.76464H335.78855a30 30 0 0 1-29.34318-23.75677L281.5 128.76464H432.94439a30 30 0 0 1 29.70268 34.21315l-11.48936 81A30 30 0 0 1 421.455 269.76464zM91.545 269.76464h85.66648a30 30 0 0 0 29.34318-23.75677L231.5 128.76464H80.05561a30 30 0 0 0-29.70268 34.21315l11.48936 81A30 30 0 0 0 91.545 269.76464z"/><path fill="#2c2b2d" d="M291.5,136.26465h-70a7.5,7.5,0,0,1,0-15h70a7.5,7.5,0,1,1,0,15Z"/><path fill="#2c2b2d" d="M468.40283,175.80664l1.67041-11.77637a37.49978,37.49978,0,0,0-31.02832-42.26538A227.1205,227.1205,0,0,0,150.22168,55.09766a228.913,228.913,0,0,0-77.43274,66.8894,37.47814,37.47814,0,0,0-29.86218,42.04419l1.39892,9.86182a227.0249,227.0249,0,0,0,372.189,242.62158,227.18186,227.18186,0,0,0,51.88818-240.708Zm-18.46826-31.793a22.4914,22.4914,0,0,1,5.28711,17.91016l-11.49023,81.001a22.60549,22.60549,0,0,1-22.27637,19.33985h-85.667a22.60981,22.60981,0,0,1-22.00684-17.81738L290.76367,136.26465H432.94434A22.48957,22.48957,0,0,1,449.93457,144.01367ZM256,44a212.57626,212.57626,0,0,1,163.6532,77.26465H297.59668c-.03247-.00049-.064-.00488-.09668-.00488h-82c-.03271,0-.06421.00439-.09668.00488H92.34143A212.55116,212.55116,0,0,1,256,44Zm22.61816,107.25977H234.38184l3.1914-15h37.85352Zm-215.55273-7.2461a22.48957,22.48957,0,0,1,16.99023-7.749H222.23633L199.21875,244.44727a22.60981,22.60981,0,0,1-22.00684,17.81738h-85.667a22.60549,22.60549,0,0,1-22.27637-19.34082l-11.49023-80.999A22.4925,22.4925,0,0,1,63.06543,144.01367ZM256,468C139.10254,468,44,372.89746,44,256a212.40751,212.40751,0,0,1,5.27869-47.19153l5.1383,36.2218a37.67547,37.67547,0,0,0,37.12793,32.23438h85.667a37.68432,37.68432,0,0,0,36.67872-29.69629l17.29968-81.30859h50.61938l17.29969,81.30859a37.6843,37.6843,0,0,0,36.67871,29.69629h85.667a37.67546,37.67546,0,0,0,37.12793-32.2334l4.749-33.47876A212.57524,212.57524,0,0,1,468,256C468,372.89746,372.89746,468,256,468Zm66.04-124.98633a116.20964,116.20964,0,0,1-66.043,20.86231h-.18457A116.23611,116.23611,0,0,1,189.96,343.01367a7.50006,7.50006,0,0,0-8.61523,12.2793,131.39721,131.39721,0,0,0,74.44433,23.583h.208a131.37984,131.37984,0,0,0,74.6582-23.583,7.50006,7.50006,0,0,0-8.61523-12.2793Z"/></svg>