<svg xmlns="http://www.w3.org/2000/svg" data-name="Layer 1" viewBox="0 0 512 512"><circle cx="256" cy="256" r="219.5" fill="#fdd402"/><path fill="none" d="M384.5,290.5a125.12511,125.12511,0,0,1-63.75,108.99q-5.31006,3-10.93994,5.47A124.4802,124.4802,0,0,1,259.5,415.5h-7a124.52787,124.52787,0,0,1-50.32007-10.54q-5.61-2.47485-10.91992-5.46a124.77521,124.77521,0,0,1-63.76-109,291.23534,291.23534,0,0,0,128.52,30h1.48A291.16558,291.16558,0,0,0,384.5,290.5Z"/><path fill="none" d="M384.5 290.5a125.37631 125.37631 0 0 1-4.44 33.14l-.01.01a290.161 290.161 0 0 1-248.1 0h-.01a125.3945 125.3945 0 0 1-4.44-33.15 291.23618 291.23618 0 0 0 128.52 30h1.48A291.16582 291.16582 0 0 0 384.5 290.5zM320.75 399.49q-5.31006 3-10.93994 5.47A124.4802 124.4802 0 0 1 259.5 415.5h-7a124.52787 124.52787 0 0 1-50.32007-10.54q-5.61-2.47485-10.91992-5.46c14.18994-11.48 37.89-19 64.74-19S306.55005 388.02 320.75 399.49z"/><path fill="#74563a" d="M384.5,290.5a124.90978,124.90978,0,0,1-125,125h-7a124.84973,124.84973,0,0,1-125-125,291.23618,291.23618,0,0,0,128.52,30h1.48A291.16582,291.16582,0,0,0,384.5,290.5Z"/><path fill="#e5303e" d="M191.27319,399.491c3.53479,1.99,7.16968,3.82336,10.90674,5.469A124.52787,124.52787,0,0,0,252.5,415.5h7a124.4802,124.4802,0,0,0,50.31006-10.54q5.61016-2.46936,10.9209-5.4668C306.53674,388.0166,282.83911,380.5,256.00171,380.5,229.16455,380.5,205.46484,388.01978,191.27319,399.491Z"/><path fill="#fff" d="M384.5,290.5a125.37631,125.37631,0,0,1-4.44,33.14l-.01.01a290.161,290.161,0,0,1-248.1,0h-.01a125.3945,125.3945,0,0,1-4.44-33.15,291.23618,291.23618,0,0,0,128.52,30h1.48A291.16582,291.16582,0,0,0,384.5,290.5Z"/><path fill="none" d="M384.5,290.5a125.12511,125.12511,0,0,1-63.75,108.99q-5.31006,3-10.93994,5.47A124.4802,124.4802,0,0,1,259.5,415.5h-7a124.52787,124.52787,0,0,1-50.32007-10.54q-5.61-2.47485-10.91992-5.46a124.77521,124.77521,0,0,1-63.76-109,291.23534,291.23534,0,0,0,128.52,30h1.48A291.16558,291.16558,0,0,0,384.5,290.5Z"/><path fill="none" d="M384.5 290.5a125.37631 125.37631 0 0 1-4.44 33.14l-.01.01a290.161 290.161 0 0 1-248.1 0h-.01a125.3945 125.3945 0 0 1-4.44-33.15 291.23618 291.23618 0 0 0 128.52 30h1.48A291.16582 291.16582 0 0 0 384.5 290.5zM320.75 399.49q-5.31006 3-10.93994 5.47A124.4802 124.4802 0 0 1 259.5 415.5h-7a124.52787 124.52787 0 0 1-50.32007-10.54q-5.61-2.47485-10.91992-5.46c14.18994-11.48 37.89-19 64.74-19S306.55005 388.02 320.75 399.49z"/><path fill="#2c2b2d" d="M416.51318,95.48682A226.99992,226.99992,0,1,0,95.48682,416.51318,226.99992,226.99992,0,1,0,416.51318,95.48682ZM256,468C139.103,468,44,372.897,44,256S139.103,44,256,44s212,95.103,212,212S372.897,468,256,468ZM137.5,202a7.50006,7.50006,0,0,0,7.5-7.5,20.5,20.5,0,0,1,41,0,7.5,7.5,0,0,0,15,0,35.5,35.5,0,0,0-71,0A7.50006,7.50006,0,0,0,137.5,202Zm181,0a7.50006,7.50006,0,0,0,7.5-7.5,20.5,20.5,0,0,1,41,0,7.5,7.5,0,0,0,15,0,35.5,35.5,0,0,0-71,0A7.50006,7.50006,0,0,0,318.5,202Zm69.95947,82.13037a7.49875,7.49875,0,0,0-7.27832-.356A284.51645,284.51645,0,0,1,257.5,313h-1.48a284.55042,284.55042,0,0,1-125.2002-29.2251A7.4999,7.4999,0,0,0,120,290.5q0,2.23142.07422,4.45837a132.9569,132.9569,0,0,0,4.63183,30.67151l.001.00269.00049.0022a131.9252,131.9252,0,0,0,68.6366,83.4508c.03845.01929.07678.03742.11535.05664.88367.43939,1.77.87488,2.6659,1.296q1.51738.71667,3.03088,1.38507A131.47888,131.47888,0,0,0,252.5,423h7a134.8,134.8,0,0,0,13.79443-.70343,130.961,130.961,0,0,0,39.5376-10.47235c.05884-.02594.11755-.05432.17639-.08032A132.32282,132.32282,0,0,0,392,290.5,7.5003,7.5003,0,0,0,388.45947,284.13037Zm-83.69726,114.827q-.68335.286-1.36914.56445-.71046.28692-1.42456.56262c-.45533.17688-.91065.35285-1.36756.52387-.48083.18-.96325.35455-1.44592.528-.45667.16413-.91345.32782-1.37183.48609-.48681.16815-.97534.33038-1.46411.49188-.45679.15094-.91333.30194-1.37158.44708-.49365.15643-.98926.3064-1.48486.45606-.45728.13818-.91455.277-1.37354.40948-.5.14429-1.00171.28156-1.50342.41907-.45727.1253-.91406.25189-1.3728.37152-.50684.13226-1.01562.2569-1.52417.3822-.45752.11279-.91467.2273-1.37353.33447-.51294.11975-1.02771.23127-1.54224.34406-.457.10016-.91345.2027-1.37183.2973-.5205.10748-1.043.20618-1.56518.30652-.45581.08758-.91077.17816-1.36768.26025-.53015.09528-1.0625.18128-1.59424.26923-.451.07465-.90136.15277-1.35376.22211-.54077.08294-1.08374.15588-1.62622.23132-.44677.06213-.89282.12836-1.34082.18536-.55322.07044-1.10876.13013-1.66357.19269-.43921.0495-.87744.10376-1.31763.14838-.57532.05829-1.15307.10528-1.73.15521-.422.0365-.84277.07837-1.26562.11035-.603.04566-1.20826.07929-1.813.11579-.40064.02423-.80005.05432-1.2013.07446-.65966.0332-1.32165.0534-1.98327.07568-.34766.01172-.69409.03-1.04224.0387q-1.515.03791-3.03662.03845h-7q-1.5216,0-3.03687-.03845c-.35241-.00885-.70312-.02722-1.05517-.03913-.65772-.02221-1.3158-.04229-1.97156-.07519-.40881-.02057-.81579-.05121-1.224-.07593-.59631-.03607-1.19323-.06909-1.78784-.11407-.43457-.0329-.86706-.07581-1.30066-.11341-.56555-.04907-1.132-.09491-1.69592-.152-.44715-.04528-.89234-.10028-1.33838-.15063-.54883-.062-1.09814-.121-1.64526-.19061-.45459-.0578-.90723-.12494-1.3606-.188-.53455-.0744-1.06958-.14618-1.60266-.22785-.46216-.07086-.92249-.15057-1.38342-.22692-.52259-.08655-1.04566-.1709-1.56665-.26453-.46436-.08344-.92664-.17523-1.38965-.26428-.51465-.09894-1.02967-.19617-1.54273-.30207-.46484-.09588-.92773-.1997-1.39111-.30133-.50879-.11157-1.01794-.22186-1.52515-.34027-.46411-.10833-.92663-.22412-1.3894-.33819-.50269-.124-1.00562-.24707-1.50672-.37775-.46472-.12115-.92761-.24927-1.39086-.37622-.496-.13593-.99183-.27161-1.486-.41418-.46338-.13367-.925-.27375-1.38671-.41321-.49231-.14868-.98462-.29761-1.4751-.453-.45789-.14495-.91419-.29583-1.37049-.44659-.49157-.16241-.983-.32562-1.47277-.49475-.45289-.15637-.9043-.318-1.35547-.4801-.48889-.1756-.9773-.35242-1.46436-.53473-.449-.16809-.89673-.34094-1.34411-.51471q-.72931-.28337-1.4563-.57514-.66522-.2687-1.32776-.54724c-.26807-.11212-.5354-.22717-.80274-.34137C219.69849,391.86615,237.335,388,256.002,388c18.66431,0,36.29908,3.86566,49.542,10.62488C305.28345,398.73615,305.02319,398.84808,304.76221,398.95734Zm37.8247-25.37043a117.56809,117.56809,0,0,1-21.38024,16.93219C305.07166,379.48517,281.17847,373,256.002,373c-25.18383,0-49.0852,6.48932-65.22168,17.52966a116.8109,116.8109,0,0,1-46.07519-53.13672,299.92012,299.92012,0,0,0,111.31347,21.611c.50489,0,1.01612-.00147,1.52051-.00391A300.03189,300.03189,0,0,0,367.2478,337.40448,117.86129,117.86129,0,0,1,342.58691,373.58691Zm33.25049-66.56457c-.06543.46619-.14355.93011-.2146,1.39532-.15661,1.02393-.32251,2.04609-.506,3.065-.09582.53271-.19812,1.06408-.30139,1.59533q-.28346,1.45863-.60449,2.90912c-.114.516-.22632,1.03235-.34717,1.54669-.06421.27314-.13916.54352-.20532.81617a282.63574,282.63574,0,0,1-235.32007-.00251c-.06543-.27026-.13977-.53839-.20337-.80914-.12061-.51312-.23242-1.02814-.34595-1.54285q-.32007-1.45056-.60449-2.90887c-.10388-.53418-.20642-1.06854-.30273-1.60419-.18262-1.01391-.34742-2.03113-.50342-3.05-.0719-.47039-.15064-.93963-.21692-1.411-.20837-1.4812-.39563-2.96588-.54773-4.4555A299.64178,299.64178,0,0,0,256.02,328h1.519a299.80874,299.80874,0,0,0,118.84668-25.43555C376.23352,304.05487,376.046,305.54034,375.8374,307.02234Z"/></svg>