<svg xmlns="http://www.w3.org/2000/svg" data-name="Layer 1" viewBox="0 0 512 512"><circle cx="256" cy="256" r="219.5" fill="#fdd402"/><path fill="#74563a" d="M352.632,329a93.93216,93.93216,0,0,1-94,94h-5.264a93.887,93.887,0,0,1-94-94,219.00955,219.00955,0,0,0,96.647,22.56h1.113A218.9567,218.9567,0,0,0,352.632,329Z"/><path fill="#e5303e" d="M296.46509 415.06641v.00744A93.60723 93.60723 0 0 1 258.632 423h-5.264a93.64367 93.64367 0 0 1-37.84067-7.92615C216.69308 413.34448 230.40585 393.75623 255.5 393.5 281.213 393.23755 295.41644 413.51172 296.46509 415.06641zM151.37464 154.07164v0a3.28836 3.28836 0 0 1-3.948 2.45764h0A39.06837 39.06837 0 0 0 100.52129 185.728l0 .00011A39.06832 39.06832 0 0 0 129.72 232.63341l3.20285.74518 64.41628 14.98732a12 12 0 0 0 14.40715-8.96849l14.98733-64.41627.74518-3.20285A39.06838 39.06838 0 0 0 198.28 124.873l-.00011 0A39.06831 39.06831 0 0 0 151.37464 154.07164zM360.62536 154.07164v0a3.28836 3.28836 0 0 0 3.948 2.45764h0A39.06837 39.06837 0 0 1 411.47871 185.728l0 .00011a39.06832 39.06832 0 0 1-29.19868 46.90528l-3.20285.74518-64.41628 14.98732a12 12 0 0 1-14.40715-8.96849l-14.98733-64.41627-.74518-3.20285A39.06838 39.06838 0 0 1 313.72 124.873l.00011 0A39.06831 39.06831 0 0 1 360.62536 154.07164z"/><path fill="#2c2b2d" d="M416.51318,95.48682A226.99992,226.99992,0,1,0,95.48682,416.51318,226.99992,226.99992,0,1,0,416.51318,95.48682ZM256,468C139.103,468,44,372.897,44,256S139.103,44,256,44s212,95.103,212,212S372.897,468,256,468ZM356.5918,322.63037a7.501,7.501,0,0,0-7.27881-.356,212.08594,212.08594,0,0,1-92.18506,21.78565h-1.11279A212.11358,212.11358,0,0,1,162.688,322.2749,7.5002,7.5002,0,0,0,151.86816,329a101.36483,101.36483,0,0,0,60.63526,92.937,100.72459,100.72459,0,0,0,40.86474,8.563h5.26368q2.665,0,5.30737-.13489,3.80978-.19446,7.56647-.67157c.24481-.03088.48913-.06378.73358-.09643a101.26554,101.26554,0,0,0,58.165-28.82465A101.18513,101.18513,0,0,0,360.13184,329,7.501,7.501,0,0,0,356.5918,322.63037Zm-73.30127,89.3075q-1.33219.39624-2.6753.75036c-.16613.04358-.33343.08271-.49981.12531q-1.126.288-2.25971.54492c-.257.05835-.51416.11627-.77166.17218q-1.25868.27346-2.52546.51141c-.077.01429-.15344.03107-.23046.04517-.91456.16736-1.83344.31543-2.75458.45312-.25244.03779-.50543.07233-.75836.10785q-1.10779.15546-2.22162.28247c-.21753.02478-.43451.05237-.65241.07557q-1.38738.14739-2.78332.25122c-.20032.01483-.40149.025-.60205.03839q-1.14148.07653-2.28839.12323c-.26325.0108-.52649.02173-.79017.03015-.94616.03021-1.894.05078-2.84539.05078h-5.26368c-.95184,0-1.90026-.02057-2.84692-.05078-.26337-.00842-.52624-.01935-.78925-.03009q-1.14705-.04687-2.28875-.12317c-.20105-.01343-.40265-.02368-.60346-.03851q-1.396-.10309-2.78326-.2511c-.21906-.02332-.4372-.051-.65589-.07593q-1.11034-.12653-2.21478-.28143c-.255-.03577-.51019-.07074-.76471-.10877-.92065-.13757-1.83905-.28564-2.75305-.45276-.07709-.0141-.15344-.03076-.23047-.0451-.84418-.1568-1.68487-.32886-2.52319-.51087q-.38957-.08459-.77814-.17352-1.12819-.25607-2.2489-.54224c-.16968-.04333-.34015-.08331-.50952-.12774q-1.34354-.3524-2.67536-.75037c-.07232-.02148-.14416-.0448-.21649-.06647a40.24118,40.24118,0,0,1,55.0235-.00054C283.4364,411.89258,283.36365,411.91608,283.29053,411.93787Zm58.769-59.99891a86.57316,86.57316,0,0,1-43.481,53.78162c-6.6336-7.37939-20.95746-19.723-42.5747-19.723-.19287,0-.38672.001-.58057.00293-21.30914.21777-35.4444,12.42248-42.01581,19.73492a86.248,86.248,0,0,1-45.70343-64.669,227.21339,227.21339,0,0,0,88.311,17.99365h1.15234a227.34591,227.34591,0,0,0,87.12793-17.99512A86.47133,86.47133,0,0,1,342.05957,351.939ZM200.0957,256.18506a19.51821,19.51821,0,0,0,18.95508-15.08789L234.7832,173.478a46.56926,46.56926,0,0,0-89.6289-25.00147,46.57044,46.57044,0,0,0-17.13379,91.46192l67.61865,15.73193A19.63393,19.63393,0,0,0,200.0957,256.18506Zm-92.26953-68.75781a31.60064,31.60064,0,0,1,30.687-24.42627,31.8306,31.8306,0,0,1,7.21338.833,10.80288,10.80288,0,0,0,12.95264-8.062v-.00049a31.56851,31.56851,0,0,1,61.49463,14.30713l-15.73291,67.61963a4.50018,4.50018,0,0,1-5.40235,3.3628l-67.61914-15.73243A31.60476,31.60476,0,0,1,107.82617,187.42725Zm310.957-3.39844a46.57468,46.57468,0,0,0-51.9375-35.55225A46.56926,46.56926,0,0,0,277.2168,173.478l15.73193,67.61865a19.51895,19.51895,0,0,0,18.95557,15.08838,19.63393,19.63393,0,0,0,4.45654-.51465L383.98,239.938A46.62,46.62,0,0,0,418.7832,184.02881Zm-50.853-31.65723v.00049l-.00293-.01318Zm12.65087,72.95655L312.96143,241.061a4.50081,4.50081,0,0,1-5.40284-3.36329l-15.73242-67.61914a31.56851,31.56851,0,1,1,61.49463-14.30713v.00049a10.80016,10.80016,0,0,0,12.95215,8.062,31.56839,31.56839,0,0,1,14.3081,61.49415Z"/></svg>