<svg xmlns="http://www.w3.org/2000/svg" data-name="Layer 1" viewBox="0 0 512 512"><circle cx="256" cy="256" r="219.5" fill="#fdd402"/><path fill="#fff" d="M384.5,293.5a125.37631,125.37631,0,0,1-4.44,33.14q-1.11,4.03492-2.47,7.95a122.44172,122.44172,0,0,1-8.99,19.96A124.87049,124.87049,0,0,1,259.5,418.5h-7a125.11285,125.11285,0,0,1-118.09-83.91c-.91-2.61-1.73-5.25-2.47-7.94a125.3945,125.3945,0,0,1-4.44-33.15,291.23642,291.23642,0,0,0,128.52,30h1.48A291.16558,291.16558,0,0,0,384.5,293.5Z"/><path fill="#2c2b2d" d="M416.51318,95.48682A226.99992,226.99992,0,1,0,95.48682,416.51318,226.99992,226.99992,0,1,0,416.51318,95.48682ZM256,468C139.103,468,44,372.897,44,256S139.103,44,256,44s212,95.103,212,212S372.897,468,256,468ZM137.5,202a7.50006,7.50006,0,0,0,7.5-7.5,20.5,20.5,0,0,1,41,0,7.5,7.5,0,0,0,15,0,35.5,35.5,0,0,0-71,0A7.50006,7.50006,0,0,0,137.5,202Zm181,0a7.50006,7.50006,0,0,0,7.5-7.5,20.5,20.5,0,0,1,41,0,7.5,7.5,0,0,0,15,0,35.5,35.5,0,0,0-71,0A7.50006,7.50006,0,0,0,318.5,202Zm69.95947,85.13037a7.49875,7.49875,0,0,0-7.27832-.356A284.51645,284.51645,0,0,1,257.5,316h-1.48a284.55042,284.55042,0,0,1-125.2002-29.2251A7.4999,7.4999,0,0,0,120,293.5a132.31839,132.31839,0,0,0,79.15625,121.32324A131.47888,131.47888,0,0,0,252.5,426h7a132.17,132.17,0,0,0,93.69336-38.80664,132.91421,132.91421,0,0,0,26.87469-38.68561c.05463-.10821.09723-.22253.14673-.33368a131.27893,131.27893,0,0,0,7.07917-19.55395A133.06894,133.06894,0,0,0,392,293.5,7.5003,7.5003,0,0,0,388.45947,287.13037Zm-45.87256,89.45654A117.16847,117.16847,0,0,1,259.5,411h-7a117.543,117.543,0,0,1-97.04395-51.113,300.46475,300.46475,0,0,0,100.59424,17.54712c.49512,0,.99317-.00146,1.48828-.0039a300.45028,300.45028,0,0,0,98.86988-17.4914A117.94989,117.94989,0,0,1,342.58691,376.58691Zm30.23975-51.9292a116.16057,116.16057,0,0,1-5.13647,14.741,282.28311,282.28311,0,0,1-223.40894-.01379,116.93326,116.93326,0,0,1-8.66748-33.819A299.64178,299.64178,0,0,0,256.02,331h1.519a299.80874,299.80874,0,0,0,118.84668-25.43555A117.59713,117.59713,0,0,1,372.82666,324.65771Z"/></svg>