<?xml version="1.0" standalone="no"?>
<svg xmlns="http://www.w3.org/2000/svg" width="300" height="300"><defs><clipPath id="clip-path-dot-color"><rect x="5" y="85" width="10" height="10" transform="rotate(0,10,90)"/><rect x="5" y="95" width="10" height="10" transform="rotate(0,10,100)"/><rect x="5" y="105" width="10" height="10" transform="rotate(0,10,110)"/><rect x="5" y="125" width="10" height="10" transform="rotate(0,10,130)"/><rect x="5" y="145" width="10" height="10" transform="rotate(0,10,150)"/><rect x="5" y="155" width="10" height="10" transform="rotate(0,10,160)"/><rect x="5" y="175" width="10" height="10" transform="rotate(0,10,180)"/><rect x="5" y="185" width="10" height="10" transform="rotate(0,10,190)"/><rect x="5" y="195" width="10" height="10" transform="rotate(0,10,200)"/><rect x="15" y="85" width="10" height="10" transform="rotate(0,20,90)"/><rect x="15" y="105" width="10" height="10" transform="rotate(0,20,110)"/><rect x="15" y="135" width="10" height="10" transform="rotate(0,20,140)"/><rect x="15" y="155" width="10" height="10" transform="rotate(0,20,160)"/><rect x="15" y="165" width="10" height="10" transform="rotate(0,20,170)"/><rect x="15" y="195" width="10" height="10" transform="rotate(0,20,200)"/><rect x="25" y="95" width="10" height="10" transform="rotate(0,30,100)"/><rect x="25" y="115" width="10" height="10" transform="rotate(0,30,120)"/><rect x="25" y="135" width="10" height="10" transform="rotate(0,30,140)"/><rect x="25" y="145" width="10" height="10" transform="rotate(0,30,150)"/><rect x="25" y="155" width="10" height="10" transform="rotate(0,30,160)"/><rect x="25" y="195" width="10" height="10" transform="rotate(0,30,200)"/><rect x="25" y="205" width="10" height="10" transform="rotate(0,30,210)"/><rect x="35" y="95" width="10" height="10" transform="rotate(0,40,100)"/><rect x="35" y="135" width="10" height="10" transform="rotate(0,40,140)"/><rect x="35" y="155" width="10" height="10" transform="rotate(0,40,160)"/><rect x="35" y="175" width="10" height="10" transform="rotate(0,40,180)"/><rect x="35" y="195" width="10" height="10" transform="rotate(0,40,200)"/><rect x="35" y="205" width="10" height="10" transform="rotate(0,40,210)"/><rect x="45" y="95" width="10" height="10" transform="rotate(0,50,100)"/><rect x="45" y="105" width="10" height="10" transform="rotate(0,50,110)"/><rect x="45" y="115" width="10" height="10" transform="rotate(0,50,120)"/><rect x="45" y="125" width="10" height="10" transform="rotate(0,50,130)"/><rect x="45" y="135" width="10" height="10" transform="rotate(0,50,140)"/><rect x="45" y="145" width="10" height="10" transform="rotate(0,50,150)"/><rect x="45" y="155" width="10" height="10" transform="rotate(0,50,160)"/><rect x="45" y="185" width="10" height="10" transform="rotate(0,50,190)"/><rect x="45" y="195" width="10" height="10" transform="rotate(0,50,200)"/><rect x="45" y="205" width="10" height="10" transform="rotate(0,50,210)"/><rect x="55" y="95" width="10" height="10" transform="rotate(0,60,100)"/><rect x="55" y="105" width="10" height="10" transform="rotate(0,60,110)"/><rect x="55" y="115" width="10" height="10" transform="rotate(0,60,120)"/><rect x="55" y="135" width="10" height="10" transform="rotate(0,60,140)"/><rect x="55" y="165" width="10" height="10" transform="rotate(0,60,170)"/><rect x="55" y="185" width="10" height="10" transform="rotate(0,60,190)"/><rect x="65" y="85" width="10" height="10" transform="rotate(0,70,90)"/><rect x="65" y="105" width="10" height="10" transform="rotate(0,70,110)"/><rect x="65" y="125" width="10" height="10" transform="rotate(0,70,130)"/><rect x="65" y="145" width="10" height="10" transform="rotate(0,70,150)"/><rect x="65" y="165" width="10" height="10" transform="rotate(0,70,170)"/><rect x="65" y="185" width="10" height="10" transform="rotate(0,70,190)"/><rect x="65" y="205" width="10" height="10" transform="rotate(0,70,210)"/><rect x="75" y="95" width="10" height="10" transform="rotate(0,80,100)"/><rect x="75" y="115" width="10" height="10" transform="rotate(0,80,120)"/><rect x="75" y="125" width="10" height="10" transform="rotate(0,80,130)"/><rect x="75" y="145" width="10" height="10" transform="rotate(0,80,150)"/><rect x="75" y="195" width="10" height="10" transform="rotate(0,80,200)"/><rect x="85" y="15" width="10" height="10" transform="rotate(0,90,20)"/><rect x="85" y="65" width="10" height="10" transform="rotate(0,90,70)"/><rect x="85" y="75" width="10" height="10" transform="rotate(0,90,80)"/><rect x="85" y="85" width="10" height="10" transform="rotate(0,90,90)"/><rect x="85" y="115" width="10" height="10" transform="rotate(0,90,120)"/><rect x="85" y="125" width="10" height="10" transform="rotate(0,90,130)"/><rect x="85" y="145" width="10" height="10" transform="rotate(0,90,150)"/><rect x="85" y="185" width="10" height="10" transform="rotate(0,90,190)"/><rect x="85" y="215" width="10" height="10" transform="rotate(0,90,220)"/><rect x="85" y="275" width="10" height="10" transform="rotate(0,90,280)"/><rect x="85" y="285" width="10" height="10" transform="rotate(0,90,290)"/><rect x="95" y="25" width="10" height="10" transform="rotate(0,100,30)"/><rect x="95" y="55" width="10" height="10" transform="rotate(0,100,60)"/><rect x="95" y="85" width="10" height="10" transform="rotate(0,100,90)"/><rect x="95" y="95" width="10" height="10" transform="rotate(0,100,100)"/><rect x="95" y="105" width="10" height="10" transform="rotate(0,100,110)"/><rect x="95" y="155" width="10" height="10" transform="rotate(0,100,160)"/><rect x="95" y="205" width="10" height="10" transform="rotate(0,100,210)"/><rect x="95" y="235" width="10" height="10" transform="rotate(0,100,240)"/><rect x="95" y="245" width="10" height="10" transform="rotate(0,100,250)"/><rect x="95" y="265" width="10" height="10" transform="rotate(0,100,270)"/><rect x="95" y="275" width="10" height="10" transform="rotate(0,100,280)"/><rect x="105" y="5" width="10" height="10" transform="rotate(0,110,10)"/><rect x="105" y="25" width="10" height="10" transform="rotate(0,110,30)"/><rect x="105" y="65" width="10" height="10" transform="rotate(0,110,70)"/><rect x="105" y="85" width="10" height="10" transform="rotate(0,110,90)"/><rect x="105" y="105" width="10" height="10" transform="rotate(0,110,110)"/><rect x="105" y="115" width="10" height="10" transform="rotate(0,110,120)"/><rect x="105" y="125" width="10" height="10" transform="rotate(0,110,130)"/><rect x="105" y="165" width="10" height="10" transform="rotate(0,110,170)"/><rect x="105" y="205" width="10" height="10" transform="rotate(0,110,210)"/><rect x="105" y="215" width="10" height="10" transform="rotate(0,110,220)"/><rect x="105" y="225" width="10" height="10" transform="rotate(0,110,230)"/><rect x="105" y="245" width="10" height="10" transform="rotate(0,110,250)"/><rect x="105" y="265" width="10" height="10" transform="rotate(0,110,270)"/><rect x="115" y="5" width="10" height="10" transform="rotate(0,120,10)"/><rect x="115" y="55" width="10" height="10" transform="rotate(0,120,60)"/><rect x="115" y="75" width="10" height="10" transform="rotate(0,120,80)"/><rect x="115" y="95" width="10" height="10" transform="rotate(0,120,100)"/><rect x="115" y="105" width="10" height="10" transform="rotate(0,120,110)"/><rect x="115" y="125" width="10" height="10" transform="rotate(0,120,130)"/><rect x="115" y="155" width="10" height="10" transform="rotate(0,120,160)"/><rect x="115" y="195" width="10" height="10" transform="rotate(0,120,200)"/><rect x="115" y="205" width="10" height="10" transform="rotate(0,120,210)"/><rect x="115" y="225" width="10" height="10" transform="rotate(0,120,230)"/><rect x="115" y="235" width="10" height="10" transform="rotate(0,120,240)"/><rect x="115" y="245" width="10" height="10" transform="rotate(0,120,250)"/><rect x="115" y="255" width="10" height="10" transform="rotate(0,120,260)"/><rect x="125" y="55" width="10" height="10" transform="rotate(0,130,60)"/><rect x="125" y="65" width="10" height="10" transform="rotate(0,130,70)"/><rect x="125" y="75" width="10" height="10" transform="rotate(0,130,80)"/><rect x="125" y="95" width="10" height="10" transform="rotate(0,130,100)"/><rect x="125" y="135" width="10" height="10" transform="rotate(0,130,140)"/><rect x="125" y="145" width="10" height="10" transform="rotate(0,130,150)"/><rect x="125" y="165" width="10" height="10" transform="rotate(0,130,170)"/><rect x="125" y="215" width="10" height="10" transform="rotate(0,130,220)"/><rect x="125" y="225" width="10" height="10" transform="rotate(0,130,230)"/><rect x="125" y="275" width="10" height="10" transform="rotate(0,130,280)"/><rect x="135" y="5" width="10" height="10" transform="rotate(0,140,10)"/><rect x="135" y="25" width="10" height="10" transform="rotate(0,140,30)"/><rect x="135" y="45" width="10" height="10" transform="rotate(0,140,50)"/><rect x="135" y="75" width="10" height="10" transform="rotate(0,140,80)"/><rect x="135" y="95" width="10" height="10" transform="rotate(0,140,100)"/><rect x="135" y="115" width="10" height="10" transform="rotate(0,140,120)"/><rect x="135" y="125" width="10" height="10" transform="rotate(0,140,130)"/><rect x="135" y="155" width="10" height="10" transform="rotate(0,140,160)"/><rect x="135" y="175" width="10" height="10" transform="rotate(0,140,180)"/><rect x="135" y="185" width="10" height="10" transform="rotate(0,140,190)"/><rect x="135" y="195" width="10" height="10" transform="rotate(0,140,200)"/><rect x="135" y="205" width="10" height="10" transform="rotate(0,140,210)"/><rect x="135" y="225" width="10" height="10" transform="rotate(0,140,230)"/><rect x="135" y="245" width="10" height="10" transform="rotate(0,140,250)"/><rect x="135" y="255" width="10" height="10" transform="rotate(0,140,260)"/><rect x="135" y="275" width="10" height="10" transform="rotate(0,140,280)"/><rect x="135" y="285" width="10" height="10" transform="rotate(0,140,290)"/><rect x="145" y="15" width="10" height="10" transform="rotate(0,150,20)"/><rect x="145" y="25" width="10" height="10" transform="rotate(0,150,30)"/><rect x="145" y="55" width="10" height="10" transform="rotate(0,150,60)"/><rect x="145" y="65" width="10" height="10" transform="rotate(0,150,70)"/><rect x="145" y="75" width="10" height="10" transform="rotate(0,150,80)"/><rect x="145" y="105" width="10" height="10" transform="rotate(0,150,110)"/><rect x="145" y="135" width="10" height="10" transform="rotate(0,150,140)"/><rect x="145" y="145" width="10" height="10" transform="rotate(0,150,150)"/><rect x="145" y="175" width="10" height="10" transform="rotate(0,150,180)"/><rect x="145" y="205" width="10" height="10" transform="rotate(0,150,210)"/><rect x="145" y="225" width="10" height="10" transform="rotate(0,150,230)"/><rect x="145" y="235" width="10" height="10" transform="rotate(0,150,240)"/><rect x="155" y="15" width="10" height="10" transform="rotate(0,160,20)"/><rect x="155" y="25" width="10" height="10" transform="rotate(0,160,30)"/><rect x="155" y="35" width="10" height="10" transform="rotate(0,160,40)"/><rect x="155" y="45" width="10" height="10" transform="rotate(0,160,50)"/><rect x="155" y="55" width="10" height="10" transform="rotate(0,160,60)"/><rect x="155" y="85" width="10" height="10" transform="rotate(0,160,90)"/><rect x="155" y="95" width="10" height="10" transform="rotate(0,160,100)"/><rect x="155" y="105" width="10" height="10" transform="rotate(0,160,110)"/><rect x="155" y="135" width="10" height="10" transform="rotate(0,160,140)"/><rect x="155" y="175" width="10" height="10" transform="rotate(0,160,180)"/><rect x="155" y="185" width="10" height="10" transform="rotate(0,160,190)"/><rect x="155" y="195" width="10" height="10" transform="rotate(0,160,200)"/><rect x="155" y="215" width="10" height="10" transform="rotate(0,160,220)"/><rect x="155" y="245" width="10" height="10" transform="rotate(0,160,250)"/><rect x="155" y="255" width="10" height="10" transform="rotate(0,160,260)"/><rect x="155" y="265" width="10" height="10" transform="rotate(0,160,270)"/><rect x="165" y="5" width="10" height="10" transform="rotate(0,170,10)"/><rect x="165" y="15" width="10" height="10" transform="rotate(0,170,20)"/><rect x="165" y="25" width="10" height="10" transform="rotate(0,170,30)"/><rect x="165" y="45" width="10" height="10" transform="rotate(0,170,50)"/><rect x="165" y="65" width="10" height="10" transform="rotate(0,170,70)"/><rect x="165" y="95" width="10" height="10" transform="rotate(0,170,100)"/><rect x="165" y="105" width="10" height="10" transform="rotate(0,170,110)"/><rect x="165" y="115" width="10" height="10" transform="rotate(0,170,120)"/><rect x="165" y="125" width="10" height="10" transform="rotate(0,170,130)"/><rect x="165" y="165" width="10" height="10" transform="rotate(0,170,170)"/><rect x="165" y="235" width="10" height="10" transform="rotate(0,170,240)"/><rect x="165" y="255" width="10" height="10" transform="rotate(0,170,260)"/><rect x="165" y="265" width="10" height="10" transform="rotate(0,170,270)"/><rect x="165" y="275" width="10" height="10" transform="rotate(0,170,280)"/><rect x="175" y="5" width="10" height="10" transform="rotate(0,180,10)"/><rect x="175" y="15" width="10" height="10" transform="rotate(0,180,20)"/><rect x="175" y="35" width="10" height="10" transform="rotate(0,180,40)"/><rect x="175" y="145" width="10" height="10" transform="rotate(0,180,150)"/><rect x="175" y="175" width="10" height="10" transform="rotate(0,180,180)"/><rect x="175" y="185" width="10" height="10" transform="rotate(0,180,190)"/><rect x="175" y="195" width="10" height="10" transform="rotate(0,180,200)"/><rect x="175" y="215" width="10" height="10" transform="rotate(0,180,220)"/><rect x="175" y="225" width="10" height="10" transform="rotate(0,180,230)"/><rect x="175" y="235" width="10" height="10" transform="rotate(0,180,240)"/><rect x="175" y="245" width="10" height="10" transform="rotate(0,180,250)"/><rect x="175" y="265" width="10" height="10" transform="rotate(0,180,270)"/><rect x="175" y="285" width="10" height="10" transform="rotate(0,180,290)"/><rect x="185" y="5" width="10" height="10" transform="rotate(0,190,10)"/><rect x="185" y="15" width="10" height="10" transform="rotate(0,190,20)"/><rect x="185" y="35" width="10" height="10" transform="rotate(0,190,40)"/><rect x="185" y="55" width="10" height="10" transform="rotate(0,190,60)"/><rect x="185" y="65" width="10" height="10" transform="rotate(0,190,70)"/><rect x="185" y="95" width="10" height="10" transform="rotate(0,190,100)"/><rect x="185" y="105" width="10" height="10" transform="rotate(0,190,110)"/><rect x="185" y="115" width="10" height="10" transform="rotate(0,190,120)"/><rect x="185" y="125" width="10" height="10" transform="rotate(0,190,130)"/><rect x="185" y="135" width="10" height="10" transform="rotate(0,190,140)"/><rect x="185" y="155" width="10" height="10" transform="rotate(0,190,160)"/><rect x="185" y="195" width="10" height="10" transform="rotate(0,190,200)"/><rect x="185" y="265" width="10" height="10" transform="rotate(0,190,270)"/><rect x="185" y="285" width="10" height="10" transform="rotate(0,190,290)"/><rect x="195" y="5" width="10" height="10" transform="rotate(0,200,10)"/><rect x="195" y="35" width="10" height="10" transform="rotate(0,200,40)"/><rect x="195" y="145" width="10" height="10" transform="rotate(0,200,150)"/><rect x="195" y="185" width="10" height="10" transform="rotate(0,200,190)"/><rect x="195" y="205" width="10" height="10" transform="rotate(0,200,210)"/><rect x="195" y="215" width="10" height="10" transform="rotate(0,200,220)"/><rect x="195" y="225" width="10" height="10" transform="rotate(0,200,230)"/><rect x="195" y="245" width="10" height="10" transform="rotate(0,200,250)"/><rect x="195" y="285" width="10" height="10" transform="rotate(0,200,290)"/><rect x="205" y="5" width="10" height="10" transform="rotate(0,210,10)"/><rect x="205" y="25" width="10" height="10" transform="rotate(0,210,30)"/><rect x="205" y="65" width="10" height="10" transform="rotate(0,210,70)"/><rect x="205" y="75" width="10" height="10" transform="rotate(0,210,80)"/><rect x="205" y="85" width="10" height="10" transform="rotate(0,210,90)"/><rect x="205" y="95" width="10" height="10" transform="rotate(0,210,100)"/><rect x="205" y="125" width="10" height="10" transform="rotate(0,210,130)"/><rect x="205" y="135" width="10" height="10" transform="rotate(0,210,140)"/><rect x="205" y="155" width="10" height="10" transform="rotate(0,210,160)"/><rect x="205" y="175" width="10" height="10" transform="rotate(0,210,180)"/><rect x="205" y="205" width="10" height="10" transform="rotate(0,210,210)"/><rect x="205" y="215" width="10" height="10" transform="rotate(0,210,220)"/><rect x="205" y="225" width="10" height="10" transform="rotate(0,210,230)"/><rect x="205" y="235" width="10" height="10" transform="rotate(0,210,240)"/><rect x="205" y="245" width="10" height="10" transform="rotate(0,210,250)"/><rect x="205" y="265" width="10" height="10" transform="rotate(0,210,270)"/><rect x="205" y="275" width="10" height="10" transform="rotate(0,210,280)"/><rect x="205" y="285" width="10" height="10" transform="rotate(0,210,290)"/><rect x="215" y="85" width="10" height="10" transform="rotate(0,220,90)"/><rect x="215" y="125" width="10" height="10" transform="rotate(0,220,130)"/><rect x="215" y="155" width="10" height="10" transform="rotate(0,220,160)"/><rect x="215" y="185" width="10" height="10" transform="rotate(0,220,190)"/><rect x="215" y="205" width="10" height="10" transform="rotate(0,220,210)"/><rect x="215" y="245" width="10" height="10" transform="rotate(0,220,250)"/><rect x="215" y="255" width="10" height="10" transform="rotate(0,220,260)"/><rect x="215" y="265" width="10" height="10" transform="rotate(0,220,270)"/><rect x="215" y="275" width="10" height="10" transform="rotate(0,220,280)"/><rect x="225" y="85" width="10" height="10" transform="rotate(0,230,90)"/><rect x="225" y="115" width="10" height="10" transform="rotate(0,230,120)"/><rect x="225" y="125" width="10" height="10" transform="rotate(0,230,130)"/><rect x="225" y="135" width="10" height="10" transform="rotate(0,230,140)"/><rect x="225" y="155" width="10" height="10" transform="rotate(0,230,160)"/><rect x="225" y="185" width="10" height="10" transform="rotate(0,230,190)"/><rect x="225" y="195" width="10" height="10" transform="rotate(0,230,200)"/><rect x="225" y="205" width="10" height="10" transform="rotate(0,230,210)"/><rect x="225" y="225" width="10" height="10" transform="rotate(0,230,230)"/><rect x="225" y="245" width="10" height="10" transform="rotate(0,230,250)"/><rect x="235" y="115" width="10" height="10" transform="rotate(0,240,120)"/><rect x="235" y="145" width="10" height="10" transform="rotate(0,240,150)"/><rect x="235" y="195" width="10" height="10" transform="rotate(0,240,200)"/><rect x="235" y="205" width="10" height="10" transform="rotate(0,240,210)"/><rect x="235" y="245" width="10" height="10" transform="rotate(0,240,250)"/><rect x="235" y="255" width="10" height="10" transform="rotate(0,240,260)"/><rect x="235" y="275" width="10" height="10" transform="rotate(0,240,280)"/><rect x="245" y="95" width="10" height="10" transform="rotate(0,250,100)"/><rect x="245" y="105" width="10" height="10" transform="rotate(0,250,110)"/><rect x="245" y="135" width="10" height="10" transform="rotate(0,250,140)"/><rect x="245" y="165" width="10" height="10" transform="rotate(0,250,170)"/><rect x="245" y="175" width="10" height="10" transform="rotate(0,250,180)"/><rect x="245" y="185" width="10" height="10" transform="rotate(0,250,190)"/><rect x="245" y="195" width="10" height="10" transform="rotate(0,250,200)"/><rect x="245" y="205" width="10" height="10" transform="rotate(0,250,210)"/><rect x="245" y="215" width="10" height="10" transform="rotate(0,250,220)"/><rect x="245" y="225" width="10" height="10" transform="rotate(0,250,230)"/><rect x="245" y="235" width="10" height="10" transform="rotate(0,250,240)"/><rect x="245" y="245" width="10" height="10" transform="rotate(0,250,250)"/><rect x="245" y="285" width="10" height="10" transform="rotate(0,250,290)"/><rect x="255" y="105" width="10" height="10" transform="rotate(0,260,110)"/><rect x="255" y="125" width="10" height="10" transform="rotate(0,260,130)"/><rect x="255" y="135" width="10" height="10" transform="rotate(0,260,140)"/><rect x="255" y="165" width="10" height="10" transform="rotate(0,260,170)"/><rect x="255" y="195" width="10" height="10" transform="rotate(0,260,200)"/><rect x="255" y="205" width="10" height="10" transform="rotate(0,260,210)"/><rect x="255" y="235" width="10" height="10" transform="rotate(0,260,240)"/><rect x="255" y="255" width="10" height="10" transform="rotate(0,260,260)"/><rect x="255" y="265" width="10" height="10" transform="rotate(0,260,270)"/><rect x="255" y="275" width="10" height="10" transform="rotate(0,260,280)"/><rect x="265" y="95" width="10" height="10" transform="rotate(0,270,100)"/><rect x="265" y="115" width="10" height="10" transform="rotate(0,270,120)"/><rect x="265" y="125" width="10" height="10" transform="rotate(0,270,130)"/><rect x="265" y="175" width="10" height="10" transform="rotate(0,270,180)"/><rect x="265" y="185" width="10" height="10" transform="rotate(0,270,190)"/><rect x="265" y="195" width="10" height="10" transform="rotate(0,270,200)"/><rect x="265" y="205" width="10" height="10" transform="rotate(0,270,210)"/><rect x="265" y="215" width="10" height="10" transform="rotate(0,270,220)"/><rect x="265" y="225" width="10" height="10" transform="rotate(0,270,230)"/><rect x="265" y="235" width="10" height="10" transform="rotate(0,270,240)"/><rect x="265" y="245" width="10" height="10" transform="rotate(0,270,250)"/><rect x="265" y="265" width="10" height="10" transform="rotate(0,270,270)"/><rect x="265" y="275" width="10" height="10" transform="rotate(0,270,280)"/><rect x="275" y="85" width="10" height="10" transform="rotate(0,280,90)"/><rect x="275" y="95" width="10" height="10" transform="rotate(0,280,100)"/><rect x="275" y="105" width="10" height="10" transform="rotate(0,280,110)"/><rect x="275" y="155" width="10" height="10" transform="rotate(0,280,160)"/><rect x="275" y="225" width="10" height="10" transform="rotate(0,280,230)"/><rect x="275" y="245" width="10" height="10" transform="rotate(0,280,250)"/><rect x="275" y="255" width="10" height="10" transform="rotate(0,280,260)"/><rect x="275" y="265" width="10" height="10" transform="rotate(0,280,270)"/><rect x="275" y="285" width="10" height="10" transform="rotate(0,280,290)"/><rect x="285" y="105" width="10" height="10" transform="rotate(0,290,110)"/><rect x="285" y="125" width="10" height="10" transform="rotate(0,290,130)"/><rect x="285" y="135" width="10" height="10" transform="rotate(0,290,140)"/><rect x="285" y="175" width="10" height="10" transform="rotate(0,290,180)"/><rect x="285" y="195" width="10" height="10" transform="rotate(0,290,200)"/><rect x="285" y="215" width="10" height="10" transform="rotate(0,290,220)"/><rect x="285" y="225" width="10" height="10" transform="rotate(0,290,230)"/><rect x="285" y="245" width="10" height="10" transform="rotate(0,290,250)"/><rect x="285" y="255" width="10" height="10" transform="rotate(0,290,260)"/><rect x="285" y="265" width="10" height="10" transform="rotate(0,290,270)"/><path clip-rule="evenodd" d="M 5 5v 70h 70v -70zM 15 15h 50v 50h -50z" transform="rotate(0,40,40)"/><rect x="25" y="25" width="10" height="10" transform="rotate(0,30,30)"/><rect x="25" y="35" width="10" height="10" transform="rotate(0,30,40)"/><rect x="25" y="45" width="10" height="10" transform="rotate(0,30,50)"/><rect x="35" y="25" width="10" height="10" transform="rotate(0,40,30)"/><rect x="35" y="35" width="10" height="10" transform="rotate(0,40,40)"/><rect x="35" y="45" width="10" height="10" transform="rotate(0,40,50)"/><rect x="45" y="25" width="10" height="10" transform="rotate(0,50,30)"/><rect x="45" y="35" width="10" height="10" transform="rotate(0,50,40)"/><rect x="45" y="45" width="10" height="10" transform="rotate(0,50,50)"/><path clip-rule="evenodd" d="M 225 5v 70h 70v -70zM 235 15h 50v 50h -50z" transform="rotate(90,260,40)"/><rect x="245" y="25" width="10" height="10" transform="rotate(0,250,30)"/><rect x="245" y="35" width="10" height="10" transform="rotate(0,250,40)"/><rect x="245" y="45" width="10" height="10" transform="rotate(0,250,50)"/><rect x="255" y="25" width="10" height="10" transform="rotate(0,260,30)"/><rect x="255" y="35" width="10" height="10" transform="rotate(0,260,40)"/><rect x="255" y="45" width="10" height="10" transform="rotate(0,260,50)"/><rect x="265" y="25" width="10" height="10" transform="rotate(0,270,30)"/><rect x="265" y="35" width="10" height="10" transform="rotate(0,270,40)"/><rect x="265" y="45" width="10" height="10" transform="rotate(0,270,50)"/><path clip-rule="evenodd" d="M 5 225v 70h 70v -70zM 15 235h 50v 50h -50z" transform="rotate(-90,40,260)"/><rect x="25" y="245" width="10" height="10" transform="rotate(0,30,250)"/><rect x="25" y="255" width="10" height="10" transform="rotate(0,30,260)"/><rect x="25" y="265" width="10" height="10" transform="rotate(0,30,270)"/><rect x="35" y="245" width="10" height="10" transform="rotate(0,40,250)"/><rect x="35" y="255" width="10" height="10" transform="rotate(0,40,260)"/><rect x="35" y="265" width="10" height="10" transform="rotate(0,40,270)"/><rect x="45" y="245" width="10" height="10" transform="rotate(0,50,250)"/><rect x="45" y="255" width="10" height="10" transform="rotate(0,50,260)"/><rect x="45" y="265" width="10" height="10" transform="rotate(0,50,270)"/></clipPath></defs><rect x="0" y="0" height="300" width="300" clip-path="url('#clip-path-background-color')" fill="#fff"/><rect x="0" y="0" height="300" width="300" clip-path="url('#clip-path-dot-color')" fill="#000000"/></svg>