<svg xmlns="http://www.w3.org/2000/svg" viewBox="0 0 47.5 47.5" id="delicious"><defs><clipPath id="a"><path d="M0 38h38V0H0v38Z"></path></clipPath></defs><g clip-path="url(#a)" transform="matrix(1.25 0 0 -1.25 0 47.5)"><path fill="#ffcc4d" d="M36 19c0-9.389-7.611-17-17-17S2 9.611 2 19s7.611 17 17 17 17-7.611 17-17"></path><path fill="#e75a70" d="m22 8 5-5c1.728-1.728 5-2 7 0s1.903 4.962.175 6.691L30 14c-3-5-8-6-8-6"></path><path fill="#664500" d="M19 6c-6.461 0-8.738 3.305-8.832 3.445a1.001 1.001 0 0 0 1.659 1.119C11.912 10.441 13.706 8 19 8c8.081 0 9.955 6.949 10.03 7.245a1.001 1.001 0 0 0 1.94-.487C30.948 14.67 28.669 6 19 6M7.999 20a1.001 1.001 0 0 0-.894 1.447C7.158 21.552 8.424 24 12 24c3.578 0 4.842-2.449 4.894-2.553a1 1 0 0 0-1.783-.905C15.067 20.622 14.28 22 12 22c-2.317 0-3.099-1.433-3.105-1.447A1 1 0 0 0 7.999 20M23 20a1 1 0 0 0-.352 1.937l8 3a1.004 1.004 0 0 0 1.289-.585 1.002 1.002 0 0 0-.585-1.288l-8-3A1.016 1.016 0 0 0 23 20"></path></g></svg>