<svg xmlns="http://www.w3.org/2000/svg" data-name="Filled Outline" viewBox="0 0 128 128" id="chinese-dessert"><path fill="#873e58" d="M78.757 68.691a2.872 2.872 0 0 1-2.431-4.4l32.741-52.21a2.872 2.872 0 0 1 4.867 3.052L81.193 67.345a2.871 2.871 0 0 1-2.436 1.346zm-5.479-3.283a2.876 2.876 0 0 1-2.59-4.111L97.23 5.681a2.873 2.873 0 0 1 5.185 2.475L75.872 63.772a2.874 2.874 0 0 1-2.594 1.636z"></path><circle cx="78.418" cy="45.481" r="15.227" fill="#ffd9c0"></circle><circle cx="49.622" cy="45.481" r="15.227" fill="#ffd9c0"></circle><path fill="#ef3554" d="m40.314 111.827.465 5.285a3.432 3.432 0 0 0 2.243 2.916A61.624 61.624 0 0 0 64 123.233a61.624 61.624 0 0 0 20.978-3.2 3.432 3.432 0 0 0 2.243-2.916l.465-5.285Z"></path><path fill="#ff5764" d="M110.4 61.2c.03 2.53 0 5.11-.12 7.68v.04c0 .12-.01.22-.01.33a95.578 95.578 0 0 1-.98 10.04l-.03.19c-.05.29-.1.57-.14.87-3.3 19.23-14.04 36.02-45.11 36.02-31.35 0-42.04-17.12-45.22-36.58-.01-.04-.01-.08-.02-.12a93.307 93.307 0 0 1-1.06-10.72v-.03c-.12-2.59-.14-5.17-.12-7.72Z"></path><path fill="#ffeadc" d="M110.479 60.8a1.692 1.692 0 0 1-.41 1.046c-3.01 3.73-22.49 6.62-46.07 6.62-24.93 0-45.28-3.23-46.43-7.27a1.786 1.786 0 0 1-.048-.4c0-4.211 20.81-7.624 46.479-7.624s46.479 3.421 46.479 7.628Z"></path><circle cx="35.131" cy="57.887" r="15.227" fill="#ffeadc"></circle><circle cx="93.733" cy="57.887" r="15.227" fill="#ffeadc"></circle><circle cx="64" cy="62.153" r="17.186" fill="#ffeadc"></circle><path fill="#29a890" d="M110.405 61.85c.02 2.33-.01 4.71-.119 7.07 0 .12-.011.22-.011.33a95.578 95.578 0 0 1-.98 10.04c-.06.36-.12.7-.17 1.06a60.613 60.613 0 0 1-1.93 8.11c-7.349 3.55-24.47 7.32-42.909 7.32S28.765 92.02 21.4 88.46c-.24-.11-.46-.23-.68-.34a64 64 0 0 1-1.94-8.45 93.307 93.307 0 0 1-1.06-10.72c-.119-2.6-.14-5.19-.119-7.75h.309c1.15 4.04 21.5 7.27 46.43 7.27 23.575 0 43.06-2.89 46.065-6.62Z"></path><path fill="#efe8dd" d="M93.455 80.742c.082-.024.165-.053.247-.085a2.8 2.8 0 0 0 1.654-3.466 2.518 2.518 0 0 0-3.365-1.473 2.255 2.255 0 0 0-.2.09c0-.072.007-.144.006-.217a2.484 2.484 0 0 0-2.676-2.485 2.838 2.838 0 0 0-2.624 2.83c0 .073 0 .145.011.216a2.704 2.704 0 0 0-.2-.063A2.8 2.8 0 0 0 82.972 78a2.519 2.519 0 0 0 1.721 3.246 2.419 2.419 0 0 0 .247.053 2.37 2.37 0 0 0-.16.21 2.608 2.608 0 0 0 .623 3.675 2.715 2.715 0 0 0 3.7-.828c.047-.067.089-.137.129-.207a1.973 1.973 0 0 0 .133.19 2.6 2.6 0 0 0 3.708.345 2.717 2.717 0 0 0 .549-3.751 1.852 1.852 0 0 0-.167-.191zM59.393 82.23a2.657 2.657 0 0 1-.267-.074 2.867 2.867 0 1 1 1.8-5.446c.074.024.148.052.219.082a2.562 2.562 0 0 1-.01-.233 2.868 2.868 0 1 1 5.736 0c0 .079 0 .156-.01.233.071-.03.145-.058.219-.082a2.867 2.867 0 1 1 1.8 5.446 2.657 2.657 0 0 1-.267.074 2.144 2.144 0 0 1 .175.216 2.868 2.868 0 0 1-4.64 3.373 2.4 2.4 0 0 1-.148-.214 2.4 2.4 0 0 1-.142.214 2.868 2.868 0 0 1-4.64-3.373 2.144 2.144 0 0 1 .175-.216zm51.422-14.084v.046c0 .136-.011.25-.011.375a108.64 108.64 0 0 1-1.113 11.4c-.012.068-.023.148-.034.216a2.822 2.822 0 0 1-3.589.511 2.732 2.732 0 0 1-.647-3.838c.057-.08.113-.159.17-.228-.079-.011-.17-.034-.261-.056a2.644 2.644 0 0 1-1.806-3.4 2.959 2.959 0 0 1 3.5-2 1.637 1.637 0 0 1 .216.069.769.769 0 0 1-.023-.228 2.964 2.964 0 0 1 2.76-2.952 2.072 2.072 0 0 1 .838.085zm-87.503 8.3a.234.234 0 0 0-.093.29 2.872 2.872 0 0 1-.627 4 2.836 2.836 0 0 1-3.469-.081c-.012-.046-.012-.093-.024-.139a108.458 108.458 0 0 1-1.23-12.44v-.035a3.041 3.041 0 0 1 .569-.058 2.865 2.865 0 0 1 2.862 2.869c0 .081.139.174.221.151a2.864 2.864 0 0 1 1.787 5.443zm11.202 4.306a3.026 3.026 0 0 1-1.785-3.739 2.716 2.716 0 0 1 3.629-1.588.187.187 0 0 0 .211-.137 2.679 2.679 0 0 1 2.886-2.68 3.061 3.061 0 0 1 2.83 3.052.213.213 0 0 0 .208.165 3.024 3.024 0 0 1 3.593 2.059 2.717 2.717 0 0 1-1.856 3.5.223.223 0 0 0-.094.284 2.812 2.812 0 0 1-.672 3.963 2.927 2.927 0 0 1-3.987-.893.219.219 0 0 0-.282-.019 2.81 2.81 0 0 1-4 .373 2.932 2.932 0 0 1-.593-4.046.24.24 0 0 0-.088-.294z"></path><path fill="#66314e" d="M81.711 82.4a5.41 5.41 0 0 0 .087 1.419 5.251 5.251 0 0 0 2.273 3.4A5.306 5.306 0 0 0 87 88.1a5.531 5.531 0 0 0 2.434-.566 5.425 5.425 0 0 0 1.763.293 5.6 5.6 0 0 0 5.546-6.127 5.492 5.492 0 0 0 .986-5.325 5.3 5.3 0 0 0-4.013-3.461 5.262 5.262 0 0 0-4.407-2.328q-.177 0-.357.012a5.585 5.585 0 0 0-4.531 2.882 5.671 5.671 0 0 0-3.8 3.723 5.449 5.449 0 0 0 .413 4.244 5.3 5.3 0 0 0 .677.953zm1.771-4.3a2.619 2.619 0 0 1 2.46-1.839 2.361 2.361 0 0 1 .61.08.182.182 0 0 0 .177-.141 2.617 2.617 0 0 1 2.418-2.608c.055 0 .108-.006.162-.006a2.288 2.288 0 0 1 2.305 2.3.159.159 0 0 0 .179.118 2.489 2.489 0 0 1 .923-.179 2.282 2.282 0 0 1 2.178 1.536 2.584 2.584 0 0 1-1.524 3.194.206.206 0 0 0-.076.252 2.5 2.5 0 0 1-.507 3.457 2.54 2.54 0 0 1-1.588.567 2.292 2.292 0 0 1-1.829-.885.187.187 0 0 0-.241.016A2.6 2.6 0 0 1 87 85.1a2.31 2.31 0 0 1-1.279-.379 2.4 2.4 0 0 1-.575-3.386.19.19 0 0 0-.08-.243 2.322 2.322 0 0 1-1.584-2.992zm-24.147-3.869a5.477 5.477 0 0 0-2.9 8.9A5.465 5.465 0 0 0 64 88.647a5.468 5.468 0 0 0 7.57-5.514 5.523 5.523 0 0 0 .741-1.112 5.471 5.471 0 0 0-3.644-7.79 5.467 5.467 0 0 0-9.33 0zm7.135 2.854a.171.171 0 0 0 .18.13 2.469 2.469 0 1 1 1.547 4.69.2.2 0 0 0-.079.249 2.47 2.47 0 0 1-4 2.905.19.19 0 0 0-.244 0 2.471 2.471 0 0 1-4-2.905.2.2 0 0 0-.079-.249 2.469 2.469 0 1 1 1.548-4.69.171.171 0 0 0 .18-.13 2.47 2.47 0 1 1 4.94 0zm-22.293-3.609a5.585 5.585 0 0 0-4.531-2.882 5.314 5.314 0 0 0-.356-.012 5.265 5.265 0 0 0-4.408 2.328 5.3 5.3 0 0 0-4.011 3.458 5.5 5.5 0 0 0 .984 5.328 5.6 5.6 0 0 0 5.545 6.126 5.385 5.385 0 0 0 1.76-.293 5.545 5.545 0 0 0 2.44.571 5.284 5.284 0 0 0 5.2-4.273 5.407 5.407 0 0 0 .087-1.419 5.3 5.3 0 0 0 .678-.96 5.447 5.447 0 0 0 .415-4.248 5.672 5.672 0 0 0-3.803-3.724zm-.646 7.611a.192.192 0 0 0-.081.243 2.4 2.4 0 0 1-.574 3.386 2.313 2.313 0 0 1-1.276.384 2.594 2.594 0 0 1-2.127-1.142.188.188 0 0 0-.242-.016 2.29 2.29 0 0 1-1.828.885 2.543 2.543 0 0 1-1.589-.567 2.5 2.5 0 0 1-.506-3.457.207.207 0 0 0-.076-.252 2.584 2.584 0 0 1-1.524-3.194 2.28 2.28 0 0 1 2.178-1.536 2.484 2.484 0 0 1 .922.179.159.159 0 0 0 .18-.118 2.288 2.288 0 0 1 2.3-2.3c.053 0 .107 0 .161.006a2.615 2.615 0 0 1 2.42 2.612.183.183 0 0 0 .177.141 2.374 2.374 0 0 1 .611-.08 2.617 2.617 0 0 1 2.459 1.839 2.321 2.321 0 0 1-1.585 2.987z"></path><path fill="#66314e" d="M115.866 12.382a4.372 4.372 0 0 0-7.966-1.346L92.2 36.074q-.421-.617-.893-1.193l12.565-26.329a4.372 4.372 0 0 0-7.892-3.767L84.066 29.75A16.671 16.671 0 0 0 64 37.017a16.685 16.685 0 0 0-30.6 4.44 16.737 16.737 0 0 0-14.883 16.055c-1.529.918-2.436 1.979-2.476 3.209 0 .023-.008.045-.008.069-.019 2.133.045 4.825.2 8.232a94.435 94.435 0 0 0 1.086 10.891c2.625 16.212 9.75 27.128 21.583 32.944l.388 4.394a4.948 4.948 0 0 0 3.227 4.188A63.557 63.557 0 0 0 64 124.733a63.556 63.556 0 0 0 21.489-3.3 4.951 4.951 0 0 0 3.226-4.194l.384-4.355c9.5-4.65 15.962-12.585 19.514-23.9.016-.04.5-1.648.7-2.431q.764-2.85 1.3-5.966l.174-1.065c.427-2.738.73-5.633.918-8.814q.04-.684.074-1.387c0-.023.227-6.239.207-8.534a1.588 1.588 0 0 0-.032-.3 3.564 3.564 0 0 0-1.421-2.257c0-.05-.04-1.57-.127-2.262A16.774 16.774 0 0 0 98.745 42.1l16.564-26.413a4.346 4.346 0 0 0 .557-3.305Zm-17.178-6.3a1.373 1.373 0 0 1 2.477 1.183l-12.1 25.355a16.689 16.689 0 0 0-2.278-1.6ZM78.4 31.755a13.74 13.74 0 0 1 13.13 9.76 16.748 16.748 0 0 0-12.687 9.174 18.644 18.644 0 0 0-13.983-7.335A13.728 13.728 0 0 1 78.4 31.755ZM64 46.311A15.7 15.7 0 0 1 79.686 62 15.5 15.5 0 0 1 79 66.528c-4.516.252-9.514.4-14.991.4s-10.488-.148-15.009-.4A15.5 15.5 0 0 1 48.314 62 15.7 15.7 0 0 1 64 46.311ZM49.6 31.755a13.737 13.737 0 0 1 12.83 8.873 16.768 16.768 0 0 0-.6 2.819A18.652 18.652 0 0 0 49.787 49.9 16.742 16.742 0 0 0 36.5 41.4a13.744 13.744 0 0 1 13.1-9.645Zm-14.387 12.6a13.718 13.718 0 0 1 12.6 8.345 18.525 18.525 0 0 0-1.987 13.629c-11.475-.807-19.423-2.3-23.542-3.708a13.591 13.591 0 0 1-.8-4.54 13.742 13.742 0 0 1 13.731-13.728ZM20.276 79.432a91.368 91.368 0 0 1-1.049-10.527 2.458 2.458 0 0 1 2.165 2.439.166.166 0 0 0 .183.127 2.428 2.428 0 0 1 .77-.125 2.468 2.468 0 0 1 .77 4.812.212.212 0 0 0-.081.252 2.463 2.463 0 0 1-.54 3.447 2.349 2.349 0 0 1-2.074.384c-.047-.271-.1-.535-.144-.809Zm65.451 37.542a1.937 1.937 0 0 1-1.258 1.643A60.6 60.6 0 0 1 64 121.733a60.57 60.57 0 0 1-20.468-3.116 1.936 1.936 0 0 1-1.259-1.637l-.241-2.737q9.287 3.632 22 3.623 12.684 0 21.93-3.6Zm-21.692-2.108c-20.959 0-34.35-7.785-40.631-23.708 8.738 3.221 24.244 6.121 40.6 6.121 16.38 0 31.9-2.9 40.643-6.121-6.278 15.922-19.655 23.708-40.612 23.708Zm43.794-35.811s-.194 1.161-.2 1.222a2.281 2.281 0 0 1-1.061-.351 2.4 2.4 0 0 1-.575-3.378.2.2 0 0 0-.08-.252 2.321 2.321 0 0 1-1.585-2.987 2.626 2.626 0 0 1 2.464-1.839 2.344 2.344 0 0 1 .614.081c.058.011.173-.069.173-.138a2.608 2.608 0 0 1 1.211-2.2 92.194 92.194 0 0 1-.961 9.842Zm1.088-13.114a5.55 5.55 0 0 0-3.652 2.749 5.683 5.683 0 0 0-3.8 3.715 5.48 5.48 0 0 0 .428 4.276 5.311 5.311 0 0 0 .658.929 5.519 5.519 0 0 0 .09 1.406 5.233 5.233 0 0 0 4.4 4.218q-.479 2.154-1.086 4.16c-7.54 3.39-24.445 6.885-41.955 6.885-17.482 0-34.372-3.5-41.9-6.886q-.594-1.959-1.065-4.06h.015a5.478 5.478 0 0 0 5.4-4.624 5.461 5.461 0 0 0 .047-1.325 5.516 5.516 0 0 0 .736-1.1 5.473 5.473 0 0 0-3.641-7.794 5.469 5.469 0 0 0-4.475-2.6c-.016-.508-.031-1-.042-1.47 10.287 5.437 43.292 5.511 44.944 5.511s34.665-.074 44.948-5.513c-.019.494-.033 1.004-.05 1.523Zm-1.374-7.862a13.587 13.587 0 0 1-.641 4.1c-3.67 1.524-12.047 3.254-24.73 4.144a18.474 18.474 0 0 0-1.387-12.49 13.713 13.713 0 0 1 26.758 4.241Zm5.224-43.991-17.16 27.364c-.334-.036-.674-.044-1.013-.06a16.709 16.709 0 0 0-.756-2.285l16.6-26.478a1.364 1.364 0 0 1 .856-.608 1.4 1.4 0 0 1 .308-.035 1.373 1.373 0 0 1 1.161 2.1Z"></path></svg>