<svg xmlns="http://www.w3.org/2000/svg" viewBox="0 0 130 130" id="paper-bag"><g data-name="Layer 1"><path fill="#ce9e76" d="M87.64 111.65h22.85l-3.1-8.53-.89-71.93H91.02l.26 71.93-3.64 8.53z"></path><path fill="#ce9e76" d="M61.44 31.19h6.98V22.7H87.6v8.49h5.87V16.5H61.44v14.69z"></path><path fill="#b78865" d="m99.06 35.16-7.89-3.97v71.93l7.89-4.69V35.16z"></path><path fill="#f5c396" d="M91.17 31.19H35.78v71.93l-3.31 8.53h55.17l3.64-8.53-.11-71.93z"></path><path style="mix-blend-mode:screen" fill="#f5c396" d="M35.35 30.64h55.39v5.2H35.35z" opacity=".37"></path><path fill="#f5c396" style="mix-blend-mode:screen" d="M35.35 107.77v-5.2l-3.31 8.53h2.02l1.29-3.33z"></path><path fill="#f5c396" style="mix-blend-mode:multiply" d="m91.28 103.12-3.64 8.54H32.48l3.31-8.54V83.63C41.12 95.58 51 96.07 61 96.07c13.15 0 24.55-15.53 30.19-29.24Z" opacity=".39"></path><path fill="#f5c396" d="M47.82 31.19h6.97V22.7h19.18v8.49h5.87V16.5H47.82v14.69z"></path><path fill="#f5c396" d="M52.55 19.6h27.12v-3.1h-32v14.69h2.94v-9.63a2 2 0 0 1 1.94-1.96Z" opacity=".37"></path><circle cx="64.64" cy="64.53" r="17.44" fill="#00a5cf"></circle><path fill="#52b69a" d="M47.56 68.83c1.09-.3 2.57-.61 3.08-.35 1.39.71.83 2.74 2.07 3.5s4.33-.29 5.41-2.39a5.07 5.07 0 0 0 .32-3.34c-.6-3.21-3.66-4.13-3.42-6 .28-2.11 4.51-2.35 4.7-4.22.09-.89-2.21-4.06-5.67-5.82a17.47 17.47 0 0 0-6.48 18.59zm23.88-20.52c-2.88 1.14-4.68 4.05-4.64 5.44 0 1.82 4.12 2 4.3 3.9.14 1.47-2.15 2.32-1.83 3.42s2.22.5 4.3 1.83c2.31 1.49 2.1 3.5 3.58 4.06.9.34 2.32.11 4.69-2v-.7a17.44 17.44 0 0 0-10.41-16z"></path><path fill="#00a5cf" style="mix-blend-mode:multiply" d="M70.5 48.19a15.39 15.39 0 1 1-23.07 13.33c0-.41 0-.82.05-1.22a17.45 17.45 0 1 0 23-12.11Z" opacity=".39"></path><path fill="#66d4ed" style="mix-blend-mode:screen" d="M66 48.31a18.61 18.61 0 0 1 9.79 2.76A17.45 17.45 0 0 0 47.2 64.53c0 .55 0 1.09.08 1.63A18.7 18.7 0 0 1 66 48.31Z" opacity=".37"></path><path fill="#52b69a" d="M79.59 72.87c-3.53-2-9.39.71-10.17-.17-.93-1-.17-2.59-1.11-3.26s-2.85.16-3.9 1.11a5.56 5.56 0 0 0-1.67 4c0 2.26 1.58 2.86 1.67 4.69a4.12 4.12 0 0 1-.75 2.47h.75a17.45 17.45 0 0 0 15.18-8.84Z"></path><path fill="#f5c396" style="mix-blend-mode:multiply" d="M110.49 111.86h-77.9l2.17-5.02h73.98l1.75 5.02z" opacity=".38"></path><path fill="#363848" d="M87 32.56a1.38 1.38 0 0 1-1.38-1.38v-7.1h-5.11a1.38 1.38 0 1 1 0-2.75H87a1.38 1.38 0 0 1 1.38 1.38v8.49A1.38 1.38 0 0 1 87 32.56zm-19.79 0a1.38 1.38 0 0 1-1.38-1.38V22.7a1.38 1.38 0 0 1 2.75 0v8.49a1.38 1.38 0 0 1-1.37 1.37z"></path><path fill="#363848" d="M94.14 32.56a1.38 1.38 0 0 1-1.38-1.38V17.87H80.51a1.38 1.38 0 1 1 0-2.75h13.63a1.38 1.38 0 0 1 1.38 1.38v14.69a1.38 1.38 0 0 1-1.38 1.37zm-33.14 0a1.38 1.38 0 0 1-1.38-1.38V22.7a1.38 1.38 0 0 1 2.75 0v8.49A1.38 1.38 0 0 1 61 32.56z"></path><path fill="#363848" d="M73.33 32.56A1.38 1.38 0 0 1 72 31.19v-7.11H55v7.11a1.38 1.38 0 0 1-2.75 0V22.7a1.38 1.38 0 0 1 1.38-1.38h19.7a1.38 1.38 0 0 1 1.38 1.38v8.49a1.38 1.38 0 0 1-1.38 1.37Z"></path><path fill="#363848" d="M80.51 32.56a1.38 1.38 0 0 1-1.38-1.38V17.87H48.76v13.32a1.38 1.38 0 0 1-2.75 0V16.5a1.38 1.38 0 0 1 1.38-1.38h33.12a1.38 1.38 0 0 1 1.38 1.38v14.69a1.38 1.38 0 0 1-1.38 1.37Z"></path><path fill="#363848" d="M110.06 113.12H32a1.47 1.47 0 0 1-1.37-2l3.21-8.28V31.19a1.47 1.47 0 0 1 1.47-1.47h70.72a1.47 1.47 0 0 1 1.47 1.45l.88 71.68 3 8.3a1.47 1.47 0 0 1-1.38 2Zm-75.87-2.94H108l-2.38-6.56a1.47 1.47 0 0 1-.09-.48l-.87-70.48H36.82v70.46a1.46 1.46 0 0 1-.1.53Z"></path><path fill="#363848" d="M63 104.59H35.35a1.47 1.47 0 0 1 0-2.94H63a1.47 1.47 0 0 1 0 2.94zm27.58 0h-13a1.47 1.47 0 0 1 0-2.94h13a1.47 1.47 0 0 1 0 2.94z"></path><path fill="#363848" d="M87.21 113.12a1.47 1.47 0 0 1-1.35-2l3.53-8.26V79.5a1.47 1.47 0 0 1 2.94 0v23.62a1.47 1.47 0 0 1-.12.58l-3.64 8.53a1.47 1.47 0 0 1-1.36.89zm3.52-71.81a1.47 1.47 0 0 1-1.47-1.47v-8.65a1.47 1.47 0 1 1 2.94 0v8.65a1.47 1.47 0 0 1-1.47 1.47z"></path></g></svg>