<svg xmlns="http://www.w3.org/2000/svg" enable-background="new 0 0 128 128" viewBox="0 0 128 128" id="CurrentLocation"><path fill="#7bc3de" d="M93,115.1c0,6.5-13,11.9-29,11.9c-16,0-29-5.3-29-11.9c0-6.5,13-11.9,29-11.9C80,103.3,93,108.6,93,115.1z" class="color7bde9e svgShape"></path><path fill="#87ddfd" d="M78.8,105c-3.3,5.1-14.6,8.8-28,8.8c-5.4,0-10.5-0.6-14.8-1.7c3.3-5.1,14.6-8.8,28-8.8C69.4,103.3,74.5,103.9,78.8,105z" class="colora6ebbf svgShape"></path><path fill="#51afd2" d="M93,115.1c0,6.5-13,11.9-29,11.9c-14.8,0-27.1-4.6-28.8-10.5c5.3,2.8,13.6,4.6,22.9,4.6c16,0,29-5.3,29-11.8c0-0.5-0.1-0.9-0.2-1.4C90.7,109.9,93,112.4,93,115.1z" class="color51d27f svgShape"></path><path fill="#fe908e" d="M102.3,39.3c0,9.3-3.4,17.9-8.9,24.6c-11.6,13.9-21.2,29.4-27.6,46.4l-1.9,4.9l-2.9-7.7c-6-15.9-15.1-30.3-26.1-43.1c-6.1-7.1-9.7-16.5-9.3-26.8C26.6,17.8,42.7,1.8,62.4,1C84.3,0.1,102.3,17.6,102.3,39.3z" class="colorfedd8e svgShape"></path><path fill="#feb5b4" d="M81.7,5.3c-1.3,28.1-22.6,50.9-50.1,54.5c-4.1-6.4-6.3-14-5.9-22.3C26.6,17.8,42.7,1.8,62.4,1C69.4,0.8,76,2.3,81.7,5.3z" class="colorfee9b4 svgShape"></path><path fill="#fd6a67" d="M102.3,39.3c0,9.3-3.4,17.9-8.9,24.6c-11.6,13.9-21.2,29.4-27.6,46.4l-1.9,4.9l-2.9-7.7c-4.5-11.9-10.7-23.1-18.3-33.3C71.4,70.5,93.6,46,93.6,16.4c0-0.5,0-1,0-1.5C99,21.5,102.3,30.1,102.3,39.3z" class="colorfdd367 svgShape"></path><g fill="#000000" class="color000000 svgShape"><path fill="#f28482" d="M90.7,39.3c0,14.7-12,26.7-26.7,26.7c-14.8,0-26.8-12-26.8-26.7c0-14.8,12-26.8,26.8-26.8C78.7,12.6,90.7,24.6,90.7,39.3z" class="colorfc898c svgShape"></path><path fill="#fcb1b0" d="M69.8,25.5c0,11.4-9.3,20.8-20.7,20.8c-4.3,0-8.3-1.3-11.6-3.5c-0.1-1.1-0.2-2.2-0.2-3.4c0-14.8,12-26.8,26.8-26.8c0.4,0,0.9,0,1.3,0C68.1,16.2,69.8,20.6,69.8,25.5z" class="colorfcb0b0 svgShape"></path><path fill="#f96663" d="M90.7,39.3c0,14.7-12,26.7-26.7,26.7c-9.7,0-18.1-5.1-22.8-12.8c3.7,2,8,3.1,12.5,3.1c14.7,0,26.7-12,26.7-26.7c0-5.1-1.4-9.9-3.9-14C85,20.2,90.7,29.1,90.7,39.3z" class="colorf96364 svgShape"></path><path fill="#ffffff" d="M64,22.3c9.4,0,17.1,7.6,17.1,17.1c0,9.4-7.6,17.1-17.1,17.1c-9.4,0-17.1-7.6-17.1-17.1C46.9,29.9,54.6,22.3,64,22.3z" class="colorffffff svgShape"></path><path fill="#e8e9ea" d="M81.1,39.3c0,9.4-7.6,17.1-17.1,17.1c-6.6,0-12.2-3.7-15.1-9.1c2.4,1.3,5.1,2,8,2c9.4,0,17.1-7.7,17.1-17.1c0-2.9-0.7-5.6-2-8C77.4,27.1,81.1,32.8,81.1,39.3z" class="colore8eaea svgShape"></path></g><g fill="#000000" class="color000000 svgShape"><path fill="#333333" d="M103.3,39.3C103.3,17,84.7-0.9,62.4,0C42.1,0.9,25.6,17.3,24.7,37.5c-0.4,10.1,2.9,19.8,9.5,27.5c10.2,11.9,18.2,24.5,23.8,37.5c-13.9,1.2-24,6.3-24,12.6c0,7.2,13.2,12.9,30,12.9c16.8,0,30-5.6,30-12.9c0-6.3-10.1-11.4-23.9-12.6c5.9-13.2,14-25.9,24.1-38C100.1,57.5,103.3,48.5,103.3,39.3z M92,115.1c0,5.2-11.2,10.9-28,10.9c-16.7,0-28-5.6-28-10.9c0-4.7,9-9.7,22.8-10.7c1.3,3.1,1.5,3.8,4.2,11c0.3,0.9,1.5,0.9,1.9,0c1.4-3.7,2.4-6.5,4.3-11C83,105.5,92,110.5,92,115.1z M64,112.3c-1.5-3.2-6.9-23.9-28.3-48.6c-6.2-7.2-9.4-16.5-9-26.1C27.6,18.4,43.3,2.8,62.5,2c20.9-0.9,38.9,15.8,38.9,37.3c0,8.7-3.1,17.2-8.7,23.9C71.1,89,64.9,110.5,64,112.3z" class="color333333 svgShape"></path><path fill="#333333" d="M94.4,38.3h-2.7C91.2,23.8,79.5,12.1,65,11.6V9c0-0.6-0.4-1-1-1s-1,0.4-1,1v2.7c-14.5,0.5-26.2,12.2-26.7,26.7h-2.7c-0.6,0-1,0.4-1,1c0,0.6,0.4,1,1,1h2.7C36.8,54.8,48.5,66.5,63,67v2.7c0,0.6,0.4,1,1,1s1-0.4,1-1V67c14.5-0.5,26.2-12.2,26.7-26.7h2.7c0.6,0,1-0.4,1-1C95.4,38.8,94.9,38.3,94.4,38.3z M89.7,38.3H82c-0.5-9.2-7.9-16.5-17-17v-7.7C78.4,14.1,89.2,24.9,89.7,38.3z M77.4,40.3H80c-0.5,8.1-7,14.5-15,15v-2.6c0-0.6-0.4-1-1-1s-1,0.4-1,1v2.6c-8.1-0.5-14.5-7-15-15h2.6c0.6,0,1-0.4,1-1c0-0.6-0.4-1-1-1H48c0.5-8.1,7-14.5,15-15v2.6c0,0.6,0.4,1,1,1s1-0.4,1-1v-2.6c8.1,0.5,14.5,7,15,15h-2.6c-0.6,0-1,0.4-1,1C76.4,39.9,76.9,40.3,77.4,40.3z M63,13.6v7.7c-9.2,0.5-16.5,7.9-17,17h-7.7C38.8,24.9,49.6,14.1,63,13.6z M38.3,40.3H46c0.5,9.2,7.8,16.5,17,17V65C49.6,64.5,38.8,53.7,38.3,40.3z M65,65v-7.7c9.2-0.5,16.5-7.8,17-17h7.7C89.2,53.7,78.4,64.5,65,65z" class="color333333 svgShape"></path></g></svg>