<svg xmlns="http://www.w3.org/2000/svg" enable-background="new 0 0 128 128" viewBox="0 0 128 128" id="FavoritePin"><path fill="#be9190" d="M99.3,117.7c0,5.1-15.9,9.3-35.5,9.3c-19.6,0-35.4-4.2-35.4-9.3c0-5.1,15.9-9.3,35.5-9.3C83.5,108.5,99.3,112.6,99.3,117.7z" class="colorbe90be svgShape"></path><path fill="#b4cbd3" d="M82.4,109.8c-5.4,3.3-18,5.7-32.7,5.7c-6.8,0-13.1-0.5-18.5-1.4c5.4-3.3,18-5.7,32.7-5.7C70.6,108.5,77,109,82.4,109.8z" class="colord3b4d3 svgShape"></path><path fill="#a76c6b" d="M99.3,117.7c0,5.1-15.9,9.3-35.5,9.3c-18.1,0-33-3.5-35.2-8.1c6.5,2,16.2,3.2,26.9,3.2c19.6,0,35.5-4.2,35.5-9.3c0-0.4-0.1-0.8-0.3-1.2C96.1,113.3,99.3,115.4,99.3,117.7z" class="colora76ba7 svgShape"></path><path fill="#7bc3de" d="M103.2,40.2c0,9.6-3.4,18.3-9.1,25.1c-11.9,14.2-21.7,30.1-28.2,47.4l-1.9,5l-2.9-7.9c-6.1-16.2-15.4-31-26.7-44.1c-6.3-7.3-9.9-16.9-9.5-27.4C25.7,18.2,42.2,1.9,62.4,1C84.8,0.1,103.2,18,103.2,40.2z" class="color7bde9e svgShape"></path><path fill="#87ddfd" d="M82.1,5.4C80.8,34.2,59,57.5,30.9,61.2c-4.2-6.5-6.4-14.4-6.1-22.8C25.7,18.2,42.2,1.9,62.4,1C69.5,0.7,76.2,2.4,82.1,5.4z" class="colora6ebbf svgShape"></path><path fill="#51afd2" d="M103.2,40.2c0,9.6-3.4,18.3-9.1,25.1c-11.9,14.2-21.7,30.1-28.2,47.4l-1.9,5l-2.9-7.9c-4.6-12.2-11-23.6-18.7-34.1C71.6,72.1,94.2,47,94.2,16.8c0-0.5,0-1,0-1.5C99.8,22,103.2,30.7,103.2,40.2z" class="color51d27f svgShape"></path><path fill="#ffffff" d="M64,70.4c-16.7,0-30.2-13.5-30.2-30.2C33.8,23.5,47.3,10,64,10c16.7,0,30.2,13.5,30.2,30.2C94.2,56.9,80.7,70.4,64,70.4z" class="colorffffff svgShape"></path><path fill="#e8e9ea" d="M94.2,40.2c0,16.7-13.5,30.2-30.2,30.2c-12.1,0-22.4-7-27.3-17.3c3.9,1.9,8.3,2.9,12.9,2.9c16.7,0,30.2-13.5,30.2-30.3c0-4.6-1-9-2.9-12.9C87.2,17.7,94.2,28.1,94.2,40.2z" class="colore8eaea svgShape"></path><path fill="#f28482" d="M85.4,37.9C85.4,49.8,64,62.7,64,62.7h0c0,0-21.4-12.9-21.4-24.8c0-6.9,5.6-12.6,12.6-12.6c3.4,0,6.6,1.4,8.8,3.6c2.3-2.2,5.4-3.6,8.8-3.6C79.8,25.3,85.4,30.9,85.4,37.9z" class="colorfc898c svgShape"></path><path fill="#fcb1b0" d="M63.8,28.8C61.6,36.4,52.1,44,46.7,47.8c-2.4-3.2-4.1-6.6-4.1-9.9c0-6.9,5.6-12.6,12.6-12.6C58.5,25.3,61.6,26.6,63.8,28.8z" class="colorfcb0b0 svgShape"></path><path fill="#f96663" d="M85.4,37.9C85.4,49.8,64,62.7,64,62.7h0c0,0-4.2-2.5-8.9-6.4c3.1-1.9,22.1-14.4,22.1-25.9c0-1.6-0.3-3.1-0.8-4.5C81.6,27.4,85.4,32.2,85.4,37.9z" class="colorf96364 svgShape"></path><path fill="#333333" d="M69,107.6C75.1,93.2,83.8,79.2,94.8,66c6-7.2,9.3-16.4,9.3-25.8c0-23.1-19.3-41.1-41.9-40.2C41.7,0.9,24.8,17.7,23.8,38.4c-0.5,10.3,3,20.3,9.7,28.1c11.2,12.9,19.8,26.8,25.5,41.1c-16.1,0.6-31.7,4.1-31.7,10.2c0,6.7,18.8,10.3,36.4,10.3c17.7,0,36.5-3.6,36.5-10.3C100.3,111.7,85,108.2,69,107.6z M25.8,38.5C26.7,18.8,42.8,2.8,62.4,2c21.7-0.9,39.8,16.4,39.8,38.2c0,8.9-3.2,17.6-8.9,24.5C71.1,91.3,64.9,113,64,114.9c-1.5-3.3-7.1-24.5-28.9-49.8C28.7,57.7,25.4,48.3,25.8,38.5z M63.8,126c-20.3,0-34.4-4.4-34.4-8.3c0-3.6,12.3-7.7,30.4-8.2c0.9,2.3,2,5.2,3.2,8.5c0.3,0.9,1.5,0.9,1.9,0c1.7-4.4,2-5.5,3.3-8.5c17.9,0.6,30.1,4.6,30.1,8.2C98.3,121.6,84.2,126,63.8,126z" class="color333333 svgShape"></path><path fill="#333333" d="M95.2,40.2C95.2,23,81.2,9,64,9C46.8,9,32.8,23,32.8,40.2c0,17.2,14,31.2,31.2,31.2C81.2,71.4,95.2,57.4,95.2,40.2z M34.8,40.2C34.8,24.1,47.9,11,64,11c16.1,0,29.2,13.1,29.2,29.2c0,16.1-13.1,29.2-29.2,29.2C47.9,69.4,34.8,56.3,34.8,40.2z" class="color333333 svgShape"></path><path fill="#333333" d="M64.5,63.5c0.9-0.5,21.9-13.3,21.9-25.7c0-7.5-6.1-13.6-13.6-13.6c-3.3,0-6.4,1.2-8.8,3.3c-2.5-2.1-5.6-3.3-8.8-3.3c-7.5,0-13.6,6.1-13.6,13.6c0,12.3,21,25.1,21.9,25.7C63.8,63.7,64.2,63.7,64.5,63.5z M43.6,37.9c0-6.4,5.2-11.6,11.6-11.6c3.1,0,6,1.2,8.1,3.3c0.4,0.4,1,0.4,1.4,0c2.2-2.2,5.1-3.3,8.1-3.3c6.4,0,11.6,5.2,11.6,11.6c0,10.2-17.2,21.6-20.4,23.6C60.8,59.5,43.6,48.1,43.6,37.9z" class="color333333 svgShape"></path></svg>