<svg xmlns="http://www.w3.org/2000/svg" enable-background="new 0 0 128 128" viewBox="0 0 128 128" id="FindLocation"><path fill="#fb8381" d="M117.6,109.8c-0.2-0.2-0.4-0.4-0.6-0.5L89.7,85.7L79.3,96.1l23.5,27.3c3.8,4.5,10.7,4.7,14.8,0.6C121.6,120.1,121.5,113.7,117.6,109.8z" class="colorfbb381 svgShape"></path><path fill="#f28482" d="M105.8,120.5L82.3,93.1l-3,3l23.5,27.3c3.8,4.5,10.7,4.7,14.8,0.6c0.5-0.5,1-1.1,1.3-1.7C114.8,125.1,109.1,124.4,105.8,120.5z" class="colorfb9958 svgShape"></path><path fill="#fdacab" d="M117.6,109.8c-0.2-0.2-0.4-0.4-0.6-0.5L89.7,85.7l-3,3l27.3,23.5c0.2,0.2,0.4,0.3,0.6,0.5c3.4,3.4,3.9,8.7,1.3,12.6c0.6-0.4,1.1-0.8,1.7-1.3C121.6,120.1,121.5,113.7,117.6,109.8z" class="colorfdccab svgShape"></path><path fill="#d3d7d9" d="M80.9,72.4l9,9c1.1,1.1,1.1,3,0,4.1L79,96.4c-1.1,1.1-3,1.1-4.1,0l-9-9L80.9,72.4z" class="colord3d9d9 svgShape"></path><path fill="#a8b1b4" d="M82.7,92.8c-1.1,1.1-3,1.1-4.1,0l-9-9l-3.6,3.6l9,9c1.1,1.1,3,1.1,4.1,0L82.7,92.8z" class="colora8b2b4 svgShape"></path><path fill="#e8e9ea" d="M89.9,81.4l-9-9L77.3,76l9,9c1.1,1.1,1.1,3,0,4.1l3.6-3.6C91.1,84.4,91.1,82.5,89.9,81.4z" class="colore8eaea svgShape"></path><path fill="#a6e4fb" d="M91.2,55.8c0,23.1-18.8,41.9-41.9,41.9c-23.1,0-41.9-18.8-41.9-41.9c0-23.1,18.8-41.9,41.9-41.9C72.4,13.9,91.2,32.7,91.2,55.8z" class="colora6e1fb svgShape"></path><path fill="#d3f2fd" d="M68.4,18.5v0.5c0,21.5-17.5,38.9-38.9,38.9c-8,0-15.5-2.4-21.7-6.6c2.3-21,20.1-37.3,41.6-37.3C56.2,13.9,62.7,15.6,68.4,18.5z" class="colord3f0fd svgShape"></path><path fill="#87ddfd" d="M91.2,55.8c0,23.1-18.8,41.9-41.9,41.9c-18.8,0-34.8-12.5-40-29.6c7.6,7.5,18,12.2,29.5,12.2c23.1,0,41.9-18.8,41.9-41.9c0-4.3-0.6-8.4-1.8-12.2C86.5,33.7,91.2,44.2,91.2,55.8z" class="color7ad1f9 svgShape"></path><circle cx="49.3" cy="55.8" r="32.6" fill="#ffffff" transform="rotate(-13.195 49.335 55.806)" class="colorffffff svgShape"></circle><path fill="#e8e9ea" d="M81.9,55.8c0,18-14.6,32.6-32.6,32.6c-16.9,0-30.9-13-32.4-29.5c6,7.8,15.4,12.9,26,12.9c18,0,32.6-14.6,32.6-32.6c0-1-0.1-2.1-0.1-3.1C79.4,41.6,81.9,48.4,81.9,55.8z" class="colore8eaea svgShape"></path><g fill="#000000" class="color000000 svgShape"><path fill="#fe908e" d="M70.5,65.2c0,4.8-9.5,8.7-21.2,8.7c-11.7,0-21.2-3.9-21.2-8.7c0-4.8,9.5-8.7,21.2-8.7C61,56.6,70.5,60.4,70.5,65.2z" class="colorfedd8e svgShape"></path><path fill="#feb5b4" d="M60.2,57.8c-2.4,3.7-10.7,6.5-20.5,6.5c-4,0-7.7-0.4-10.8-1.2c2.4-3.7,10.7-6.5,20.5-6.5C53.3,56.6,57,57,60.2,57.8z" class="colorfee9b4 svgShape"></path><path fill="#fd6a67" d="M70.5,65.2c0,4.8-9.5,8.7-21.2,8.7c-10.9,0-19.8-3.3-21-7.6c3.9,2.1,9.9,3.4,16.8,3.4c11.7,0,21.2-3.9,21.2-8.7c0-0.3-0.1-0.7-0.2-1C68.9,61.4,70.5,63.2,70.5,65.2z" class="colorfdd367 svgShape"></path><path fill="#7bc3de" d="M70.9,22.6c0,5.3-1.9,10.1-5,13.8C59.3,44.2,54,52.9,50.4,62.5l-1,2.8l-1.6-4.3c-3.4-8.9-8.5-17-14.7-24.3c-3.5-4-5.5-9.3-5.2-15.1C28.3,10.5,37.3,1.5,48.4,1C60.8,0.5,70.9,10.4,70.9,22.6z" class="color7bde9e svgShape"></path><path fill="#a6d8eb" d="M59.3,3.4c-0.7,15.8-12.7,28.7-28.2,30.7c-2.3-3.6-3.5-7.9-3.3-12.5C28.3,10.5,37.3,1.5,48.4,1C52.4,0.9,56.1,1.8,59.3,3.4z" class="colora6ebbf svgShape"></path><path fill="#51afd2" d="M70.9,22.6c0,5.3-1.9,10.1-5,13.8C59.3,44.2,54,52.9,50.4,62.5l-1,2.8l-1.6-4.3c-2.5-6.7-6-13-10.3-18.7C53.5,40.1,66,26.3,66,9.7c0-0.3,0-0.6,0-0.8C69.1,12.6,70.9,17.4,70.9,22.6z" class="color51d27f svgShape"></path><path fill="#ffffff" d="M49.3,36.2c-7.5,0-13.6-6.1-13.6-13.6C35.7,15.1,41.8,9,49.3,9c7.5,0,13.6,6.1,13.6,13.6C62.9,30.1,56.8,36.2,49.3,36.2z" class="colorffffff svgShape"></path><path fill="#e8e9ea" d="M62.9,22.6c0,7.5-6.1,13.6-13.6,13.6c-5.4,0-10.1-3.2-12.3-7.8c1.8,0.8,3.7,1.3,5.8,1.3c7.5,0,13.6-6.1,13.6-13.6c0-2.1-0.5-4.1-1.3-5.8C59.7,12.5,62.9,17.1,62.9,22.6z" class="colore8eaea svgShape"></path></g><g fill="#000000" class="color000000 svgShape"><path fill="#333333" d="M117.7,108.5L91.1,85.6c1-1.5,0.9-3.6-0.4-4.9l-3.9-3.9c3.5-6.2,5.5-13.4,5.5-21c0-15.5-8.3-29-20.6-36.6C70,8.3,60.4-0.4,48.4,0C37.6,0.5,28.6,8.7,27,19.2C14.7,26.8,6.4,40.3,6.4,55.8c0,23.6,19.2,42.9,42.9,42.9c7.6,0,14.8-2,21-5.5l3.9,3.9c0.8,0.8,1.8,1.1,2.8,1.1c0.8,0,1.5-0.2,2.2-0.7l22.8,26.6c4.2,4.9,11.7,5.2,16.3,0.6C123,120.1,122.5,112.4,117.7,108.5z M32.2,37.3c5.1,5.9,9.1,12.1,12.2,18.5c-10,0.9-17.3,4.7-17.3,9.4c0,5.4,9.7,9.7,22.2,9.7c12.4,0,22.2-4.2,22.2-9.7c0-4.7-7.2-8.5-17.2-9.4C57.5,49.3,61.6,43,66.6,37c1.3-1.6,2.4-3.3,3.2-5.2c6.7,5.8,11,14.4,11,24c0,17.4-14.2,31.6-31.6,31.6c-8.4,0-16.4-3.3-22.3-9.2c-6-6-9.3-13.9-9.3-22.3c0-9.6,4.3-18.1,11-23.9C29.7,33.8,30.8,35.6,32.2,37.3z M53.4,57.7c8.3,0.7,16.1,3.6,16.1,7.5c0,4.5-10.6,7.7-20.2,7.7s-20.2-3.2-20.2-7.7c0-3.9,7.9-6.8,16.2-7.5c1.3,3,1.7,4.2,3.1,7.8c0.1,0.4,0.5,0.6,0.9,0.6s0.8-0.3,0.9-0.6C50.9,64,51.6,61.7,53.4,57.7z M48.5,2c11.7-0.5,21.4,8.9,21.4,20.5c0,4.8-1.7,9.5-4.8,13.2C53.6,49.5,50.2,60.6,49.3,62.4c-0.6-1.2-3.8-12.8-15.6-26.4c-3.4-4-5.2-9.1-5-14.4C29.3,11.1,37.9,2.4,48.5,2z M8.4,55.8c0-14.2,7.3-26.7,18.3-34.1c-0.1,2.8,0.3,5.6,1.2,8.2c-7.5,6.2-12.2,15.5-12.2,25.9c0,9,3.5,17.4,9.9,23.7c6.3,6.3,14.8,9.8,23.7,9.8c18.5,0,33.6-15.1,33.6-33.6c0-10.4-4.8-19.7-12.3-25.9c0.8-2.3,1.2-4.8,1.2-7.3c0-0.3,0-0.6,0-0.8c11,7.3,18.3,19.9,18.3,34.1c0,22.5-18.3,40.9-40.9,40.9S8.4,78.3,8.4,55.8z M75.7,95.7l-3.6-3.6c5.5-3.4,10.1-8.1,13.6-13.6l3.6,3.6c0.7,0.7,0.7,1.9,0,2.7c0.4-0.4-5.1,5.1-10.9,10.9C77.6,96.4,76.4,96.4,75.7,95.7z M116.9,123.3c-3.7,3.7-9.9,3.6-13.4-0.5L80.7,96.2l4.1-4.1l5-5l26.7,22.9C120.3,113.2,120.7,119.5,116.9,123.3z" class="color333333 svgShape"></path><path fill="#333333" d="M49.3,37.2c8,0,14.6-6.5,14.6-14.6c0-8-6.5-14.6-14.6-14.6c-8,0-14.6,6.5-14.6,14.6C34.7,30.6,41.3,37.2,49.3,37.2z M49.3,10c6.9,0,12.6,5.6,12.6,12.6c0,6.9-5.6,12.6-12.6,12.6c-6.9,0-12.6-5.6-12.6-12.6C36.7,15.6,42.4,10,49.3,10z" class="color333333 svgShape"></path></g></svg>