<svg xmlns="http://www.w3.org/2000/svg" enable-background="new 0 0 128 128" viewBox="0 0 128 128" id="FoodPoint"><path fill="#fe908e" d="M93,115.1c0,6.5-13,11.9-29,11.9c-16,0-29-5.3-29-11.9c0-6.5,13-11.9,29-11.9C80,103.3,93,108.6,93,115.1z" class="colorfedd8e svgShape"></path><path fill="#feb5b4" d="M78.8,105c-3.3,5.1-14.6,8.8-28,8.8c-5.4,0-10.5-0.6-14.8-1.7c3.3-5.1,14.6-8.8,28-8.8C69.4,103.3,74.5,103.9,78.8,105z" class="colorfee9b4 svgShape"></path><path fill="#fd6a67" d="M93,115.1c0,6.5-13,11.9-29,11.9c-14.9,0-27.1-4.6-28.8-10.5c5.3,2.8,13.6,4.6,22.9,4.6c16,0,29-5.3,29-11.9c0-0.5-0.1-0.9-0.2-1.4C90.7,109.9,93,112.4,93,115.1z" class="colorfdd367 svgShape"></path><path fill="#f28482" d="M102.3,39.3c0,9.3-3.4,17.9-8.9,24.6c-11.6,13.9-21.2,29.4-27.6,46.4l-1.9,4.9l-2.9-7.7c-6-15.9-15.1-30.3-26.1-43.1c-6.1-7.1-9.7-16.5-9.3-26.8C26.6,17.8,42.7,1.8,62.4,1C84.3,0.1,102.3,17.6,102.3,39.3z" class="colorfc898c svgShape"></path><path fill="#fcb1b0" d="M81.7,5.3c-1.3,28.1-22.6,50.9-50.1,54.5c-4.1-6.4-6.3-14-5.9-22.3C26.6,17.8,42.7,1.8,62.4,1C69.4,0.7,76,2.3,81.7,5.3z" class="colorfcb0b0 svgShape"></path><path fill="#f96663" d="M102.3,39.3c0,9.3-3.4,17.9-8.9,24.6c-11.6,13.9-21.2,29.4-27.6,46.4l-1.9,4.9l-2.9-7.7c-4.5-11.9-10.7-23.1-18.3-33.3C71.4,70.5,93.6,46,93.6,16.4c0-0.5,0-1,0-1.5C99,21.5,102.3,30.1,102.3,39.3z" class="colorf96364 svgShape"></path><path fill="#a6e4fb" d="M91.7,39.3C91.7,54.6,79.3,67,64,67c-15.3,0-27.7-12.4-27.7-27.7C36.3,24,48.7,11.6,64,11.6C79.3,11.6,91.7,24,91.7,39.3z" class="colora6e1fb svgShape"></path><path fill="#87ddfd" d="M91.7,39.3C91.7,54.6,79.3,67,64,67c-12.4,0-23-8.3-26.5-19.6c5,5,11.9,8.1,19.5,8.1c15.3,0,27.7-12.4,27.7-27.7c0-2.8-0.4-5.5-1.2-8.1C88.6,24.7,91.7,31.6,91.7,39.3z" class="color7ad1f9 svgShape"></path><path fill="#ffffff" d="M57.6,66.3c-2.4-0.6-4.6-1.4-6.7-2.6L52,43.4c0.7,0.3,1.4,0.5,2.2,0.5c0.7,0,1.5-0.2,2.1-0.5L57.6,66.3z" class="colorffffff svgShape"></path><path fill="#ffffff" d="M47.7,38.3c0.2,1.4,0.9,2.6,1.8,3.5c1.2,1.2,2.9,1.9,4.7,1.9c3.3,0,6-2.4,6.5-5.5H47.7z" class="colorffffff svgShape"></path><line x1="47.7" x2="47.7" y1="38.3" y2="29.1" fill="#fff"></line><line x1="60.7" x2="60.7" y1="38.3" y2="29.1" fill="#fff"></line><line x1="56.4" x2="56.4" y1="38.3" y2="29.1" fill="#fff"></line><line x1="52" x2="52" y1="38.3" y2="29.1" fill="#fff"></line><path fill="#ffffff" d="M47.7 38.3c.2 1.4.9 2.6 1.8 3.5 1.2 1.2 2.9 1.9 4.7 1.9 3.3 0 6-2.4 6.5-5.5H47.7zM80.3 36c0 5.2-3 9.4-6.6 9.4-3.6 0-6.6-4.2-6.6-9.4 0-5.2 3-9.4 6.6-9.4C77.4 26.5 80.3 30.8 80.3 36z" class="colorffffff svgShape"></path><path fill="#ffffff" d="M77,63.8c-2.1,1.1-4.3,2-6.7,2.5l1.2-21.4c0.7,0.4,1.5,0.6,2.2,0.6c0.8,0,1.5-0.2,2.2-0.6L77,63.8z" class="colorffffff svgShape"></path><path fill="#333333" d="M103.3,39.3c0-22.2-18.4-40.2-40.9-39.3C42.1,0.9,25.6,17.3,24.7,37.5c-0.4,10.1,2.9,19.8,9.5,27.5c10.2,11.9,18.2,24.5,23.8,37.5c-13.9,1.1-24,6.3-24,12.6c0,7.2,13.2,12.9,30,12.9c16.8,0,30-5.6,30-12.9c0-6.3-10.1-11.4-23.9-12.6c5.9-13.2,14-25.9,24.1-38C100.1,57.5,103.3,48.5,103.3,39.3z M92,115.1c0,5.2-11.3,10.9-28,10.9c-16.7,0-28-5.6-28-10.9c0-4.7,9-9.7,22.8-10.7c1.3,3.1,1.5,3.9,4.2,11c0.3,0.9,1.5,0.9,1.9,0c1.4-3.7,2.4-6.5,4.3-11C83,105.5,92,110.5,92,115.1z M64,112.3c-1.5-3.2-6.9-23.9-28.3-48.6c-6.2-7.2-9.4-16.5-9-26.1C27.6,18.4,43.3,2.8,62.5,2c21.4-0.9,38.9,16.2,38.9,37.3c0,8.7-3.1,17.2-8.7,23.9C71,89.1,64.9,110.5,64,112.3z" class="color333333 svgShape"></path><path fill="#333333" d="M64,10.6c-15.8,0-28.7,12.9-28.7,28.7C35.3,55.2,48.2,68,64,68c15.8,0,28.7-12.9,28.7-28.7C92.7,23.5,79.8,10.6,64,10.6z M59.4,39.3c-1.9,4.6-8.5,4.6-10.4,0H59.4z M55.4,44.7L56.5,65c-1.6-0.5-3.1-1.1-4.6-1.8l1-18.5C53.8,44.8,54.5,44.8,55.4,44.7z M73.7,44.4c-3.1,0-5.6-3.8-5.6-8.4c0-4.7,2.5-8.4,5.6-8.4c3.1,0,5.6,3.8,5.6,8.4C79.3,40.6,76.8,44.4,73.7,44.4z M75,46.3L76,63.2c-1.5,0.7-3,1.3-4.6,1.8l1-18.7C73.3,46.5,74.1,46.5,75,46.3z M77.9,62.1L77,45.4c2.6-1.7,4.3-5.3,4.3-9.4c0-5.8-3.4-10.4-7.6-10.4c-4.2,0-7.6,4.7-7.6,10.4c0,4.2,1.8,7.7,4.3,9.4l-1.1,20.1C67.6,65.9,65.8,66,64,66c-1.9,0-3.7-0.2-5.5-0.6l-1.2-21.4c2.2-1,3.9-3.1,4.3-5.6c0-0.1,0-7.6,0-9.4c0-0.6-0.4-1-1-1s-1,0.4-1,1v8.2h-2.3v-8.2c0-0.6-0.4-1-1-1s-1,0.4-1,1v8.2H53v-8.2c0-0.6-0.4-1-1-1s-1,0.4-1,1v8.2h-2.3v-8.2c0-0.6-0.4-1-1-1s-1,0.4-1,1c0,1.6,0,9.3,0,9.4c0.4,2.4,2,4.5,4.3,5.6l-1,18c-7.6-4.7-12.7-13.1-12.7-22.7c0-14.7,12-26.7,26.7-26.7c14.7,0,26.7,12,26.7,26.7C90.7,49,85.6,57.4,77.9,62.1z" class="color333333 svgShape"></path></svg>